<ttFont>
          <CharString index="0">
            876 601 rmoveto
            37 -23 27 -46 18 vhcurveto
            -31 13 -34 6 -39 1 -54 1 -56 -16 -57 -33 rrcurveto
            -82 -48 -49 -71 -87 vvcurveto
            -65 37 -43 73 -22 vhcurveto
            -143 -244 -116 -120 -91 5 -31 1 -25 15 -19 27 -17 25 -9 30 -1 36 -3 84 23 77 49 70 rrcurveto
            65 47 47 33 48 hhcurveto
            10 9 -2 -3 8 hvcurveto
            25 -11 13 -23 -36 vvcurveto
            -46 -16 -46 -33 -47 vhcurveto
            -50 -35 -37 -25 -39 hhcurveto
            -25 -26 23 19 10 3 12 6 13 hvcurveto
            6 14 3 9 3 vvcurveto
            6 -3 3 -6 -8 -8 -10 -19 -7 vhcurveto
            -12 -34 2 -42 21 -23 rrcurveto
            -13 11 18 -7 24 hhcurveto
            43 42 28 55 41 hvcurveto
            40 53 20 53 52 vvcurveto
            47 -20 31 -39 15 vhcurveto
            5 -15 -15 3 -17 hhcurveto
            -59 -52 -27 -53 -45 hvcurveto
            -53 -61 -27 -79 -1 -98 rrcurveto
            -127 -2 52 -64 106 hhcurveto
            72 80 47 93 88 hvcurveto
            66 71 56 78 46 85 rrcurveto
            -2 11 12 -1 11 hhcurveto
            36 31 9 18 25 hvcurveto
            23 17 12 19 21 vvcurveto
            17 -8 14 -15 11 vhcurveto
            2 -3 -2 1 39 callsubr
            -3 -5 hvcurveto
            -3 7 -13 -11 vvcurveto
            -21 -13 -17 -25 -15 vhcurveto
            -25 -14 -27 -5 -29 3 rrcurveto
            169 99 77 84 57 16 16 -13 -1 hhcurveto
            8 9 18 16 hvcurveto
            -31 5 rmoveto
            5 -8 -9 2 -9 hhcurveto
            -39 -51 -33 -65 -63 hvcurveto
            -52 -53 -45 -57 -37 -61 rrcurveto
            -49 9 -25 28 49 vvcurveto
            98 60 79 84 38 vhcurveto
            49 22 47 10 44 -2 21 -1 22 103 callgsubr
            25 -14 13 -16 1 -19 rrcurveto
            return
          </CharString>
          <CharString index="1">
            -20 hstem
            -10 callgsubr
            vstem
            -106 callgsubr
            return
          </CharString>
          <CharString index="2">
            rrcurveto
            -197 -141 -99 -123 -105 vvcurveto
            -27 7 -22 14 -18 vhcurveto
            11 -15 14 -9 16 -3 rrcurveto
            -2 10 10 -1 10 hhcurveto
            42 43 13 26 43 hvcurveto
            38 23 25 23 13 25 -18 -6 rcurveline
            -27 -24 -23 -18 -18 -11 rrcurveto
            -22 -36 -35 -11 -34 hhcurveto
            -11 -10 1 2 -11 hvcurveto
            -27 5 -13 19 32 vvcurveto
            45 24 57 48 69 vhcurveto
            51 72 63 61 73 51 rrcurveto
            78 114 94 39 73 hhcurveto
            21 18 -3 -7 17 hvcurveto
            77 callgsubr
            -11 vvcurveto
            -23 -20 -42 -41 -63 vhcurveto
            -20 -31 -49 -70 -79 -111 -103 -145 -48 -88 7 -30 rrcurveto
            -15 4 14 -8 24 hhcurveto
            41 46 19 38 49 hvcurveto
            17 13 40 38 61 61 33 33 59 59 85 87 32 35 21 24 10 12 -75 -111 -62 -99 -48 -89 rrcurveto
            -27 -49 -13 -30 -13 vvcurveto
            -13 9 -6 17 22 35 20 41 47 vhcurveto
            18 19 9 13 6 vvcurveto
            1 46 callsubr
            vhcurveto
            -2 -5 -3 -7 -9 hvcurveto
            -11 -11 -15 -13 -18 -13 -15 -11 -15 -10 -13 -7 -18 -6 rcurveline
            -3 11 20 41 42 70 35 59 40 61 44 64 118 167 rcurveline
            18 27 8 21 -3 15 rrcurveto
            return
          </CharString>
          <CharString index="3">
            rmoveto
            -13 -25 -22 -6 -17 70 callgsubr
            1 2 -1 hvcurveto
            -101 callsubr
            51 21 27 16 79 callsubr
            -103 -52 -98 callsubr
            return
          </CharString>
          <CharString index="4">
            -20 hstem
            464 150 rmoveto
            4 5 2 -36 callsubr
            -46 -72 callgsubr
            -34 -40 -9 -7 -54 -45 rcurveline
            -25 -32 -23 -13 -28 callgsubr
            37 53 32 38 25 23 -59 callgsubr
            49 44 -35 -49 -17 -39 3 -29 rlinecurve
            -34 3 15 -17 27 -68 callgsubr
            return
          </CharString>
          <CharString index="5">
            -35 callgsubr
            -13 30 -101 callgsubr
            return
          </CharString>
          <CharString index="6">
            3 13 2 12 -83 callgsubr
            -18 10 14 -9 17 hhcurveto
            16 -56 callsubr
            return
          </CharString>
          <CharString index="7">
            -20 hstem
            -73 callsubr
            -15 16 -15 -78 callgsubr
            39 hvcurveto
            63 -70 callgsubr
            -35 -49 -36 -48 -36 -49 rrcurveto
            -85 -67 -52 -72 callsubr
            return
          </CharString>
          <CharString index="8">
            -61 callgsubr
            -93 callsubr
            return
          </CharString>
          <CharString index="9">
            rmoveto
            -23 -22 -37 -43 -51 vhcurveto
            -86 callsubr
            16 -25 13 -15 11 -6 rrcurveto
            return
          </CharString>
          <CharString index="10">
            776 -63 callgsubr
            -147 -47 -105 -72 -62 -98 rrcurveto
            -17 -27 -9 -27 -28 vvcurveto
            -47 23 -38 45 -29 vhcurveto
            -71 callsubr
            return
          </CharString>
          <CharString index="11">
            -20 hstem
            -15 38 vstem
            44 -12 rmoveto
            22 41 22 45 61 hvcurveto
            61 45 30 33 19 24 callgsubr
            -3 -5 -3 -7 -5 vhcurveto
            -17 -19 -26 -25 -36 -30 rrcurveto
            -43 -52 -38 -21 -23 -78 callsubr
            vhcurveto
            return
          </CharString>
          <CharString index="12">
            hstem
            14 33 609 42 vstem
            967 546 rmoveto
            2 4 1 3 3 vvcurveto
            6 -3 3 -6 -15 -21 -16 -32 -25 vhcurveto
            -159 -201 -138 -145 -117 -89 rrcurveto
            -37 -49 -34 -19 -18 hhcurveto
            -9 -5 6 11 23 20 46 41 69 hvcurveto
            30 51 29 44 29 39 69 94 45 63 20 32 rrcurveto
            29 46 15 33 21 vvcurveto
            21 -12 15 -24 10 vhcurveto
            -100 callgsubr
            return
          </CharString>
          <CharString index="13">
            hstem
            4 callgsubr
            vstem
            -107 callsubr
            return
          </CharString>
          <CharString index="14">
            -11 12 -18 9 10 9 9 18 8 vhcurveto
            16 40 rlineto
            11 8 5 7 97 callgsubr
            -1 hhcurveto
            return
          </CharString>
          <CharString index="15">
            -127 -113 -135 -53 -141 8 rrcurveto
            -89 5 -44 47 87 -82 callsubr
            return
          </CharString>
          <CharString index="16">
            -39 callsubr
            27 -36 -51 13 -66 -76 callgsubr
            return
          </CharString>
          <CharString index="17">
            -42 -36 -21 -40 -44 vvcurveto
            -38 16 -20 32 -1 vhcurveto
            13 -1 57 callsubr
            vvcurveto
            3 85 callgsubr
            3 vhcurveto
            -19 5 -9 13 21 vvcurveto
            32 24 44 31 25 vhcurveto
            51 62 54 25 47 hhcurveto
            39 20 -20 -41 -51 -26 -49 -53 -47 hvcurveto
            return
          </CharString>
          <CharString index="18">
            6 8 86 callgsubr
            vvcurveto
            5 71 callgsubr
            -2 -2 -1 -3 -2 vhcurveto
            -115 -92 -63 -57 -35 hhcurveto
            -12 -7 8 15 -3 hvcurveto
            -4 23 20 43 43 63 43 64 22 33 -1 2 rrcurveto
            9 -1 return
          </CharString>
          <CharString index="19">
            -73 callgsubr
            -51 callsubr
            44 19 37 51 49 callsubr
            return
          </CharString>
          <CharString index="20">
            rmoveto
            -99 callsubr
            -121 hmoveto
            -99 callsubr
            return
          </CharString>
          <CharString index="21">
            -53 -45 -37 -26 -28 hhcurveto
            -15 -8 10 21 -1 hvcurveto
            -58 callgsubr
            return
          </CharString>
          <CharString index="22">
            31 -27 18 -32 5 -37 -23 -28 -35 -34 -47 -41 -56 -46 rcurveline
            -19 -23 -9 -9 6 hhcurveto
            44 callsubr
            1 4 hvcurveto
            85 52 60 45 35 39 -7 -69 -46 return
          </CharString>
          <CharString index="23">
            15 -8 7 -16 -18 -33 -25 -50 -49 vhcurveto
            -7 -7 -30 -34 -53 -59 -21 15 -16 5 -12 -3 rrcurveto
            -21 -5 -10 -10 -15 55 callgsubr
            6 7 2 3 8 vhcurveto
            16 -6 -7 -5 -7 -8 -8 -11 rlinecurve
            -153 -205 -120 -104 -85 -3 rrcurveto
            -53 -2 -26 18 37 vvcurveto
            40 34 54 47 37 vhcurveto
            10 8 5 6 3 44 callgsubr
            -15 -18 -11 -22 -22 vhcurveto
            -17 -17 -14 -20 -13 -25 rrcurveto
            -14 -27 -7 -24 -21 vvcurveto
            -43 28 -21 57 7 8 0 1 9 vhcurveto
            72 7 71 37 70 68 36 35 57 70 79 105 -4 -15 10 -48 25 -81 26 -86 24 -56 23 -27 rrcurveto
            return
          </CharString>
          <CharString index="24">
            901 414 rmoveto
            7 17 4 16 17 vvcurveto
            36 -16 31 -32 27 vhcurveto
            -34 28 -47 19 -61 9 rrcurveto
            7 -43 -43 3 -43 hhcurveto
            -136 -117 -30 -61 -97 hvcurveto
            -97 -61 -54 -74 -10 -88 rrcurveto
            -35 -4 25 -17 54 hhcurveto
            45 44 13 26 43 hvcurveto
            43 26 29 32 13 38 rrcurveto
            5 2 -1 89 callsubr
            -4 -4 -4 -9 -5 hvcurveto
            -13 -24 -24 -23 -33 -22 rrcurveto
            -25 -39 -35 -13 -32 hhcurveto
            -34 -17 13 26 81 61 69 121 59 hvcurveto
            49 101 95 24 87 hhcurveto
            39 39 -3 -7 39 hvcurveto
            42 -7 34 -14 25 -20 rrcurveto
            27 -22 14 -26 -29 vvcurveto
            -15 -4 -16 -8 -17 vhcurveto
            return
          </CharString>
          <CharString index="25">
            -59 callsubr
            73 50 -20 -40 29 hvcurveto
            -38 callgsubr
            return
          </CharString>
          <CharString index="26">
            -87 callsubr
            124 -1 rmoveto
            19 callgsubr
            return
          </CharString>
          <CharString index="27">
            27 25 46 50 65 hvcurveto
            51 66 25 33 -1 vvcurveto
            12 -23 12 -12 vhcurveto
            -25 -1 -30 -31 -37 -60 -34 -55 -20 -46 -6 -35 rrcurveto
            -1 -6 -1 -6 -6 vvcurveto
            return
          </CharString>
          <CharString index="28">
            rmoveto
            20 -23 14 -19 -19 -38 callsubr
            2 -14 -7 -15 -15 18 callgsubr
            -51 callgsubr
            endchar
          </CharString>
          <CharString index="29">
            hhcurveto
            -18 -9 10 21 -80 callsubr
            -45 20 -22 39 return
          </CharString>
          <CharString index="30">
            -50 callgsubr
            -81 -536 -52 callsubr
            -247 431 -98 callsubr
            200 -456 -98 callsubr
            return
          </CharString>
          <CharString index="31">
            1567 732 rmoveto
            8 -21 -22 4 -25 hhcurveto
            -178 -115 -94 -153 -201 hvcurveto
            -298 -227 -11 26 -7 21 -4 16 rlinecurve
            112 192 56 116 41 vvcurveto
            5 -1 4 89 callgsubr
            3 -5 -5 1 -7 hhcurveto
            -27 -63 -27 -53 -99 hvcurveto
            -33 -18 -32 -26 -29 -33 rrcurveto
            -29 -33 -14 -28 -23 vvcurveto
            -15 8 -10 17 -4 vhcurveto
            12 -1 17 1 21 3 rrcurveto
            21 3 11 4 3 vvcurveto
            1 43 callgsubr
            -27 -21 5 10 -14 hvcurveto
            -7 5 -3 6 7 vvcurveto
            17 15 22 29 29 vhcurveto
            23 23 22 18 23 15 17 11 29 15 42 21 43 21 23 10 4 -2 rrcurveto
            1 0 -1 -1 -11 -15 -35 -29 -60 hvcurveto
            -31 -64 -33 -63 -36 -61 rrcurveto
            2 -9 -10 1 -9 hhcurveto
            -35 -29 -13 -25 -21 hvcurveto
            -19 -23 -10 -26 -29 vvcurveto
            -26 8 -20 15 -14 vhcurveto
            -84 -103 -80 -74 -75 -43 -50 -29 -40 -13 -31 3 rrcurveto
            -81 9 -41 41 72 vvcurveto
            27 5 27 11 28 vhcurveto
            14 35 24 34 34 33 rrcurveto
            return
          </CharString>
          <CharString index="32">
            20 -21 -21 10 -21 hhcurveto
            -55 -60 -73 -145 -65 hvcurveto
            1 -65 -32 1 3 hhcurveto
            -5 -5 -2 -4 -5 hvcurveto
            -7 -5 -4 -6 -7 vvcurveto
            -15 33 -8 67 -1 vhcurveto
            -54 -130 -47 -107 -37 -72 -25 -37 rlinecurve
            -70 -47 -52 -35 -56 hhcurveto
            -10 -32 callsubr
            55 57 41 83 58 hvcurveto
            16 23 40 69 63 117 32 63 25 51 18 38 37 7 36 6 37 6 return
          </CharString>
          <CharString index="33">
            rmoveto
            193 319 rlineto
            1 57 callgsubr
            vvcurveto
            6 -6 3 -12 -13 -9 -3 -8 -5 vhcurveto
            -3 -6 -49 -38 -38 -24 -27 -10 rlinecurve
            -3 -2 -2 -2 -4 vvcurveto
            -7 3 -1 6 2 vhcurveto
            34 13 28 13 22 14 -151 -275 rcurveline
            -26 -9 -20 -7 -14 -6 rrcurveto
            -4 -1 -2 -4 -6 vvcurveto
            -9 5 -9 7 3 vhcurveto
            42 17 27 10 12 4 rrcurveto
            10 31 29 4 26 hhcurveto
            6 3 3 6 21 callgsubr
            -4 -30 -29 -2 -5 -27 hvcurveto
            return
          </CharString>
          <CharString index="34">
            468 175 -82 callgsubr
            return
          </CharString>
          <CharString index="35">
            -42 -38 -49 callsubr
            55 33 41 hhcurveto
            13 8 -5 -9 5 hvcurveto
            return
          </CharString>
          <CharString index="36">
            52 -33 74 -14 96 5 108 5 92 33 75 61 rrcurveto
            69 55 34 59 61 vvcurveto
            15 -3 14 -5 13 vhcurveto
            30 -13 -30 15 -48 hhcurveto
            -64 -61 -25 -49 -57 hvcurveto
            return
          </CharString>
          <CharString index="37">
            -74 callsubr
            427 170 -61 callsubr
            return
          </CharString>
          <CharString index="38">
            rmoveto
            -14 -12 -14 -7 -16 -46 callgsubr
            -13 -11 vvcurveto
            88 callsubr
            -14 callsubr
            return
          </CharString>
          <CharString index="39">
            35 vstem
            -67 callsubr
            -66 callsubr
            return
          </CharString>
          <CharString index="40">
            426 144 rmoveto
            7 8 2 7 3 vvcurveto
            5 -3 2 -4 -3 103 callsubr
            -3 vhcurveto
            -24 -28 -21 -23 -23 -21 -29 -21 rlinecurve
            -33 -45 -38 -16 -30 hhcurveto
            -29 -15 15 30 33 21 44 43 55 hvcurveto
            69 87 rlineto
            11 4 -15 17 -16 hhcurveto
            -2 -2 0 -1 -2 hvcurveto
            -26 -16 rlineto
            -9 -15 -13 -4 -12 hhcurveto
            -21 -10 7 14 1 8 10 16 21 hvcurveto
            17 21 8 17 12 vvcurveto
            return
          </CharString>
          <CharString index="41">
            14 -8 7 -15 -23 -20 -29 -58 -15 vhcurveto
            -28 -55 -44 -57 -51 -59 -5 -6 103 callsubr
            -5 rrcurveto
            -3 -5 -2 -4 22 callsubr
            -1 4 7 24 26 51 41 vhcurveto
            74 96 rlineto
            -23 11 13 -11 16 hhcurveto
            4 94 callsubr
            -16 -21 -15 -25 -13 -30 rrcurveto
            -17 -38 -9 -33 -29 vvcurveto
            -51 18 -32 57 35 43 20 39 52 vhcurveto
            26 20 18 17 16 17 rrcurveto
            return
          </CharString>
          <CharString index="42">
            rmoveto
            -21 -18 -10 -36 -21 -20 4 7 -19 vhcurveto
            -14 5 -14 8 -13 10 rrcurveto
            7 35 34 4 32 hhcurveto
            36 18 -5 -9 hvcurveto
            return
          </CharString>
          <CharString index="43">
            rmoveto
            6 1 9 5 17 11 43 28 27 16 15 10 13 -8 16 -12 11 -10 rrcurveto
            -31 34 18 -16 7 hhcurveto
            5 4 3 7 11 -13 13 -30 34 hvcurveto
            -18 20 -13 12 -11 9 return
          </CharString>
          <CharString index="44">
            19 callsubr
            13 7 -46 callsubr
            -6 return
          </CharString>
          <CharString index="45">
            rmoveto
            105 152 rlineto
            1 0 1 1 8 -6 3 -14 -5 102 callgsubr
            -2 hvcurveto
            -6 -8 -1 -2 -15 -22 -45 -34 -75 -47 rlinecurve
            -56 -36 -71 -58 -56 -30 -15 -3 -11 -3 -8 -3 rrcurveto
            -9 -3 -4 -6 -11 vvcurveto
            -11 7 -10 10 3 vhcurveto
            20 48 37 10 27 hhcurveto
            21 25 -5 -8 29 hvcurveto
            -18 -47 -21 -64 21 -46 rrcurveto
            -2 2 4 -2 3 hhcurveto
            7 3 4 7 hvcurveto
            1 -1 3 2 vvcurveto
            -18 38 23 66 17 34 rrcurveto
            -10 31 26 -5 21 hhcurveto
            49 24 14 27 10 -3 13 -8 14 hvcurveto
            3 -2 -3 3 -4 hhcurveto
            -4 -2 -3 -6 2 hvcurveto
            1 -5 0 -4 -4 vvcurveto
            -14 -6 -11 -11 -10 vhcurveto
            -6 -9 -10 -4 -12 hhcurveto
            -19 -23 5 9 -28 hvcurveto
            9 16 30 49 21 31 rrcurveto
            return
          </CharString>
          <CharString index="46">
            rmoveto
            3 -3 -4 2 -4 hhcurveto
            -10 -50 -61 -120 -91 hvcurveto
            -92 -124 -52 -79 -13 -34 rrcurveto
            -9 -24 -4 -20 -14 vvcurveto
            -11 4 -6 6 6 4 1 5 3 vhcurveto
            2 3 0 64 callsubr
            rrcurveto
            -4 2 -3 5 8 vvcurveto
            5 2 7 2 7 vhcurveto
            13 34 43 67 76 101 64 86 59 74 55 63 6 8 1 6 -5 4 rrcurveto
            return
          </CharString>
          <CharString index="47">
            -3 -7 -5 -1 -4 hhcurveto
            -9 -5 6 12 -1 hvcurveto
            -2 21 13 31 28 41 14 20 26 33 38 46 29 33 14 20 -1 6 rrcurveto
            return
          </CharString>
          <CharString index="48">
            vvcurveto
            54 18 62 37 69 vhcurveto
            50 95 68 77 86 60 rrcurveto
            65 93 96 32 101 hhcurveto
            return
          </CharString>
          <CharString index="49">
            rmoveto
            32 33 18 30 5 27 rrcurveto
            5 100 callsubr
            vvcurveto
            29 -19 14 -36 -33 -41 -11 -21 -47 vhcurveto
            -43 -19 -36 -22 -28 -24 rrcurveto
            -3 -1 -1 -3 -3 42 callsubr
            2 57 callgsubr
            vhcurveto
            21 19 28 18 37 17 rrcurveto
            18 40 33 9 26 hhcurveto
            27 14 -11 -22 hvcurveto
            102 callgsubr
            -4 vvcurveto
            -5 -26 -11 -24 -19 -22 -13 -16 -20 -19 -28 -22 -29 -23 -61 -39 -93 -57 -23 2 -19 -1 -17 -3 -10 -2 -9 -4 -9 -6 rrcurveto
            -11 -8 -5 -8 -9 vvcurveto
            -7 5 -4 9 4 4 1 1 5 vhcurveto
            32 11 23 9 16 7 rrcurveto
            12 15 -3 -5 18 hvcurveto
            83 -30 rlineto
            -11 33 30 -6 24 hhcurveto
            21 19 4 11 19 hvcurveto
            return
          </CharString>
          <CharString index="50">
            -47 callgsubr
            77 35 82 69 87 vhcurveto
            -26 callgsubr
            -63 -58 -62 -31 -65 hhcurveto
            -60 -45 34 44 31 19 30 37 30 hvcurveto
            11 4 5 5 7 70 callsubr
            1 -3 -5 -6 -3 -6 -8 vhcurveto
            -46 -35 -23 -35 -36 vvcurveto
            -56 62 -41 80 85 73 38 75 61 vhcurveto
            return
          </CharString>
          <CharString index="51">
            hlineto
            37 45 32 65 53 hvcurveto
            51 62 22 42 -7 22 return
          </CharString>
          <CharString index="52">
            -1 vvcurveto
            0 callsubr
            3 -1 vhcurveto
            11 -3 16 10 21 22 rrcurveto
            return
          </CharString>
          <CharString index="53">
            -29 -30 -5 -10 -31 hvcurveto
            -1 13 callgsubr
            vvcurveto
            -2 18 -2 35 -1 vhcurveto
            return
          </CharString>
          <CharString index="54">
            29 53 15 51 51 vvcurveto
            68 -26 60 -51 53 vhcurveto
            -45 46 -53 29 -60 13 rrcurveto
            11 -50 -50 5 -51 hhcurveto
            -113 -98 -24 -47 -82 hvcurveto
            -82 -47 -42 -57 -3 -67 -1 -21 8 -19 15 -17 14 -15 15 -8 17 -3 rrcurveto
            6 hlineto
            -2 1 -6 5 -9 10 -12 14 -5 17 2 21 5 59 46 53 86 47 rrcurveto
            47 86 95 24 103 hhcurveto
            40 38 -4 -8 37 hvcurveto
            39 -9 37 -23 33 -37 rrcurveto
            41 -45 20 -52 -60 vvcurveto
            -52 -16 -55 -31 -57 vhcurveto
            -77 -143 -132 -81 -185 -17 rrcurveto
            -1 -13 -13 -1 -13 hhcurveto
            -81 -58 28 55 -37 hvcurveto
            6 5 return
          </CharString>
          <CharString index="55">
            rmoveto
            9 -17 -1 -1 3 vhcurveto
            -101 callsubr
            rrcurveto
            15 6 8 7 9 vvcurveto
            return
          </CharString>
          <CharString index="56">
            -27 callsubr
            -36 21 -24 43 -12 vhcurveto
            -1 callsubr
            return
          </CharString>
          <CharString index="57">
            315 rmoveto
            -65 callgsubr
            return
          </CharString>
          <CharString index="58">
            -23 callgsubr
            43 32 55 72 67 rrcurveto
            65 69 return
          </CharString>
          <CharString index="59">
            rmoveto
            -81 -129 -48 -81 -16 -31 rrcurveto
            -14 -17 0 1 -21 hvcurveto
            -59 hlineto
            return
          </CharString>
          <CharString index="60">
            rmoveto
            7 callgsubr
            -33 -267 rmoveto
            26 27 17 21 7 24 callgsubr
            -3 -11 -6 -17 -13 vhcurveto
            -20 -25 -21 -20 -36 -30 rrcurveto
            -12 -14 -66 -50 -33 hhcurveto
            -15 -10 9 23 -80 callsubr
            -49 22 -17 29 79 62 70 49 49 vhcurveto
            endchar
          </CharString>
          <CharString index="61">
            6 rrcurveto
            5 5 3 6 8 vvcurveto
            35 callsubr
            return
          </CharString>
          <CharString index="62">
            669 699 42 callgsubr
            -1 -2 -1 -1 -2 hvcurveto
            -88 -41 -78 -25 -68 -8 -25 -3 -14 -1 -2 3 rrcurveto
            -101 callsubr
            29 1 41 7 51 15 47 14 40 15 33 16 -67 -76 -89 -113 -109 return
          </CharString>
          <CharString index="63">
            hstem
            54 callsubr
            vstem
            -87 callgsubr
            -12 callsubr
            return
          </CharString>
          <CharString index="64">
            47 callgsubr
            5 5 5 callsubr
            -4 -5 -5 -4 -8 -6 vhcurveto
            -29 -37 -34 return
          </CharString>
          <CharString index="65">
            rrcurveto
            -9 -23 -8 -28 -25 vvcurveto
            -46 40 -17 39 61 65 65 45 41 vhcurveto
            24 27 rlineto
            5 6 12 15 76 callsubr
            -5 -10 -8 -8 -6 vhcurveto
            -82 -68 -76 -48 -43 hhcurveto
            -24 -8 15 16 return
          </CharString>
          <CharString index="66">
            hhcurveto
            -12 hlineto
            25 48 16 31 9 15 9 15 17 24 19 13 rrcurveto
            14 19 7 0 15 hhcurveto
            11 14 -7 -9 5 hvcurveto
            -5 3 3 -3 4 hhcurveto
            12 6 10 21 9 -3 7 -5 5 hvcurveto
            return
          </CharString>
          <CharString index="67">
            -62 callgsubr
            hintmask 0010100000000000
            -33 callgsubr
          </CharString>
          <CharString index="68">
            11 23 6 23 22 vvcurveto
            39 -17 32 -34 25 vhcurveto
            return
          </CharString>
          <CharString index="69">
            -10 -10 -20 -12 26 -10 1 -15 vhcurveto
            return
          </CharString>
          <CharString index="70">
            -18 15 -12 -15 -15 -11 -33 -25 -17 -13 -57 -35 -20 -17 14 -7 18 5 rrcurveto
            endchar
          </CharString>
          <CharString index="71">
            5 3 5 callsubr
            -4 -4 -4 -2 -5 -4 vhcurveto
            -62 -71 -55 return
          </CharString>
          <CharString index="72">
            80 214 46 2 -20 hstemhm
            hintmask 01000000
            396 262 rmoveto
            hintmask 10000000
            -52 callgsubr
            rrcurveto
            hintmask 01000000
            84 callgsubr
          </CharString>
          <CharString index="73">
            6 8 2 91 callsubr
            -6 -4 -5 -5 vhcurveto
            -28 -33 -85 -95 -49 -2 rrcurveto
            -10 -7 6 17 29 22 44 44 59 hvcurveto
            48 65 24 33 1 vvcurveto
            1 2 0 2 2 vvcurveto
            20 -12 8 -25 -3 vhcurveto
            -23 -3 -48 -27 -73 -51 -37 -26 -37 -26 -37 -27 9 26 39 58 71 90 return
          </CharString>
          <CharString index="74">
            vvcurveto
            -19 6 -10 11 9 7 86 callgsubr
            vhcurveto
            3 5 0 3 -3 1 rrcurveto
            -7 4 -4 8 13 vvcurveto
            return
          </CharString>
          <CharString index="75">
            -10 5 10 -10 hvcurveto
            20 -20 5 26 -8 hhcurveto
            -4 -3 -4 -8 -2 hvcurveto
            -39 1 32 -40 40 hhcurveto
            return
          </CharString>
          <CharString index="76">
            -10 24 -10 41 -11 59 rrcurveto
            40 -7 -10 20 -12 hhcurveto
            -25 -27 -34 -68 -29 hvcurveto
            -25 -61 -12 -46 -31 vvcurveto
            -16 3 -15 6 -13 vhcurveto
            -16 8 11 -8 15 hhcurveto
            28 43 23 45 58 hvcurveto
            49 -61 80 -27 111 5 83 4 76 17 69 29 101 43 76 68 50 91 rrcurveto
            return
          </CharString>
          <CharString index="77">
            hhcurveto
            23 29 9 18 35 hvcurveto
            35 18 18 14 10 vvcurveto
            2 43 callgsubr
            -8 -2 -18 -7 -29 -13 -26 -11 -18 -7 -10 -2 rrcurveto
            return
          </CharString>
          <CharString index="78">
            hlineto
            -1 -27 -13 0 1 hhcurveto
            -9 -16 -9 -15 -10 29 -7 59 -4 hvcurveto
            return
          </CharString>
          <CharString index="79">
            18 -2 -12 9 -22 hhcurveto
            -16 -34 -32 -65 -52 hvcurveto
            -59 -75 return
          </CharString>
          <CharString index="80">
            -47 -53 -31 -61 101 callsubr
            -61 -29 -54 -47 vvcurveto
            return
          </CharString>
          <CharString index="81">
            21 callgsubr
            -5 54 callgsubr
            -13 -16 -22 -30 -31 -43 rrcurveto
            -35 -50 -17 82 callsubr
            64 -51 23 -19 19 46 callgsubr
            3 5 9 vvcurveto
            7 -32 38 callgsubr
            return
          </CharString>
          <CharString index="82">
            581 364 rmoveto
            47 -17 38 -33 29 vhcurveto
            29 -33 -41 15 -47 hhcurveto
            -80 -81 -36 -72 -81 hvcurveto
            -85 -74 -42 -76 -79 vvcurveto
            -47 18 -38 36 -29 vhcurveto
            -28 34 41 -14 47 hhcurveto
            79 81 36 73 81 hvcurveto
            82 73 41 75 78 vvcurveto
            -38 -8 rmoveto
            return
          </CharString>
          <CharString index="83">
            35 callgsubr
            -99 hmoveto
            1 30 callsubr
            9 -15 91 callgsubr
            32 rlineto
            endchar
          </CharString>
          <CharString index="84">
            365 -79 29 365 17 callgsubr
            166 -20 return
          </CharString>
          <CharString index="85">
            5 callgsubr
            5 vhcurveto
            endchar
          </CharString>
          <CharString index="86">
            -8 -15 -4 -10 -7 vvcurveto
            -11 10 -6 19 5 12 14 28 20 vhcurveto
            11 15 10 15 10 15 69 83 77 63 86 43 -20 -32 -20 -32 -19 -32 rrcurveto
            -24 -42 -12 -34 -26 vvcurveto
            -46 20 -23 39 33 111 106 39 31 vhcurveto
            return
          </CharString>
          <CharString index="87">
            rmoveto
            -52 callgsubr
            41 callsubr
            return
          </CharString>
          <CharString index="88">
            42 vvcurveto
            68 -36 46 -73 23 vhcurveto
            9 -28 -31 4 -35 hhcurveto
            -69 -71 -16 -31 -73 hvcurveto
            -78 -33 -67 -46 -55 -58 return
          </CharString>
          <CharString index="89">
            694 -34 -20 315 28 244 -21 return
          </CharString>
          <CharString index="90">
            -7 callgsubr
            35 hvcurveto
            35 21 20 13 6 5 rrcurveto
            7 5 3 7 8 vvcurveto
            8 85 callgsubr
            60 callgsubr
            -5 -7 vhcurveto
            -45 -36 -35 -27 -25 -19 rrcurveto
            78 callgsubr
            -2 5 callgsubr
            4 vhcurveto
            return
          </CharString>
          <CharString index="91">
            rmoveto
            -29 callgsubr
            -16 8 return
          </CharString>
          <CharString index="92">
            -77 callgsubr
            endchar
          </CharString>
          <CharString index="93">
            101 callgsubr
            3 7 4 9 11 hvcurveto
            9 11 return
          </CharString>
          <CharString index="94">
            rmoveto
            28 -18 24 -25 -23 -17 -11 -21 -11 vhcurveto
            -11 -3 -10 -11 -8 -18 rrcurveto
            -7 -15 -3 -15 -14 vvcurveto
            return
          </CharString>
          <CharString index="95">
            7 -17 -21 4 -23 hhcurveto
            -44 -51 -11 -23 -59 hvcurveto
            -53 return
          </CharString>
          <CharString index="96">
            -5 -4 -3 -5 hhcurveto
            -3 -4 22 return
          </CharString>
          <CharString index="97">
            17 -25 9 -17 -9 12 callsubr
            -2 -3 -3 -3 vvcurveto
            -7 3 -4 32 callgsubr
            32 vvcurveto
            endchar
          </CharString>
          <CharString index="98">
            rmoveto
            -33 -25 -40 -32 -10 -5 7 13 13 4 13 8 12 vhcurveto
            11 17 7 10 2 5 -11 return
          </CharString>
          <CharString index="99">
            2 2 3 hvcurveto
            endchar
          </CharString>
          <CharString index="100">
            51 callsubr
            52 23 46 59 hvcurveto
            65 51 32 52 54 vvcurveto
            -51 10 rmoveto
            -56 -29 -50 -57 -45 vhcurveto
            -38 -49 -43 -19 52 callsubr
            return
          </CharString>
          <CharString index="101">
            -81 -113 -61 -91 -40 -68 rrcurveto
            -61 -107 -31 -82 -58 vvcurveto
            -25 6 -21 12 -17 vhcurveto
            -6 return
          </CharString>
          <CharString index="102">
            -20 hstemhm
            3 -13 callgsubr
            return
          </CharString>
          <CharString index="103">
            47 -30 30 277 37 72 33 return
          </CharString>
          <CharString index="104">
            hhcurveto
            4 -8 callsubr
          </CharString>
          <CharString index="105">
            rmoveto
            20 -23 14 -36 callgsubr
            endchar
          </CharString>
          <CharString index="106">
            -2 6 7 -1 7 hhcurveto
            35 return
          </CharString>
          <CharString index="107">
            -1 1 -1 return
          </CharString>
          <CharString index="108">
            35 10 -32 16 -35 hhcurveto
            -30 -16 -5 -10 -3 hvcurveto
            -4 30 callgsubr
            5 7 21 7 9 hhcurveto
            13 3 -7 -14 -4 hvcurveto
            -4 -18 -16 -28 -25 -41 return
          </CharString>
          <CharString index="109">
            -26 hlineto
            -1 -6 -3 63 callsubr
            -16 -9 -15 -10 11 -7 21 -4 hvcurveto
            return
          </CharString>
          <CharString index="110">
            rrcurveto
            5 -7 -6 3 -4 hhcurveto
            -7 -3 -4 return
          </CharString>
          <CharString index="111">
            23 16 22 14 16 vhcurveto
            return
          </CharString>
          <CharString index="112">
            vvcurveto
            21 callgsubr
            return
          </CharString>
          <CharString index="113">
            20 -23 14 -19 -25 -13 -10 15 callgsubr
            return
          </CharString>
          <CharString index="114">
            -13 -9 -19 -19 19 -17 23 16 22 15 16 vhcurveto
            return
          </CharString>
          <CharString index="115">
            48 48 36 31 24 13 rrcurveto
            19 2 10 7 11 32 callsubr
            -34 -13 -72 -77 -109 -143 return
          </CharString>
          <CharString index="116">
            rmoveto
            98 69 90 67 49 29 -14 -20 rcurveline
            -42 -60 -43 -70 -14 -32 rrcurveto
            13 -33 -28 7 -21 hhcurveto
            -8 -14 -1 -2 -20 hvcurveto
            endchar
          </CharString>
          <CharString index="117">
            55 97 vhcurveto
            61 106 72 95 83 85 35 36 16 24 -3 11 rrcurveto
            return
          </CharString>
          <CharString index="118">
            1 -1 40 callgsubr
            hhcurveto
            return
          </CharString>
          <CharString index="119">
            vvcurveto
            -32 -12 -19 -23 -7 vhcurveto
            -24 -3 -24 -4 -24 -4 rrcurveto
            -6 return
          </CharString>
          <CharString index="120">
            -7 5 -10 5 -8 2 -118 36 -118 -195 -30 -74 -6 -18 -3 -17 -3 -14 -9 -60 20 -34 37 -12 return
          </CharString>
          <CharString index="121">
            vlineto
            -1 callgsubr
            return
          </CharString>
          <CharString index="122">
            -2 rmoveto
            -3 callgsubr
            return
          </CharString>
          <CharString index="123">
            -69 -13 21 107 22 150 29 return
          </CharString>
          <CharString index="124">
            80 callgsubr
            6 vhcurveto
            14 return
          </CharString>
          <CharString index="125">
            -1 64 callsubr
            vhcurveto
            return
          </CharString>
          <CharString index="126">
            hvcurveto
            35 21 21 return
          </CharString>
          <CharString index="127">
            hhcurveto
            9 28 10 10 3 hvcurveto
            1 1 0 1 -2 -5 -20 -11 -9 hhcurveto
            -13 -3 9 15 5 hvcurveto
            19 54 return
          </CharString>
          <CharString index="128">
            -64 -45 -81 vhcurveto
            -21 -38 -45 -70 -68 -101 -53 -79 -31 return
          </CharString>
          <CharString index="129">
            -4 45 callgsubr
            return
          </CharString>
          <CharString index="130">
            13 25 27 6 28 hhcurveto
            31 16 -13 -25 hvcurveto
            endchar
          </CharString>
          <CharString index="131">
            -15 -17 rrcurveto
            -15 -17 return
          </CharString>
          <CharString index="132">
            -9 5 -8 10 -7 vhcurveto
            -6 8 9 -3 9 hhcurveto
            return
          </CharString>
          <CharString index="133">
            5 5 4 5 3 4 return
          </CharString>
          <CharString index="134">
            63 callsubr
            -12 -6 return
          </CharString>
          <CharString index="135">
            -6 50 callgsubr
            return
          </CharString>
          <CharString index="136">
            -1 -1 1 return
          </CharString>
          <CharString index="137">
            -22 callgsubr
            -8 return
          </CharString>
          <CharString index="138">
            25 callgsubr
            -21 -6 -13 -5 -8 -7 21 30 return
          </CharString>
          <CharString index="139">
            vvcurveto
            15 -18 13 -27 -11 -12 -2 -5 -13 vhcurveto
            return
          </CharString>
          <CharString index="140">
            88 callgsubr
            -10 -19 return
          </CharString>
          <CharString index="141">
            -242 -183 rrcurveto
            -22 -28 -33 -9 -32 hhcurveto
            -53 -45 29 57 7 hvcurveto
            2 18 return
          </CharString>
          <CharString index="142">
            9 -3 4 return
          </CharString>
          <CharString index="143">
            81 callgsubr
            -20 19 -15 4 callsubr
            return
          </CharString>
          <CharString index="144">
            556 -233 -21 258 45 105 32 return
          </CharString>
          <CharString index="145">
            -3 1 -2 2 -1 vhcurveto
            return
          </CharString>
          <CharString index="146">
            -3 hhcurveto
            -5 -3 return
          </CharString>
          <CharString index="147">
            426 -112 41 -3 33 callgsubr
            return
          </CharString>
          <CharString index="148">
            57 10 25 11 -5 11 rrcurveto
            return
          </CharString>
          <CharString index="149">
            vvcurveto
            -5 2 -2 4 return
          </CharString>
          <CharString index="150">
            -2 64 callsubr
            -1 return
          </CharString>
          <CharString index="151">
            1 3 1 return
          </CharString>
          <CharString index="152">
            -8 -11 vvcurveto
            -19 -8 -21 -16 -22 vhcurveto
            return
          </CharString>
          <CharString index="153">
            40 callgsubr
            1 return
          </CharString>
          <CharString index="154">
            29 callgsubr
            -2 return
          </CharString>
          <CharString index="155">
            1 1 1 1 return
          </CharString>
          <CharString index="156">
            hvcurveto
            49 35 43 return
          </CharString>
          <CharString index="157">
            7 hhcurveto
            15 7 -12 -24 hvcurveto
            endchar
          </CharString>
          <CharString index="158">
            rrcurveto
            -3 10 21 -2 31 hhcurveto
            45 return
          </CharString>
          <CharString index="159">
            -37 hhcurveto
            -17 -17 2 5 -16 hvcurveto
            return
          </CharString>
          <CharString index="160">
            22 callsubr
            -2 3 return
          </CharString>
          <CharString index="161">
            14 33 609 42 return
          </CharString>
          <CharString index="162">
            4 11 hhcurveto
            11 return
          </CharString>
          <CharString index="163">
            -9 22 17 -4 return
          </CharString>
          <CharString index="164">
            7 3 6 return
          </CharString>
          <CharString index="165">
            hhcurveto
            -41 -36 12 24 -29 hvcurveto
            -32 25 -16 33 40 vvcurveto
            return
          </CharString>
          <CharString index="166">
            1 -1 2 return
          </CharString>
          <CharString index="167">
            3 -23 -92 21 -49 hhcurveto
            -51 -19 -19 -26 -16 hvcurveto
            return
          </CharString>
          <CharString index="168">
            1 -4 callgsubr
            return
          </CharString>
          <CharString index="169">
            vhcurveto
            66 92 33 51 10 vvcurveto
            return
          </CharString>
          <CharString index="170">
            0 -1 hhcurveto
            -9 return
          </CharString>
          <CharString index="171">
            1 -2 1 return
          </CharString>
          <CharString index="172">
            30 124 26 150 23 -23 181 hstemhm
            return
          </CharString>
          <CharString index="173">
            16 -9 3 hhcurveto
            3 -8 callsubr
          </CharString>
          <CharString index="174">
            5 98 callgsubr
            return
          </CharString>
          <CharString index="175">
            5 callsubr
            -3 return
          </CharString>
          <CharString index="176">
            -21 22 -21 53 -20 return
          </CharString>
          <CharString index="177">
            vvcurveto
            3 -2 return
          </CharString>
          <CharString index="178">
            2 37 300 20 233 50 69 43 return
          </CharString>
          <CharString index="179">
            -17 37 257 59 319 66 90 41 return
          </CharString>
          <CharString index="180">
            118 -35 138 144 28 152 return
          </CharString>
          <CharString index="181">
            -1 -28 -13 0 1 hhcurveto
            -9 -16 -8 -16 return
          </CharString>
          <CharString index="182">
            -3 callgsubr
            endchar
          </CharString>
          <CharString index="183">
            4 68 callsubr
            return
          </CharString>
          <CharString index="184">
            1 2 1 vvcurveto
            return
          </CharString>
          <CharString index="185">
            -21 127 -20 return
          </CharString>
          <CharString index="186">
            1 12 rrcurveto
            return
          </CharString>
          <CharString index="187">
            2 3 vvcurveto
            return
          </CharString>
          <CharString index="188">
            25 -5 44 319 41 hstemhm
            22 40 return
          </CharString>
          <CharString index="189">
            -29 -7 vvcurveto
            38 callsubr
            return
          </CharString>
          <CharString index="190">
            -153 -206 -87 -131 -21 -57 return
          </CharString>
          <CharString index="191">
            -11 hhcurveto
            -13 return
          </CharString>
          <CharString index="192">
            6 5 vvcurveto
            return
          </CharString>
          <CharString index="193">
            3 3 1 return
          </CharString>
          <CharString index="194">
            2 4 1 return
          </CharString>
          <CharString index="195">
            -1 0 0 return
          </CharString>
          <CharString index="196">
            3 -5 hhcurveto
            return
          </CharString>
          <CharString index="197">
            -17 6 -14 -12 -3 -15 -3 -13 return
          </CharString>
          <CharString index="198">
            6 67 callsubr
            -3 -3 return
          </CharString>
          <CharString index="199">
            -13 -2 -11 -10 vvcurveto
            -13 4 -6 return
          </CharString>
          <CharString index="200">
            60 -22 31 235 52 28 -20 return
          </CharString>
          <CharString index="201">
            34 callgsubr
            hvcurveto
            return
          </CharString>
          <CharString index="202">
            38 vhcurveto
            7 -7 14 return
          </CharString>
          <CharString index="203">
            2 30 callgsubr
            return
          </CharString>
          <CharString index="204">
            -21 103 -20 hstemhm
            return
          </CharString>
          <CharString index="205">
            hstem
            -33 47 vstem
            return
          </CharString>
          <CharString index="206">
            1 2 2 return
          </CharString>
          <CharString index="207">
            1 4 4 return
          </CharString>
          <CharString index="208">
            -59 vhcurveto
            -58 return
          </CharString>
          <CharString index="209">
            432 rmoveto
            return
          </CharString>
          <CharString index="210">
            -4 -5 -3 return
          </CharString>
        <CharString name=".notdef">
          174 0 63 625 62 hstem
          63 62 250 63 vstem
          63 hmoveto
          375 750 -375 hlineto
          62 -687 rmoveto
          625 250 -625 vlineto
          endchar
        </CharString>
        <CharString name="A">
          694 -34 -20 315 28 244 -21 157 -106 callsubr
          endchar
        </CharString>
        <CharString name="AE">
          1074 -34 -20 315 28 26 17 callgsubr
          36 -21 151 -20 26 -20 hstemhm
          -10 callgsubr
          183 -13 callgsubr
          hintmask 1111011011110111
          1485 583 rmoveto
          hintmask 1111011011111011
          -27 callgsubr
          -12 -5 -11 -6 -10 -5 rrcurveto
          hintmask 1111010111110111
          5 18 2 15 10 87 callgsubr
          7 -7 -16 -47 -40 -81 -77 vhcurveto
          -105 callgsubr
          -2 -3 -13 -20 -30 -78 3 -58 rlinecurve
          12 -245 319 73 116 88 rrcurveto
          70 53 33 61 61 vvcurveto
          60 -45 27 -54 -64 -61 -25 -49 -57 vhcurveto
          -90 callsubr
          -104 -94 -321 -97 50 261 10 54 22 58 25 49 13 26 rcurveline
          35 17 36 20 39 11 -86 callgsubr
          hintmask 1111101011110111
          -64 callgsubr
          hintmask 1111010111110111
          -9 -4 -3 -6 hvcurveto
          hintmask 1111100111110111
          -11 callgsubr
          vhcurveto
          19 17 9 20 1 23 rrcurveto
          -459 -53 -48 callsubr
          493 78 -65 callsubr
          -247 54 rmoveto
          6 12 4 -22 10 -19 16 -17 rlinecurve
          -30 -10 -22 -8 -21 -9 12 21 11 25 14 27 rrcurveto
          endchar
        </CharString>
        <CharString name="Aacute">
          0 callgsubr
          96 -21 103 -106 callsubr
          372 432 -96 callgsubr
        </CharString>
        <CharString name="Acircumflex">
          -18 callsubr
          181 -21 47 -21 80 -20 41 -20 46 -106 callsubr
          254 423 -71 callgsubr
        </CharString>
        <CharString name="Adieresis">
          0 callgsubr
          109 -21 86 -106 callsubr
          500 533 -81 callsubr
          -122 hmoveto
          67 callgsubr
        </CharString>
        <CharString name="Agrave">
          0 callgsubr
          95 -21 102 -106 callsubr
          408 438 -57 callgsubr
        </CharString>
        <CharString name="Aring">
          -18 callsubr
          145 146 -134 -20 hstemhm
          -10 callgsubr
          254 37 72 24 hintmask 1111011111000000
          1227 751 -13 callsubr
          -16 5 -11 11 -6 vhcurveto
          -24 -15 -41 -38 -58 -61 -107 callgsubr
          hintmask 1110111111000000
          5 21 3 16 11 vvcurveto
          hintmask 1111011111000000
          3 0 2 -1 3 vhcurveto
          23 20 10 19 19 hvcurveto
          19 20 9 22 23 vvcurveto
          -201 -221 -48 callsubr
          433 459 -2 callgsubr
        </CharString>
        <CharString name="Atilde">
          0 callgsubr
          121 69 callsubr
          hstemhm
          -10 callgsubr
          hintmask 1111011111000000
          -106 callgsubr
          502 513 -62 callgsubr
          hintmask 1111101111000000
          -33 callgsubr
        </CharString>
        <CharString name="B">
          493 -47 21 1 23 649 23 hstem
          18 34 67 32 553 66 71 53 vstem
          881 448 rmoveto
          9 23 4 22 20 vvcurveto
          53 -28 41 -57 27 vhcurveto
          24 -49 -66 12 -81 hhcurveto
          -114 -102 -19 -39 -91 hvcurveto
          -45 -19 -39 -25 -33 -29 rrcurveto
          -47 -41 -23 -44 -45 vvcurveto
          -46 21 -28 41 -9 vhcurveto
          7 2 1 2 -3 hvcurveto
          -9 7 -7 6 -5 7 rrcurveto
          -10 13 -5 15 19 vvcurveto
          -1 29 20 34 40 41 37 38 40 29 43 20 rrcurveto
          40 84 95 20 106 hhcurveto
          67 53 -10 -20 39 hvcurveto
          45 -23 22 -35 -45 vvcurveto
          -19 -4 -21 -8 -23 vhcurveto
          -13 -36 -30 -27 -45 -18 rrcurveto
          -14 -36 -40 -7 -44 hhcurveto
          -14 -13 1 1 -11 hvcurveto
          -1 -34 15 -17 hhcurveto
          -13 -10 -5 -9 -8 hvcurveto
          -3 102 callgsubr
          -3 vvcurveto
          -9 16 -6 31 -4 vhcurveto
          41 -5 20 -3 0 vvcurveto
          29 -10 23 -15 18 -21 rrcurveto
          20 -23 10 -25 -27 vvcurveto
          -20 -5 -20 -11 -20 vhcurveto
          -25 -47 -37 -38 -48 -31 rrcurveto
          -30 -48 -49 -15 -49 hhcurveto
          -81 -61 40 81 -41 hvcurveto
          63 56 69 80 75 104 12 17 33 34 53 52 57 55 39 34 21 12 rrcurveto
          19 2 10 7 12 32 callsubr
          -33 -13 -72 -77 -110 -143 -89 -120 rcurveline
          -32 -44 -26 -33 -21 -22 -30 96 rcurveline
          32 -10 -15 16 -19 hhcurveto
          -7 -7 -2 -3 -9 hvcurveto
          -22 -9 -25 -29 -28 -50 rrcurveto
          -31 -54 -15 -47 -39 vvcurveto
          -30 10 -21 20 -11 vhcurveto
          -2 4 5 -1 5 hhcurveto
          30 49 29 57 68 hvcurveto
          -72 38 72 -36 105 hhcurveto
          69 65 15 31 63 hvcurveto
          65 33 45 40 23 49 rrcurveto
          11 22 5 23 23 vvcurveto
          40 -14 34 -28 28 vhcurveto
          -26 26 -33 14 -39 2 52 1 46 8 44 15 59 21 36 30 14 40 rrcurveto
          -683 -359 rmoveto
          -61 -61 -41 -30 -21 hhcurveto
          -5 -3 2 3 -2 hvcurveto
          -9 15 -4 16 18 vvcurveto
          44 25 57 49 71 vhcurveto
          1 2 100 callgsubr
          hhcurveto
          16 21 -44 -89 27 hvcurveto
          endchar
        </CharString>
        <CharString name="C">
          400 -65 35 308 23 349 -20 hstem
          399 21 335 42 vstem
          760 391 rmoveto
          25 31 12 36 -19 callsubr
          -77 -81 -47 -83 -18 -85 -18 -81 11 -66 40 -53 rrcurveto
          -55 41 64 -27 86 hhcurveto
          14 14 1 1 15 hvcurveto
          -57 callsubr
          endchar
        </CharString>
        <CharString name="Ccedilla">
          400 -289 -21 588 23 349 -20 hstem
          31 52 103 42 171 21 335 42 vstem
          228 -212 90 callgsubr
          25 -10 16 8 vvcurveto
          16 5 14 9 12 vhcurveto
          36 -9 41 -3 45 5 -57 callsubr
          25 31 12 36 -19 callsubr
          rrcurveto
          -100 -105 -50 -106 -105 vvcurveto
          -99 43 -66 85 -33 vhcurveto
          -17 -17 -8 -23 -28 vvcurveto
          -13 9 -19 17 -24 vhcurveto
          17 -24 9 -17 -10 12 callsubr
          -1 -3 -3 -4 vvcurveto
          -7 3 -3 32 callgsubr
          31 vvcurveto
          endchar
        </CharString>
        <CharString name="D">
          595 -58 20 645 27 hstem
          15 36 817 58 vstem
          882 194 rmoveto
          -53 callsubr
          71 59 72 80 71 99 rlinecurve
          28 39 39 45 50 49 8 callsubr
          -87 -114 -66 -80 -44 -46 -31 callsubr
          -715 -140 rmoveto
          -41 -40 -34 -26 -29 -13 rrcurveto
          -8 15 -4 18 21 vvcurveto
          49 23 58 46 66 vhcurveto
          2 -29 3 -23 4 -15 6 -23 13 -27 19 -31 rrcurveto
          29 256 rmoveto
          13 callgsubr
          1 vhcurveto
          1 0 0 1 1 hvcurveto
          endchar
        </CharString>
        <CharString name="Delta">
          126 -7 26 -21 34 hstem
          392 36 vstem
          428 -2 rmoveto
          -32 141 -30 247 -9 142 rrcurveto
          5 -2 2 -2 -11 -34 -66 -10 -6 vhcurveto
          -137 -223 -48 -78 -56 -95 -36 -65 rlinecurve
          2 64 65 0 60 hhcurveto
          120 94 -2 0 hvcurveto
          -44 35 rmoveto
          -10 -68 -3 -76 hhcurveto
          -42 -118 0 7 2 87 callsubr
          3 hvcurveto
          61 119 112 179 78 126 rrcurveto
          3 99 callsubr
          2 hhcurveto
          6 44 -390 -52 5 hvcurveto
          endchar
        </CharString>
        <CharString name="E">
          -23 callsubr
          hstemhm
          3 64 243 47 -30 30 277 37 72 33 hintmask 1111111011000000
          -97 callsubr
          hintmask 1111110111000000
          -104 callgsubr
          endchar
        </CharString>
        <CharString name="Eacute">
          -23 callsubr
          102 -21 103 -5 callsubr
          hintmask 1111100110110000
          -97 callsubr
          hintmask 1111100101110000
          -104 callgsubr
          hintmask 0000011000000000
          99 354 -96 callgsubr
        </CharString>
        <CharString name="Ecircumflex">
          -23 callsubr
          52 69 callgsubr
          26 -20 40 -5 callsubr
          hintmask 1111111101110110
          -97 callsubr
          hintmask 1111111101101110
          -104 callgsubr
          45 347 -64 callsubr
          rrcurveto
          hintmask 1111111010110110
          -37 callsubr
        </CharString>
        <CharString name="Edieresis">
          -23 callsubr
          86 -21 86 -5 callsubr
          hintmask 1111111110110000
          -97 callsubr
          hintmask 1111111101110000
          -104 callgsubr
          262 426 -81 callsubr
          -121 -1 rmoveto
          75 callsubr
        </CharString>
        <CharString name="Egrave">
          -23 callsubr
          171 -5 callsubr
          hintmask 1111111101100000
          -97 callsubr
          hintmask 1111111011100000
          -104 callgsubr
          159 349 56 callgsubr
          89 callgsubr
          -43 36 -35 27 -27 19 rrcurveto
          5 -7 -6 3 -4 hhcurveto
          -6 -3 -4 -9 -8 3 -6 5 -12 callgsubr
          4 -3 callsubr
        </CharString>
        <CharString name="Eth">
          595 -58 20 645 27 22 -20 hstem
          15 36 817 58 vstem
          525 280 rmoveto
          -2 -23 -35 -1 -43 hhcurveto
          8 11 28 39 39 45 50 49 rlinecurve
          8 callsubr
          -33 -43 rcurveline
          1 -14 -13 -1 -10 hhcurveto
          2 callsubr
          -2 10 9 -1 8 hhcurveto
          -52 -66 -42 -50 -31 -32 -31 callsubr
          -53 callsubr
          59 49 61 64 59 78 rlinecurve
          50 7 57 10 26 11 -5 11 rlinecurve
          -358 -226 rmoveto
          -41 -40 -34 -26 -29 -13 rrcurveto
          -8 15 -4 18 21 vvcurveto
          49 23 58 46 66 vhcurveto
          2 -29 3 -23 4 -15 6 -23 13 -27 19 -31 rrcurveto
          29 256 rmoveto
          13 callgsubr
          1 vhcurveto
          1 0 0 1 1 hvcurveto
          endchar
        </CharString>
        <CharString name="Euro">
          400 -65 35 -13 28 229 46 -38 21 35 23 22 21 -10 46 1 -20 21 -20 154 20 114 -20 hstemhm
          25 49 325 21 239 22 74 42 hintmask 0101110011111110
          418 262 rmoveto
          hintmask 0110110011111110
          -41 -3 -65 0 -90 1 -25 1 -56 0 -39 -1 8 24 12 24 14 24 54 -1 67 -1 14 3 147 18 rcurveline
          75 10 35 10 -7 11 rrcurveto
          hintmask 0101101001111110
          -41 -2 -65 -1 -90 1 rrcurveto
          hintmask 0101110101111110
          1 -28 -88 0 -41 hhcurveto
          6 8 6 8 7 8 -26 callgsubr
          -32 -21 31 -37 42 52 rrcurveto
          25 31 21 38 -19 callsubr
          -27 -28 -23 -29 -20 -28 rrcurveto
          hintmask 0101101001111110
          -11 -12 -1 -12 hhcurveto
          74 callsubr
          -9 24 -7 48 -4 hvcurveto
          hintmask 0110110011111110
          -13 -25 -11 -25 -9 -25 rrcurveto
          -53 -29 callsubr
          17 -2 -17 -79 11 -64 40 -52 rlinecurve
          hintmask 1001110011111110
          -55 41 64 -27 86 hhcurveto
          14 14 1 1 15 hvcurveto
          -47 callgsubr
          17 1 17 4 18 vhcurveto
          36 -1 33 1 11 2 49 6 50 6 49 5 75 10 34 11 -7 11 rrcurveto
          endchar
        </CharString>
        <CharString name="F">
          306 -68 -21 236 24 46 33 415 -20 hstem
          -12 43 637 60 vstem
          689 470 rmoveto
          26 37 13 33 29 vvcurveto
          63 -62 33 -97 -66 -71 -14 -28 -76 vhcurveto
          -83 -31 -74 -44 -67 -55 rrcurveto
          -96 -80 -48 -79 -79 vvcurveto
          -65 42 -43 75 16 17 2 4 18 vhcurveto
          45 10 43 25 39 40 rrcurveto
          36 37 18 33 29 vvcurveto
          17 -9 11 -17 3 vhcurveto
          4 -32 -17 -38 -37 -44 -39 -46 -40 -24 -40 -3 rrcurveto
          -74 -5 -37 26 57 vvcurveto
          65 54 91 87 73 vhcurveto
          60 51 68 42 75 31 rrcurveto
          29 71 63 15 55 hhcurveto
          69 35 -23 -47 -30 -16 -38 -32 -46 hvcurveto
          -81 -115 -50 -70 -20 -27 rrcurveto
          -51 hlineto
          -1 -30 -16 0 -3 hhcurveto
          -11 -21 -18 -9 -3 1 -1 3 -1 hvcurveto
          23 37 4 9 50 hvcurveto
          -54 -64 -48 -62 -43 -59 -46 -65 -24 -41 -1 -16 rrcurveto
          -8 -1 7 -4 13 hhcurveto
          19 15 5 11 13 hvcurveto
          28 15 rlineto
          15 7 7 5 3 vvcurveto
          2 -4 1 -7 vhcurveto
          -12 -8 -6 -1 5 vvcurveto
          13 26 42 53 73 vhcurveto
          40 56 35 47 30 37 4 3 10 1 17 1 rrcurveto
          12 16 0 -1 20 hvcurveto
          -1 23 13 0 1 hhcurveto
          26 13 5 9 5 -8 3 -16 -1 hvcurveto
          -3 -1 -17 1 -31 1 rrcurveto
          1 -35 -19 1 -4 hhcurveto
          90 119 54 73 17 27 rrcurveto
          endchar
        </CharString>
        <CharString name="G">
          502 -133 -21 115 26 257 74 -55 55 -35 35 49 23 209 41 hstemhm
          -15 57 750 28 hintmask 1110011110000000
          939 304 rmoveto
          9 -37 -75 5 -112 hhcurveto
          -132 -87 -5 -9 -41 hvcurveto
          -59 -13 -29 -14 -17 vvcurveto
          -11 11 -5 22 8 8 1 2 8 vhcurveto
          hintmask 1101011110000000
          13 3 52 6 89 7 rrcurveto
          7 85 50 4 17 hhcurveto
          -29 -43 -43 -54 -65 -52 -87 -49 rlinecurve
          -86 -49 -77 -29 -68 -8 rrcurveto
          -2 -15 -14 -1 -14 hhcurveto
          -113 -77 60 93 79 48 85 95 93 hvcurveto
          72 70 81 53 91 35 rrcurveto
          29 75 71 15 69 hhcurveto
          45 33 -6 -13 22 hvcurveto
          32 -19 16 -22 -25 vvcurveto
          -30 -20 -28 -40 -27 vhcurveto
          -26 -39 -39 -13 -38 hhcurveto
          -53 -23 27 55 7 hvcurveto
          29 3 -4 14 -12 hhcurveto
          -12 -6 -17 -33 1 hvcurveto
          -65 1 31 -33 61 hhcurveto
          46 46 17 35 47 hvcurveto
          47 35 24 36 39 vvcurveto
          27 -14 24 -27 21 vhcurveto
          26 -35 -47 13 -60 hhcurveto
          -73 -81 -18 -36 -88 hvcurveto
          -88 -35 -75 -44 -62 -53 rrcurveto
          -123 -105 -62 -104 -102 vvcurveto
          -109 84 -73 144 16 17 1 2 17 vhcurveto
          65 7 69 20 72 35 62 29 53 33 43 37 -70 -131 rcurveline
          -37 -66 -19 -45 -24 vvcurveto
          -9 3 -4 5 6 6 5 11 6 vhcurveto
          108 187 88 138 68 89 rrcurveto
          7 13 1 2 19 hvcurveto
          hintmask 1100111110000000
          49 4 rlineto
          46 3 23 6 7 vvcurveto
          2 -3 2 -6 1 vhcurveto
          endchar
        </CharString>
        <CharString name="H">
          625 -45 -21 232 24 -11 23 487 21 hstemhm
          19 51 565 54 9 50 hintmask 11011110
          1260 722 rmoveto
          57 callgsubr
          2 vvcurveto
          8 -4 2 -9 -3 vhcurveto
          -64 -23 -76 -61 -89 -98 -79 -88 -73 -99 -66 -111 -38 -63 rcurveline
          -1 -14 -22 0 -30 hhcurveto
          -18 -33 2 5 -49 hvcurveto
          -59 6 -43 4 -26 1 181 278 rcurveline
          25 40 12 36 31 vvcurveto
          39 -18 30 -35 21 vhcurveto
          -29 17 -33 9 -38 1 -125 3 -113 -34 -101 -71 -95 -67 -57 -79 -20 -89 rrcurveto
          -4 -18 -2 -18 -17 vvcurveto
          -41 11 -34 23 -25 vhcurveto
          hintmask 10111110
          -27 23 33 -14 43 hhcurveto
          11 11 1 2 11 hvcurveto
          37 5 35 24 33 41 rrcurveto
          33 42 17 42 41 vvcurveto
          24 -7 21 -13 17 vhcurveto
          2 -1 -2 1 39 callsubr
          -2 -5 43 callsubr
          hvcurveto
          11 -14 5 -17 -20 vvcurveto
          -37 -15 -37 -30 -37 vhcurveto
          -30 -37 -33 -22 -35 -5 rrcurveto
          -1 -9 -8 -1 -7 hhcurveto
          -58 -29 31 62 51 20 56 39 61 hvcurveto
          42 65 54 53 67 41 77 47 83 22 89 -2 rrcurveto
          63 -1 31 -26 -51 vvcurveto
          -33 -14 -41 -27 -51 vhcurveto
          -73 -122 -57 -92 -41 -62 -66 2 -46 -6 -27 -14 -26 -13 -26 -24 -25 -34 rrcurveto
          -3 102 callgsubr
          -3 5 callgsubr
          4 1 vhcurveto
          4 100 callsubr
          5 7 15 23 23 15 29 7 rrcurveto
          5 19 36 2 54 hhcurveto
          -49 -81 -37 -66 -23 -49 rrcurveto
          -4 -8 -2 -7 -6 vvcurveto
          -10 5 -5 10 15 11 9 18 9 vhcurveto
          29 61 38 68 47 75 rrcurveto
          hintmask 11011110
          128 -4 rlineto
          -2 50 34 -1 18 hhcurveto
          25 24 1 2 25 hvcurveto
          -35 -66 -18 -53 -39 vvcurveto
          -31 11 -22 21 -14 vhcurveto
          -5 7 8 -2 11 hhcurveto
          17 21 6 13 25 hvcurveto
          21 11 16 11 11 11 3 3 44 callsubr
          5 rrcurveto
          4 -1 2 -2 -1 13 callgsubr
          vhcurveto
          -23 -21 -41 -21 -27 hhcurveto
          -19 -10 11 23 35 23 61 47 87 hvcurveto
          37 7 28 11 20 15 3 2 0 3 -2 5 -2 4 -2 1 -3 -2 -13 -11 -22 -8 -31 -4 39 66 rcurveline
          58 97 70 96 83 96 78 91 60 56 41 23 rrcurveto
          endchar
        </CharString>
        <CharString name="I">
          -8 callgsubr
          -94 callsubr
          endchar
        </CharString>
        <CharString name="IJ">
          1048 -130 21 40 29 138 36 163 25 258 33 51 52 -41 28 hstemhm
          21 42 276 25 41 53 76 50 130 32 200 45 hintmask 0110101111010000
          -107 callsubr
          hintmask 1001010000101000
          764 9 -84 callgsubr
        </CharString>
        <CharString name="Iacute">
          -8 callgsubr
          42 -21 103 -94 callgsubr
          -75 116 -96 callgsubr
        </CharString>
        <CharString name="Icircumflex">
          -8 callgsubr
          -8 69 callgsubr
          46 -20 hstemhm
          4 callgsubr
          hintmask 1111000011110000
          -107 callsubr
          hintmask 0000111100000000
          -165 109 -71 callgsubr
        </CharString>
        <CharString name="Idieresis">
          -8 callgsubr
          57 -21 86 -20 -94 callsubr
          30 219 -81 callsubr
          -122 hmoveto
          67 callgsubr
        </CharString>
        <CharString name="Igrave">
          -8 callgsubr
          41 -21 102 -94 callgsubr
          24 122 -57 callgsubr
        </CharString>
        <CharString name="J">
          496 -130 21 406 25 342 52 hstem
          39 50 362 45 vstem
          1114 615 -84 callgsubr
        </CharString>
        <CharString name="K">
          610 -129 36 413 81 callsubr
          hintmask 10111000
          -76 callsubr
          hintmask 11011000
          -81 callgsubr
          hintmask 10111000
          74 callgsubr
          endchar
        </CharString>
        <CharString name="Kcommaaccent">
          610 -129 36 -15 -20 448 81 callsubr
          439 71 hintmask 10011110
          -76 callsubr
          hintmask 10101110
          -81 callgsubr
          hintmask 01011110
          74 callgsubr
          -63 -477 -79 callsubr
        </CharString>
        <CharString name="L">
          332 -109 29 32 27 241 26 433 -20 hstem
          3 39 783 34 vstem
          -37 callgsubr
          -39 -55 -37 -51 -35 -47 -63 122 rcurveline
          -43 callgsubr
          55 68 45 56 35 45 rrcurveto
          -55 callgsubr
        </CharString>
        <CharString name="Lslash">
          332 -109 29 32 27 182 31 -12 13 27 26 433 -20 hstemhm
          3 39 783 34 hintmask 11101111
          -37 callgsubr
          -15 -20 -13 -20 -14 -19 rrcurveto
          -48 hlineto
          -1 -18 -9 0 1 hhcurveto
          -6 -11 -6 -10 -7 20 -4 40 -3 hvcurveto
          3 2 -1 3 hhcurveto
          -46 -62 -63 122 rlineto
          -43 callgsubr
          82 102 75 12 rlineto
          hintmask 11011111
          39 7 17 7 -3 7 rrcurveto
          hintmask 11101111
          -22 -2 -33 0 -46 1 rrcurveto
          -1 hlineto
          27 35 rlineto
          -55 callgsubr
        </CharString>
        <CharString name="M">
          810 -46 -21 718 -21 hstemhm
          16 44 300 21 232 50 240 43 -43 58 hintmask 11111010
          1293 561 rmoveto
          -6 23 -4 13 -1 2 rrcurveto
          14 -5 -8 7 -10 hhcurveto
          -9 -12 -5 -11 -13 hvcurveto
          -160 -132 -81 -70 -63 -60 -45 -51 rlinecurve
          -37 -43 -21 -24 -5 -7 3 4 5 33 23 41 36 67 30 59 24 51 rrcurveto
          18 38 9 30 22 vvcurveto
          25 -12 13 -24 -35 -55 -31 -37 -39 vhcurveto
          -90 -88 -65 -69 -39 -51 -77 -98 rcurveline
          42 65 27 45 12 25 rrcurveto
          38 79 19 63 47 vvcurveto
          31 -8 23 -17 16 vhcurveto
          21 -22 -38 10 -54 hhcurveto
          -51 -54 -9 -18 -58 hvcurveto
          -58 -18 -46 -23 -35 -28 rrcurveto
          -137 -110 -69 -108 -105 vvcurveto
          -93 59 -63 91 22 callgsubr
          12 -6 callgsubr
          3 45 callsubr
          -43 -57 -62 -28 -81 2 rrcurveto
          -60 1 -30 35 68 vvcurveto
          47 17 53 33 57 vhcurveto
          37 63 52 59 67 54 rrcurveto
          67 83 81 34 78 hhcurveto
          51 31 -14 -27 13 hvcurveto
          7 -15 3 -17 -19 vvcurveto
          -48 -22 21 callsubr
          -55 -9 -29 rrcurveto
          -13 -4 12 -6 27 hhcurveto
          14 12 3 5 10 hvcurveto
          12 9 6 5 1 0 -9 3 8 vvcurveto
          10 8 18 16 25 vhcurveto
          40 63 58 78 77 92 93 112 83 86 73 61 rrcurveto
          18 21 16 9 10 hhcurveto
          7 4 -5 -11 -14 -6 -20 -11 -27 hvcurveto
          -32 -75 -52 -100 -71 -124 -49 -83 -36 -59 -23 -36 rrcurveto
          -2 -3 -1 -2 -3 vvcurveto
          -8 6 -4 11 25 21 16 31 17 vhcurveto
          33 59 77 90 121 119 93 91 81 75 70 57 -6 callsubr
          4 8 -3 12 -30 callsubr
          hintmask 11111100
          -17 -3 -8 9 22 vvcurveto
          44 28 70 10 callsubr
          endchar
        </CharString>
        <CharString name="N">
          599 -75 -21 692 24 hstem
          71 callsubr
          vstem
          -93 callgsubr
          endchar
        </CharString>
        <CharString name="Ntilde">
          599 -75 -21 692 24 83 69 callsubr
          hstemhm
          71 callsubr
          hintmask 1100011110000000
          -93 callgsubr
          hintmask 0001100000000000
          -86 204 -40 callsubr
        </CharString>
        <CharString name="O">
          -58 16 callgsubr
          27 callgsubr
          hintmask 10111100
          -85 callgsubr
          hintmask 01111100
          11 callgsubr
          49 callgsubr
          59 117 131 hvcurveto
          -102 callsubr
          -72 -85 -76 -92 callsubr
          endchar
        </CharString>
        <CharString name="OE">
          998 -79 29 -8 20 0 -21 374 17 callgsubr
          36 23 59 21 27 -20 hstemhm
          24 54 558 64 101 31 111 -4 callsubr
          hintmask 0101111111111011
          1409 -63 callgsubr
          -66 -21 -57 -26 -48 -31 rrcurveto
          4 19 3 19 20 vvcurveto
          19 -3 19 -5 17 vhcurveto
          11 21 rlineto
          -90 callgsubr
          hintmask 0011111111111011
          11 callgsubr
          143 131 46 90 119 hvcurveto
          -47 23 -38 45 -29 vhcurveto
          hintmask 1001111111110111
          -71 callsubr
          -97 callgsubr
          0 0 1 1 1 vhcurveto
          25 27 20 28 15 28 54 56 74 44 85 25 -99 callgsubr
          -618 -142 -101 callgsubr
          -72 -85 -76 rrcurveto
          hintmask 0101111111111011
          -92 callsubr
          396 -73 -65 callsubr
          endchar
        </CharString>
        <CharString name="Oacute">
          -58 16 callgsubr
          89 -21 103 -79 callgsubr
          -118 261 -96 callgsubr
        </CharString>
        <CharString name="Ocircumflex">
          -58 20 0 -21 404 69 callgsubr
          46 -20 76 23 59 21 144 -20 27 callgsubr
          hintmask 1011111111100000
          -85 callgsubr
          hintmask 0111111111100000
          11 callgsubr
          49 callgsubr
          59 117 131 hvcurveto
          -102 callsubr
          -72 -85 -76 -92 callsubr
          -216 245 rmoveto
          14 1 21 4 42 27 43 28 27 16 15 10 rrcurveto
          -56 51 40 -26 9 hhcurveto
          5 2 3 7 2 hvcurveto
          2 7 -14 20 -30 34 -31 33 -20 18 -9 1 -7 -3 rcurveline
          -34 -29 -52 -35 -70 -43 -13 -10 -4 -5 11 -2 rrcurveto
          endchar
        </CharString>
        <CharString name="Odieresis">
          -58 16 callgsubr
          88 -21 86 -20 27 callgsubr
          hintmask 10111111
          -85 callgsubr
          hintmask 01111111
          11 callgsubr
          49 callgsubr
          59 117 131 hvcurveto
          -102 callsubr
          -72 -85 -76 -92 callsubr
          21 348 -81 callsubr
          -122 hmoveto
          67 callgsubr
        </CharString>
        <CharString name="Ograve">
          -58 16 callgsubr
          88 -21 102 -79 callgsubr
          3 267 -57 callgsubr
        </CharString>
        <CharString name="Omega">
          352 160 38 hstem
          43 35 rmoveto
          -13 -1 -7 -15 -10 vvcurveto
          -7 14 -2 20 vhcurveto
          51 65 -1 43 hhcurveto
          22 6 9 20 4 -3 4 -12 10 hvcurveto
          181 -132 179 354 194 hhcurveto
          218 -145 -467 -75 -157 hvcurveto
          -20 -10 2 -14 -1 -7 rrcurveto
          -7 20 -1 19 60 93 -2 3 56 vhcurveto
          7 33 37 -36 -39 -125 -2 -34 hhcurveto
          111 75 94 156 162 vvcurveto
          100 -44 76 -113 -180 -149 -188 -192 -75 23 -69 41 -43 vhcurveto
          -41 -2 -75 3 -45 -4 rrcurveto
          endchar
        </CharString>
        <CharString name="Oslash">
          -103 -21 66 16 callgsubr
          62 -20 hstem
          24 54 723 31 vstem
          745 690 42 callgsubr
          -8 -21 -21 -42 -36 hvcurveto
          1 -10 -12 0 -11 -76 callgsubr
          -110 70 -66 102 -6 vhcurveto
          -3 -14 -1 -13 -11 -33 callsubr
          6 0 8 2 7 vhcurveto
          22 hlineto
          49 callgsubr
          59 117 131 hvcurveto
          -35 callgsubr
          11 21 rlineto
          -39 callsubr
          -19 14 -23 10 -27 7 29 33 rcurveline
          11 13 1 10 -8 7 rrcurveto
          -197 -134 rmoveto
          -54 callsubr
          27 -1 22 -1 18 -3 -30 -38 -33 -44 -38 -50 83 callsubr
          -5 -14 -5 -13 -3 -12 rrcurveto
          -82 8 -41 46 84 -59 callsubr
          6 6 0 -1 5 hvcurveto
          -14 -18 -17 -20 -18 -24 rrcurveto
          3 -18 -15 1 -14 hhcurveto
          149 -84 rmoveto
          -85 callsubr
          -72 -85 -76 -122 -109 -129 -52 -135 3 25 58 72 109 120 160 62 82 58 76 56 70 29 -11 25 -15 22 -19 rrcurveto
          94 -31 -17 callgsubr
          -1 hlineto
          18 22 17 22 18 20 37 -9 27 -17 19 -26 rrcurveto
          -38 callgsubr
          endchar
        </CharString>
        <CharString name="Otilde">
          -58 20 0 -21 517 69 callsubr
          62 23 59 21 27 callgsubr
          hintmask 1000011110000000
          -85 callgsubr
          hintmask 0100011110000000
          11 callgsubr
          49 callgsubr
          59 117 131 hvcurveto
          -102 callsubr
          -72 -85 -76 -92 callsubr
          hintmask 0001100000000000
          45 295 -40 callsubr
        </CharString>
        <CharString name="P">
          731 -108 26 280 24 39 21 84 30 208 22 -22 41 hstemhm
          43 37 103 51 144 43 728 47 hintmask 1111011111000000
          1147 337 rmoveto
          33 40 16 37 33 vvcurveto
          51 -38 42 -76 32 vhcurveto
          -65 28 -83 17 -103 7 rrcurveto
          14 3 -5 7 -13 hhcurveto
          hintmask 1111101111000000
          -13 -14 -6 -13 -15 hvcurveto
          -117 1 -104 -7 -91 -16 -116 -21 -81 -32 -46 -45 rrcurveto
          -24 -23 -12 -24 -23 vvcurveto
          -41 39 -29 65 25 29 4 9 31 vhcurveto
          49 14 36 21 24 28 rrcurveto
          5 3 -1 89 callsubr
          -3 -5 -3 -5 -6 hvcurveto
          -16 -14 -27 -12 -37 -10 rrcurveto
          -7 -27 -23 -3 -17 hhcurveto
          -48 -35 20 28 15 10 16 20 15 hvcurveto
          46 36 72 29 97 21 92 20 93 9 95 -1 -55 -132 -49 -102 -45 -72 -87 -157 rcurveline
          -35 -62 -35 -47 -33 -31 -46 -43 -54 -26 -62 -10 rrcurveto
          -3 -17 -17 -1 -15 hhcurveto
          -44 -33 11 22 -22 hvcurveto
          -20 19 -10 27 33 vvcurveto
          52 20 50 40 48 vhcurveto
          43 51 48 27 55 3 rrcurveto
          55 3 37 -33 -51 vvcurveto
          -28 -11 -29 -21 -31 vhcurveto
          -2 102 callgsubr
          -2 vvcurveto
          -11 13 11 26 32 vhcurveto
          26 32 13 26 20 vvcurveto
          60 -51 35 -84 -7 vhcurveto
          -69 -5 -59 -30 -48 -53 rrcurveto
          -45 -49 -22 -54 -57 vvcurveto
          -41 13 -34 27 -25 vhcurveto
          -28 30 43 -14 57 hhcurveto
          13 13 1 1 15 hvcurveto
          84 9 72 36 61 61 29 29 54 75 81 119 rrcurveto
          -17 39 49 -8 57 hhcurveto
          71 69 12 25 68 hvcurveto
          71 26 53 34 35 42 rrcurveto
          2 120 rmoveto
          -34 -22 -37 -45 -41 vhcurveto
          -45 -41 -59 -31 -73 -23 rrcurveto
          -19 -59 -55 -9 -49 hhcurveto
          -29 -16 4 3 -17 hvcurveto
          -13 3 -12 3 -9 5 22 34 rcurveline
          60 95 41 76 23 57 32 100 rcurveline
          90 -5 74 -14 59 -23 rrcurveto
          68 -27 34 -34 -42 vvcurveto
          endchar
        </CharString>
        <CharString name="Q">
          471 -206 33 115 20 84 56 431 23 59 21 hstem
          24 54 681 25 17 31 vstem
          815 102 callsubr
          -91 callsubr
          -63 21 -48 43 -33 vhcurveto
          -2 -9 -1 -11 1 -15 rrcurveto
          -19 1 3 -9 7 hhcurveto
          5 7 15 30 9 hvcurveto
          25 -12 27 -7 31 -2 65 -4 60 4 55 13 rrcurveto
          -107 151 111 -54 69 hhcurveto
          43 29 22 27 14 -6 13 -12 13 hvcurveto
          -11 12 -6 2 -9 45 callgsubr
          -3 2 -5 vhcurveto
          5 -7 2 -7 -6 vvcurveto
          -19 -22 -11 -20 -47 -92 49 97 -135 vhcurveto
          85 28 80 48 76 68 rrcurveto
          -102 callsubr
          -73 -85 -75 -63 -56 -67 -42 -73 -27 -17 11 rcurveline
          -55 35 -36 22 -16 9 rrcurveto
          20 -37 -31 10 -25 hhcurveto
          -27 -23 -12 -24 -17 hvcurveto
          -10 -14 -9 -16 -8 -19 rrcurveto
          -15 22 -7 28 34 -82 callsubr
          -441 -465 rmoveto
          -47 -11 -47 -5 -45 2 -35 1 -28 10 -22 17 10 24 rcurveline
          21 10 17 11 24 hhcurveto
          32 54 -23 -47 77 hvcurveto
          endchar
        </CharString>
        <CharString name="R">
          40 callsubr
          hstemhm
          -42 28 868 58 hintmask 10100111
          -83 callsubr
          hintmask 10010111
          -41 callgsubr
          hintmask 01001111
          -84 callsubr
          hintmask 10010111
          -60 callgsubr
          endchar
        </CharString>
        <CharString name="Racute">
          40 callsubr
          60 97 callsubr
          -42 28 868 58 hintmask 1010010011000000
          -83 callsubr
          hintmask 1001010011000000
          -41 callgsubr
          hintmask 0100110011000000
          -84 callsubr
          hintmask 1001010011000000
          -60 callgsubr
          hintmask 0000001100000000
          -217 247 -96 callgsubr
        </CharString>
        <CharString name="Rcommaaccent">
          426 -112 41 -37 -20 54 33 callgsubr
          hstemhm
          -42 28 305 71 492 58 hintmask 1001001101000000
          -83 callsubr
          hintmask 1000101101000000
          -41 callgsubr
          hintmask 0010011101000000
          -84 callsubr
          hintmask 1000101101000000
          -60 callgsubr
          hintmask 0100000010000000
          -539 -556 -79 callsubr
        </CharString>
        <CharString name="S">
          422 -95 58 634 28 hstem
          72 callsubr
          vstem
          -92 callgsubr
          endchar
        </CharString>
        <CharString name="Scaron">
          422 -95 58 634 28 94 94 callgsubr
          72 callsubr
          hintmask 11001111
          -92 callgsubr
          hintmask 00110000
          498 843 -75 callgsubr
        </CharString>
        <CharString name="T">
          335 -80 -21 218 45 85 24 170 27 7 54 -16 28 133 40 hstemhm
          18 39 hintmask 11110111
          1049 537 rmoveto
          19 13 9 16 18 vvcurveto
          27 -25 27 -11 13 callgsubr
          -3 2 -4 5 -7 vhcurveto
          9 -8 4 -9 -10 vvcurveto
          -9 -4 -10 -8 -9 vhcurveto
          -17 -15 -23 -9 -31 hhcurveto
          -45 -72 22 44 -97 hvcurveto
          -114 53 -64 28 -14 3 rrcurveto
          15 -60 -57 8 -55 hhcurveto
          -115 -95 -32 -65 -74 hvcurveto
          -65 -57 -33 -66 -74 vvcurveto
          -61 25 -47 49 -31 vhcurveto
          -41 -68 -22 -69 -1 -71 -1 -59 10 -43 19 -27 rrcurveto
          -30 22 38 -15 53 hhcurveto
          79 81 50 99 85 hvcurveto
          199 278 rlineto
          hintmask 11111011
          99 72 59 50 46 8 20 -5 4 hhcurveto
          6 3 3 7 1 hvcurveto
          1 19 -6 14 -13 7 -38 9 rcurveline
          -55 -3 -63 -55 -73 -106 -196 -292 rcurveline
          -104 -81 -77 -52 -75 hhcurveto
          -66 -33 43 85 67 26 72 51 78 hvcurveto
          13 -5 14 -4 15 -2 rrcurveto
          -3 18 19 -1 21 hhcurveto
          32 -1 16 5 10 vvcurveto
          5 -15 4 -29 1 vhcurveto
          1 -37 -19 1 -4 hhcurveto
          -13 3 -11 2 -7 3 35 47 37 38 41 29 rrcurveto
          31 43 41 15 37 hhcurveto
          49 18 -24 -48 -13 hvcurveto
          -11 -45 -30 -45 -48 -45 rrcurveto
          -48 -52 -49 -24 -45 hhcurveto
          -31 -15 5 10 hvcurveto
          4 2 12 7 vvcurveto
          -16 4 -13 -20 -21 vvcurveto
          -31 18 -15 36 56 61 33 65 65 vhcurveto
          66 66 33 61 56 vvcurveto
          47 -30 23 -60 -49 -49 -16 -31 -49 vhcurveto
          -46 -29 -40 -40 -34 -50 rrcurveto
          -27 21 -14 30 39 vvcurveto
          28 7 31 14 33 vhcurveto
          11 26 10 19 10 11 rrcurveto
          89 79 109 45 138 hhcurveto
          35 31 -3 -6 28 hvcurveto
          28 -5 70 -29 111 -51 rrcurveto
          hintmask 11110111
          -45 98 74 -22 49 hhcurveto
          33 27 8 16 23 hvcurveto
          endchar
        </CharString>
        <CharString name="Thorn">
          -161 93 callgsubr
          297 23 -9 -20 184 -20 48 21 hstemhm
          -21 65 callgsubr
          hintmask 1110111111111000
          507 298 rmoveto
          31 callsubr
          53 89 82 callgsubr
          1 callsubr
          -346 -527 rcurveline
          -108 -71 -33 -90 71 20 callsubr
          80 126 73 107 13 -13 13 -8 13 -4 51 callsubr
          55 9 46 59 hvcurveto
          65 51 29 66 54 vvcurveto
          -51 10 rmoveto
          -56 -26 -64 -57 -45 vhcurveto
          -38 -49 -46 -5 52 callsubr
          -12 3 -8 4 -6 5 rrcurveto
          hintmask 1111011111111000
          59 callgsubr
          23 callsubr
        </CharString>
        <CharString name="U">
          26 callgsubr
          -95 callsubr
          endchar
        </CharString>
        <CharString name="Uacute">
          26 callgsubr
          60 -95 callgsubr
          -169 72 73 callgsubr
          14 7 6 rrcurveto
          5 5 3 6 7 vvcurveto
          35 callsubr
          -6 -4 -6 23 callgsubr
          -105 -81 rlineto
          78 callgsubr
          -2 42 callsubr
          vhcurveto
          endchar
        </CharString>
        <CharString name="Ucircumflex">
          26 callgsubr
          -4 -21 47 -21 54 -20 67 -20 46 -20 hstemhm
          54 callsubr
          hintmask 1011111110000000
          -87 callgsubr
          hintmask 1101111110000000
          -100 callgsubr
          -188 131 -71 callgsubr
        </CharString>
        <CharString name="Udieresis">
          26 callgsubr
          66 -20 -95 callsubr
          -130 181 rmoveto
          -99 callsubr
          121 hmoveto
          -99 callsubr
          -117 15 callsubr
          121 hmoveto
          75 callsubr
        </CharString>
        <CharString name="Ugrave">
          26 callgsubr
          80 -95 callgsubr
          -96 99 rmoveto
          2 -1 2 89 callgsubr
          -44 37 -35 27 -26 18 3 callsubr
          -8 -8 3 -7 7 -5 hvcurveto
          7 -5 20 8 callgsubr
          3 hhcurveto
          5 2 2 4 hvcurveto
          endchar
        </CharString>
        <CharString name="V">
          364 658 32 -31 -21 53 -20 hstemhm
          -19 38 hintmask 10010000
          1165 658 rmoveto
          15 17 -9 4 hhcurveto
          6 3 4 9 18 -9 9 -18 1 hvcurveto
          hintmask 01110000
          1 -7 -7 0 -7 hhcurveto
          -34 -38 -11 -23 -42 hvcurveto
          -23 -13 -37 -25 -51 -38 -57 -41 -99 -106 -143 -171 -139 -167 -79 -90 -17 -11 rrcurveto
          -3 -1 -2 1 5 vvcurveto
          17 32 79 64 141 vhcurveto
          60 132 28 97 -4 62 -3 43 -18 33 -34 23 rrcurveto
          21 -31 -41 11 -50 hhcurveto
          -69 -69 -19 -37 -69 hvcurveto
          -75 -41 -57 -54 -39 -68 rrcurveto
          -28 -49 -14 -50 -52 vvcurveto
          -73 27 -51 54 -29 vhcurveto
          -13 25 27 -7 27 hhcurveto
          43 38 15 29 33 hvcurveto
          33 29 16 31 33 vvcurveto
          6 -1 6 -1 5 vhcurveto
          11 -1 -4 5 -7 hhcurveto
          -7 -2 -4 -8 3 hvcurveto
          1 -6 0 -6 -5 vvcurveto
          -35 -13 -29 -27 -23 vhcurveto
          -23 -26 -31 -12 -35 hhcurveto
          -17 -17 3 6 -17 hvcurveto
          -21 8 -18 14 -15 21 rrcurveto
          -19 26 -10 31 37 vvcurveto
          45 14 50 29 55 vhcurveto
          33 64 48 51 61 39 rrcurveto
          35 57 57 18 56 hhcurveto
          43 35 -11 -23 26 hvcurveto
          28 -25 14 -35 -47 vvcurveto
          -21 -8 -33 -16 -45 vhcurveto
          -46 -135 -22 -52 -22 -52 -23 -52 rlinecurve
          -37 -89 -19 -56 -23 vvcurveto
          -5 1 -3 1 -2 vhcurveto
          4 -3 31 16 57 33 16 9 46 53 75 95 96 121 77 91 57 61 100 107 89 74 77 41 rrcurveto
          hintmask 10010000
          21 39 37 10 35 hhcurveto
          endchar
        </CharString>
        <CharString name="W">
          809 535 70 4 28 hstem
          15 57 513 55 513 41 vstem
          1238 544 rmoveto
          13 7 6 7 7 vvcurveto
          4 -3 2 -5 -7 -9 -4 -8 -11 vhcurveto
          -8 -11 -9 -4 -7 hhcurveto
          -9 -7 3 6 -4 hvcurveto
          1 3 -3 4 -5 5 -7 7 -6 7 -3 6 rrcurveto
          11 -6 -9 6 -13 hhcurveto
          -17 -16 -12 -16 -9 5 -8 10 -8 hvcurveto
          1 vlineto
          -15 15 15 -8 15 hhcurveto
          1 -5 1 -7 -8 vvcurveto
          -43 -18 -56 -35 -70 vhcurveto
          -45 -89 -61 -84 -77 -78 rrcurveto
          -87 -85 -73 -43 -59 hhcurveto
          -9 -9 1 3 -9 hvcurveto
          -59 17 6 80 70 145 53 109 57 93 62 77 rrcurveto
          9 -6 -13 5 -19 hhcurveto
          -14 -11 -3 -5 -8 hvcurveto
          -38 -25 -32 -26 -27 -25 -53 -51 -40 -38 -28 -25 -58 -51 -67 -67 -76 -85 rrcurveto
          -69 -62 -32 -34 -2 hhcurveto
          1 30 40 81 61 hvcurveto
          73 97 59 84 45 71 rrcurveto
          63 102 32 72 43 vvcurveto
          35 -26 17 -53 -44 -54 -13 -25 -65 vhcurveto
          -56 -22 -48 -25 -40 -27 -67 -45 -56 -51 -45 -57 rrcurveto
          -47 -59 -24 -50 -41 vvcurveto
          -43 27 -26 53 -11 vhcurveto
          1 hlineto
          -1 5 7 0 7 hhcurveto
          37 42 12 23 47 hvcurveto
          47 23 26 24 7 25 rrcurveto
          5 59 callsubr
          -3 hhcurveto
          -2 -10 -7 -15 -18 hvcurveto
          -21 -18 -20 -14 -17 -9 rrcurveto
          -15 -28 -28 -8 -28 hhcurveto
          -11 -12 1 3 -11 hvcurveto
          -27 6 -13 17 29 vvcurveto
          37 20 46 40 55 vhcurveto
          41 55 48 48 57 39 rrcurveto
          69 101 79 35 57 hhcurveto
          27 43 -7 -31 -45 -58 -109 -117 -172 hvcurveto
          -193 -278 rlineto
          -12 -23 -6 -18 -15 vvcurveto
          -17 7 -7 13 1 vhcurveto
          14 1 16 11 17 20 116 142 rcurveline
          76 91 55 63 34 33 30 29 31 28 33 27 98 76 rcurveline
          -72 -157 rlineto
          -43 -95 -21 -72 -50 vvcurveto
          -49 19 -30 39 -11 vhcurveto
          73 -21 86 32 101 85 81 67 65 76 51 85 rrcurveto
          51 85 25 69 53 87 callgsubr
          19 -8 27 vhcurveto
          32 hlineto
          9 1 8 86 callgsubr
          rrcurveto
          -31 -10 rmoveto
          3 2 0 1 2 hvcurveto
          2 -2 -1 -7 hhcurveto
          endchar
        </CharString>
        <CharString name="X">
          314 -167 33 574 54 -54 232 -138 46 hintmask 11010000
          1008 644 rmoveto
          17 -1 8 3 6 vvcurveto
          6 -6 6 -13 5 vhcurveto
          -11 5 -22 -3 -35 -10 -27 -8 -55 -35 -83 -63 -70 -53 -71 -58 -71 -63 rrcurveto
          7 37 4 33 29 vvcurveto
          81 -27 49 -53 17 vhcurveto
          5 -17 -19 2 -20 hhcurveto
          -79 -76 -30 -61 -75 hvcurveto
          -81 -66 -44 -77 -8 -89 -3 -29 8 -23 17 -15 rrcurveto
          -13 15 21 -7 26 hhcurveto
          43 35 13 27 27 hvcurveto
          7 7 2 4 -1 1 rrcurveto
          0 0 101 callgsubr
          2 -1 -5 -3 -9 -6 rrcurveto
          -19 -31 -26 -10 -22 hhcurveto
          -39 -19 25 50 53 21 55 42 57 hvcurveto
          49 65 62 45 77 24 rrcurveto
          7 22 20 3 19 hhcurveto
          23 20 -5 -10 15 hvcurveto
          24 -16 12 -37 -58 vvcurveto
          -47 -8 -57 -15 -65 vhcurveto
          -16 -14 -98 -89 -95 -78 -92 -66 rlinecurve
          -89 -124 -88 -44 -53 hhcurveto
          -26 -20 11 21 -15 hvcurveto
          -12 19 -6 23 28 vvcurveto
          50 18 54 37 59 vhcurveto
          5 7 48 callgsubr
          29 callgsubr
          -3 -9 -11 -12 -23 -14 vhcurveto
          -38 -63 -19 -59 -53 vvcurveto
          -60 26 -33 52 -7 vhcurveto
          45 -6 67 21 87 47 109 59 129 94 149 131 -11 -44 rcurveline
          -31 -115 -15 -71 -27 vvcurveto
          -32 11 -16 22 6 7 1 3 9 vhcurveto
          24 7 34 21 44 33 rrcurveto
          hintmask 10100000
          50 37 25 28 20 vvcurveto
          7 -6 -2 -11 -11 vhcurveto
          -68 -69 -48 -34 -27 hhcurveto
          hintmask 11010000
          -11 -6 10 19 36 14 71 29 105 hvcurveto
          9 32 7 23 5 14 59 59 69 62 78 63 119 96 82 47 43 -1 rrcurveto
          endchar
        </CharString>
        <CharString name="Y">
          37 callsubr
          476 -20 hstem
          14 40 vstem
          -103 callgsubr
          endchar
        </CharString>
        <CharString name="Yacute">
          37 callsubr
          476 -20 34 97 callsubr
          14 40 hintmask 11110010
          -103 callgsubr
          hintmask 00001100
          -189 113 -96 callgsubr
        </CharString>
        <CharString name="Ydieresis">
          37 callsubr
          460 -21 37 -20 69 -20 hstemhm
          14 40 hintmask 11101110
          -103 callgsubr
          -177 171 rmoveto
          -61 callgsubr
          hintmask 11110110
          -93 callsubr
          121 hmoveto
          -99 callsubr
          -117 15 callsubr
          121 hmoveto
          75 callsubr
        </CharString>
        <CharString name="Z">
          413 -97 -21 99 77 -44 44 523 31 3 -88 callgsubr
          endchar
        </CharString>
        <CharString name="Zcaron">
          413 -97 -21 99 77 -44 44 523 31 3 -20 124 -21 127 -88 callgsubr
          hintmask 00000110
          -288 292 -75 callgsubr
        </CharString>
        <CharString name="a">
          28 callgsubr
          hstem
          -73 callsubr
          -14 16 -16 -78 callgsubr
          40 hvcurveto
          62 -70 callgsubr
          -106 -146 rlineto
          -85 -67 -53 -72 callsubr
          endchar
        </CharString>
        <CharString name="aacute">
          28 callgsubr
          179 -100 callsubr
          -35 127 rmoveto
          3 19 10 21 35 -63 callsubr
          -5 -5 23 callgsubr
          -106 -82 rlineto
          78 callgsubr
          -2 -22 callsubr
        </CharString>
        <CharString name="acircumflex">
          28 callgsubr
          108 -100 callsubr
          93 91 10 callgsubr
          22 16 32 95 callsubr
          -11 20 41 callgsubr
        </CharString>
        <CharString name="acute">
          -105 282 -21 103 -20 hstem
          55 259 -96 callgsubr
        </CharString>
        <CharString name="adieresis">
          28 callgsubr
          0 57 70 -20 hstemhm
          hintmask 11010000
          -73 callsubr
          -15 16 -15 -78 callgsubr
          39 hvcurveto
          63 -70 callgsubr
          -35 -49 -36 -48 -36 -49 rrcurveto
          -85 -67 -52 -72 callsubr
          105 176 rmoveto
          1 0 0 -1 1 vhcurveto
          -1 -22 callgsubr
          hintmask 10110000
          -24 callsubr
        </CharString>
        <CharString name="ae">
          -44 -4 216 -24 24 hstemhm
          13 28 hintmask 01100000
          336 90 rmoveto
          96 callsubr
          -3 -4 -3 -5 -5 vhcurveto
          -47 -41 -40 -24 -39 hhcurveto
          -20 -10 11 22 10 2 12 4 13 hvcurveto
          19 7 22 15 23 22 rrcurveto
          26 24 13 21 17 vvcurveto
          16 -7 8 -14 -18 -18 -8 -15 -17 vhcurveto
          13 -9 -14 7 -19 hhcurveto
          -9 -10 -2 -3 -9 hvcurveto
          -27 -10 -27 -25 -28 -41 rrcurveto
          -27 -41 -14 -34 -29 vvcurveto
          hintmask 10100000
          -19 9 -9 17 29 33 33 66 37 vhcurveto
          -2 -19 1 -20 4 -20 6 -9 6 -10 5 -10 rrcurveto
          -7 7 11 -4 16 hhcurveto
          24 27 10 19 30 hvcurveto
          28 19 21 20 13 21 rrcurveto
          1 2 0 2 1 vvcurveto
          -81 89 rmoveto
          -14 -9 -16 -18 -17 vhcurveto
          -15 -15 -16 -11 -15 -7 4 13 9 17 13 21 rrcurveto
          hintmask 01100000
          25 16 12 13 9 hhcurveto
          7 3 -3 -6 hvcurveto
          -86 2 rmoveto
          -12 -30 -16 -31 -20 -32 rrcurveto
          -45 -27 -23 -22 -17 hhcurveto
          -9 -4 6 11 25 14 30 28 35 hvcurveto
          36 29 26 18 23 hhcurveto
          3 3 0 -1 2 hvcurveto
          endchar
        </CharString>
        <CharString name="agrave">
          28 callgsubr
          135 -100 callsubr
          17 107 rmoveto
          59 callsubr
          -1 1 vhcurveto
          -6 7 -17 13 -28 21 rrcurveto
          23 -30 -17 11 -5 hhcurveto
          -5 -2 50 callgsubr
          2 -6 5 -3 hvcurveto
          7 -6 17 -12 28 -17 rrcurveto
          -17 28 16 -8 4 hhcurveto
          3 2 2 4 hvcurveto
          endchar
        </CharString>
        <CharString name="ampersand">
          427 -113 -21 524 55 215 -20 hstemhm
          13 56 116 25 58 41 -41 182 76 33 56 30 hintmask 1111110110000000
          211 57 rmoveto
          13 13 0 1 14 hvcurveto
          88 4 75 27 61 49 rrcurveto
          56 45 28 47 50 vvcurveto
          24 -6 18 -13 12 vhcurveto
          65 16 75 3 45 45 rrcurveto
          13 15 7 14 14 vvcurveto
          9 -3 7 -5 7 vhcurveto
          -3 3 -3 1 102 callgsubr
          -1 -1 -2 1 -4 5 -13 -5 -18 -20 -15 -20 -15 -39 -13 -65 -11 -74 -13 -105 -12 -68 -42 -80 -49 -49 -79 -15 -94 rrcurveto
          -81 7 -40 33 59 vvcurveto
          19 5 19 10 21 vhcurveto
          17 34 33 35 49 36 45 33 41 23 38 11 rrcurveto
          -17 23 28 -9 34 hhcurveto
          24 17 7 15 9 hvcurveto
          86 callsubr
          4 3 vvcurveto
          15 -17 7 -34 1 vhcurveto
          -23 1 -24 -4 -27 -8 rrcurveto
          -8 9 -4 14 17 vvcurveto
          19 5 17 10 17 vhcurveto
          17 29 25 25 33 21 37 23 41 12 44 3 25 1 21 -2 17 -6 rrcurveto
          21 -8 10 -13 -18 vvcurveto
          -11 -5 -12 -11 -13 vhcurveto
          -10 -13 -11 -4 -11 3 rrcurveto
          1 -3 -4 1 -3 hhcurveto
          -9 -4 -3 -7 -9 9 -5 18 36 35 33 39 3 hvcurveto
          1 47 -42 24 -87 -5 -47 -3 -45 -11 -45 -20 -45 -19 -33 -25 -22 -31 rrcurveto
          -8 -11 -4 -14 -18 vvcurveto
          -33 9 -27 19 -21 vhcurveto
          -44 -14 -45 -21 -46 -28 -59 -35 -42 -37 -25 -39 rrcurveto
          -15 -22 -7 -23 -23 vvcurveto
          -33 14 -27 27 -23 vhcurveto
          31 -25 44 -14 57 -5 rrcurveto
          -1 -9 0 -8 -9 vvcurveto
          -51 20 -41 39 -31 vhcurveto
          -29 35 44 -14 51 hhcurveto
          hintmask 1111101110000000
          40 36 32 36 17 -4 9 -7 -8 -2 -4 -7 3 hvcurveto
          2 -5 1 -4 -5 vvcurveto
          -28 -28 -26 -33 -47 -39 13 27 -31 vhcurveto
          -31 27 -16 37 47 vvcurveto
          9 0 8 1 8 vhcurveto
          228 265 rmoveto
          6 25 17 3 7 hhcurveto
          25 13 -15 -29 -40 -21 -39 -42 -38 hvcurveto
          -51 -46 -69 -27 -85 -9 rrcurveto
          -2 -15 -14 -1 -15 hhcurveto
          21 110 75 79 129 48 rrcurveto
          -52 106 rmoveto
          21 9 -3 -7 -1 hvcurveto
          -8 -3 -9 -4 -17 hhcurveto
          -19 -18 5 11 -17 hvcurveto
          4 20 18 2 16 hhcurveto
          endchar
        </CharString>
        <CharString name="apple">
          95 72 150 -129 129 -3 73 -58 58 36 104 hstemhm
          18 92 -15 67 -36 36 2 49 23 22 6 21 2 22 -8 39 hintmask 1001101011101000
          296 72 rmoveto
          17 21 15 31 26 hvcurveto
          21 26 15 26 8 25 -82 21 -3 135 73 32 rrcurveto
          33 -20 -29 16 -37 hhcurveto
          -9 -7 -1 -2 -4 hvcurveto
          -11 -5 -17 -5 -21 -6 -15 -4 -13 0 -12 3 -15 5 -16 5 -17 7 rrcurveto
          1 -4 -5 1 -7 hhcurveto
          -41 -31 -21 -42 -23 hvcurveto
          hintmask 0010110111101000
          -13 -24 -7 -29 -33 vvcurveto
          -64 19 -55 37 -45 vhcurveto
          hintmask 1001101011101000
          -31 26 22 -15 17 hhcurveto
          15 14 4 8 13 hvcurveto
          hintmask 0101101011101000
          6 9 12 3 15 hhcurveto
          15 13 -3 -6 9 hvcurveto
          hintmask 1001101011101000
          -8 13 14 -4 15 hhcurveto
          -76 352 rmoveto
          hintmask 0010101011110000
          27 -1 22 12 18 26 rrcurveto
          15 21 7 22 21 vvcurveto
          7 -1 4 -2 3 vhcurveto
          -13 5 -37 -18 -17 -27 -20 -29 -6 -25 7 -21 rrcurveto
          endchar
        </CharString>
        <CharString name="approxequal">
          74 143 31 -25 -21 39 33 43 31 -7 33 4 -20 hstemhm
          hintmask 01110100
          28 155 -21 callgsubr
          hintmask 01101000
          60 callsubr
          34 100 -21 callgsubr
          hintmask 10001000
          60 callsubr
          endchar
        </CharString>
        <CharString name="aring">
          86 -5 22 287 37 -37 165 hstemhm
          381 24 hintmask 10110000
          322 290 rmoveto
          -106 -146 rlineto
          -85 -67 -53 -72 callsubr
          83 127 -13 callsubr
          hintmask 11010000
          -7 2 -7 3 -6 vhcurveto
          -57 -1 -63 -36 -70 -70 -70 -69 -32 -61 7 -52 rrcurveto
          -31 4 39 -26 32 hhcurveto
          18 29 17 35 40 hvcurveto
          62 -69 callgsubr
          -89 callsubr
          -14 16 -16 -5 -4 -3 -5 hhcurveto
          -4 -2 17 7 -4 hvcurveto
          44 5 39 45 44 vvcurveto
          -24 -2 -9 callsubr
          5 rcurveline
          9 12 10 5 50 callsubr
        </CharString>
        <CharString name="asciicircum">
          44 345 78 callsubr
          hstem
          336 331 rmoveto
          -5 10 -57 43 -42 36 -26 29 rlinecurve
          -6 2 -9 -1 -25 -18 -41 -34 rlinecurve
          -41 -33 -20 -20 -7 vvcurveto
          -7 3 -3 5 9 38 28 56 67 vhcurveto
          12 -13 24 -17 35 -23 36 -23 25 -11 14 -1 rrcurveto
          endchar
        </CharString>
        <CharString name="asciitilde">
          -23 417 69 callsubr
          21 -20 hstemhm
          hintmask 01010000
          263 451 rmoveto
          -15 -11 -14 -7 -16 hhcurveto
          -11 -15 3 7 -21 hvcurveto
          hintmask 01100000
          7 -21 -16 4 84 callsubr
          -13 -3 -7 -11 hvcurveto
          -28 -17 -14 -13 -10 vvcurveto
          -1 0 -1 -14 callsubr
          11 55 callsubr
          17 -5 -9 21 hvcurveto
          hintmask 10010000
          56 callsubr
          11 hhcurveto
          10 9 3 6 9 hvcurveto
          26 -15 callgsubr
        </CharString>
        <CharString name="asterisk">
          26 239 -21 120 26 hstem
          320 351 rmoveto
          5 3 1 3 -3 3 rrcurveto
          3 -2 -7 1 -13 hhcurveto
          -79 hlineto
          35 25 23 19 10 14 6 9 0 5 -5 2 -3 1 -10 -5 -18 -13 -58 -40 rcurveline
          9 49 4 33 -2 17 -1 11 -3 4 -5 -3 -6 -11 -4 -11 -2 -11 -18 -74 rcurveline
          -51 64 rlineto
          8 -9 -6 4 -5 hhcurveto
          -5 -2 -2 -5 -8 6 -11 12 -14 hvcurveto
          15 -21 12 -18 10 -15 -89 -4 rcurveline
          -17 -3 -7 -4 2 -7 rrcurveto
          -7 2 13 -4 25 hhcurveto
          63 hlineto
          -66 -48 rlineto
          -8 -8 -4 -6 -5 vvcurveto
          43 callsubr
          vhcurveto
          7 -5 13 5 20 14 52 39 rcurveline
          -14 -76 rlineto
          -5 0 -5 1 -3 vhcurveto
          -8 1 2 -4 5 hhcurveto
          5 4 5 10 4 hvcurveto
          1 2 7 5 13 vhcurveto
          18 63 35 -38 24 -24 14 -9 rlinecurve
          9 -6 5 0 2 5 1 3 -7 10 -13 17 -46 62 rcurveline
          26 1 19 0 12 1 21 1 16 4 10 7 rrcurveto
          endchar
        </CharString>
        <CharString name="at">
          516 26 22 135 29 275 37 89 25 58 20 hstem
          14 54 723 30 vstem
          805 514 rmoveto
          11 23 5 23 22 vvcurveto
          39 -17 32 -33 24 vhcurveto
          26 -36 -51 13 -66 hhcurveto
          -13 -13 0 -1 -14 hvcurveto
          -111 -9 -108 -42 -107 -76 -96 -69 -66 -72 -35 -76 rrcurveto
          -27 -59 -14 -54 -49 vvcurveto
          -55 17 -43 34 -33 vhcurveto
          31 -31 42 -17 53 -3 rrcurveto
          11 callgsubr
          49 callgsubr
          58 117 131 hvcurveto
          85 75 43 80 83 vvcurveto
          19 -2 17 -5 17 vhcurveto
          -1 1 4 7 7 14 rrcurveto
          -22 14 rmoveto
          -1 -3 -1 0 -2 3 -29 49 -48 32 -68 16 rrcurveto
          9 -37 -32 4 -26 hhcurveto
          -29 -30 -5 -11 -32 hvcurveto
          -2 46 callsubr
          -2 8 -2 rcurveline
          10 -1 23 -1 35 -1 rrcurveto
          28 23 -3 -5 17 hvcurveto
          37 -10 32 -17 27 -24 30 -27 18 -31 5 -37 rrcurveto
          -2 vlineto
          -46 -56 -52 -55 -59 -54 rrcurveto
          -53 -58 -41 -27 -24 hhcurveto
          -13 -8 8 16 -3 hvcurveto
          -3 18 13 32 29 47 22 31 22 31 21 31 rrcurveto
          13 19 6 12 4 vvcurveto
          9 -1 -15 16 -15 60 callgsubr
          -4 hhcurveto
          29 callsubr
          1 -1 hvcurveto
          -1 2 rlineto
          2 vlineto
          -1 -1 2 -1 5 vhcurveto
          19 -5 -16 10 -25 hhcurveto
          -56 -64 -35 -69 -71 hvcurveto
          -71 -69 -33 -61 7 -52 2 -15 9 -13 17 -11 rrcurveto
          -11 15 15 -5 17 hhcurveto
          23 47 35 70 73 hvcurveto
          2 97 callgsubr
          hvcurveto
          -1 -9 -1 -9 -8 vvcurveto
          -33 15 -22 29 -11 vhcurveto
          -3 8 9 -1 9 hhcurveto
          40 50 30 59 61 hvcurveto
          122 135 rlineto
          2 97 callgsubr
          hvcurveto
          -10 -66 -46 -69 -81 -73 -127 -113 -134 -52 -142 9 rrcurveto
          -89 5 -44 46 87 vvcurveto
          81 29 82 59 82 vhcurveto
          55 76 71 63 86 50 rrcurveto
          51 87 83 25 80 hhcurveto
          73 50 -20 -40 28 hvcurveto
          15 -21 7 -21 -23 vvcurveto
          -13 -3 -15 -5 -15 vhcurveto
          -280 -53 rmoveto
          1 88 callsubr
          -1 -1 -13 -18 rcurveline
          -55 -77 -37 -50 -19 -21 rrcurveto
          -68 -59 -46 -34 -34 hhcurveto
          -14 -8 8 15 -2 hvcurveto
          -7 42 32 54 72 67 rrcurveto
          64 69 56 32 41 hhcurveto
          11 8 -4 -8 5 hvcurveto
          endchar
        </CharString>
        <CharString name="atilde">
          28 callgsubr
          101 -100 callsubr
          98 152 rmoveto
          -10 -8 -10 -5 -12 -16 -37 15 -16 hhcurveto
          -9 -9 -2 -5 -9 hvcurveto
          -21 -11 -10 -10 -8 vvcurveto
          88 callsubr
          101 callgsubr
          4 20 19 16 hhcurveto
          9 12 -3 -7 15 hvcurveto
          -6 16 12 -3 8 hhcurveto
          7 7 2 4 6 hvcurveto
          19 13 10 10 7 vvcurveto
          2 -2 1 -3 -1 vhcurveto
          endchar
        </CharString>
        <CharString name="b">
          39 -1 29 73 22 357 -20 hstem
          -5 49 184 68 vstem
          393 138 47 callgsubr
          5 5 vvcurveto
          5 -1 71 callgsubr
          hhcurveto
          -4 -4 -2 -5 -4 hvcurveto
          -21 -19 -17 -11 -15 hhcurveto
          -16 -14 10 21 -11 hvcurveto
          -7 14 -5 13 -2 12 3 13 4 13 4 13 rrcurveto
          5 22 3 18 13 vvcurveto
          19 -6 10 -11 2 vhcurveto
          -34 5 -17 -22 -50 vvcurveto
          -20 2 -17 5 -15 vhcurveto
          -7 -27 -20 -34 -33 -40 rrcurveto
          -45 -39 -34 -23 -30 hhcurveto
          -9 -8 5 11 -5 hvcurveto
          -4 8 -2 8 8 vvcurveto
          31 24 48 49 67 vhcurveto
          35 47 45 53 56 61 rrcurveto
          49 53 24 26 -1 vvcurveto
          16 -18 11 -16 -41 -61 -57 -114 -79 vhcurveto
          -77 -111 -39 -76 -43 vvcurveto
          -53 18 -27 35 37 38 18 36 39 vhcurveto
          37 33 29 40 21 47 rrcurveto
          -48 20 26 -24 33 hhcurveto
          23 21 12 25 21 hvcurveto
          endchar
        </CharString>
        <CharString name="backslash">
          225 -103 -21 29 -21 814 -20 37 -20 hstemhm
          497 26 hintmask 10011000
          35 690 rmoveto
          -8 -7 1 -10 11 -13 91 -105 98 -123 107 -143 126 -169 73 -112 21 -56 rrcurveto
          4 -12 2 -11 -9 vvcurveto
          -13 -4 -8 -7 -4 vhcurveto
          -3 -1 0 -3 3 -5 rrcurveto
          -7 5 7 -3 9 hhcurveto
          hintmask 01011000
          11 6 10 19 24 -7 32 -15 41 hvcurveto
          -21 57 -87 131 -153 206 rrcurveto
          hintmask 01101000
          201 -151 -84 101 -16 hhcurveto
          -7 -7 -3 -5 -5 hvcurveto
          endchar
        </CharString>
        <CharString name="bar">
          -107 -81 -21 728 -20 hstem
          119 39 vstem
          52 -102 rmoveto
          8 8 6 11 8 hvcurveto
          17 23 18 99 20 175 rrcurveto
          18 158 9 109 61 vvcurveto
          57 -13 29 -27 -11 -6 -3 -7 -7 2 -10 3 -12 vhcurveto
          7 -29 rlineto
          4 -27 2 -40 -51 vvcurveto
          -126 -11 -127 -22 -128 vhcurveto
          -21 -104 -14 -51 -5 vvcurveto
          88 callsubr
          1 vhcurveto
          endchar
        </CharString>
        <CharString name="braceleft">
          -3 -101 -21 762 -20 hstemhm
          80 40 -4 37 hintmask 11010000
          87 265 rmoveto
          55 13 39 42 22 71 9 37 6 27 3 19 9 53 12 37 14 19 rrcurveto
          29 21 36 14 51 hhcurveto
          13 5 rlineto
          6 -3 -4 3 -4 hhcurveto
          -2 hlineto
          -57 1 -43 -12 -28 -23 -23 -19 -16 -30 -10 -41 -22 -123 rcurveline
          -9 -43 -15 -29 -23 -17 -19 -15 -33 -9 -46 -5 -11 -16 rcurveline
          71 -1 36 -27 -52 vvcurveto
          -24 -6 -36 -12 -47 vhcurveto
          hintmask 11100000
          -12 -47 -6 -35 -24 vvcurveto
          -36 13 -25 26 -13 vhcurveto
          -9 18 28 -5 38 hhcurveto
          4 6 2 4 9 hvcurveto
          -9 8 -65 12 rlineto
          -19 8 -9 19 31 vvcurveto
          24 5 35 11 47 vhcurveto
          hintmask 11010000
          11 47 6 35 24 vvcurveto
          45 -22 30 -44 16 vhcurveto
          endchar
        </CharString>
        <CharString name="braceright">
          99 -99 -21 757 -20 hstem
          284 37 13 42 vstem
          408 246 rmoveto
          13 17 -32 3 -23 6 -15 7 rlinecurve
          -20 11 -10 16 23 vvcurveto
          27 9 40 18 51 vhcurveto
          19 52 9 40 28 vvcurveto
          31 -15 20 -29 10 vhcurveto
          6 -17 -26 3 -35 hhcurveto
          -14 -8 8 -7 59 -9 rlineto
          18 -6 9 -15 -25 vvcurveto
          -27 -8 -38 -17 -50 vhcurveto
          -17 -50 -8 -39 -27 vvcurveto
          -41 24 -26 49 -12 vhcurveto
          -37 -11 -33 -18 -28 -27 -23 -21 -19 -37 -16 -51 -39 -122 rcurveline
          -19 -45 -32 -24 -45 -3 -27 -3 -17 -3 -7 -3 rrcurveto
          -6 3 4 -3 4 hhcurveto
          1 hlineto
          69 52 20 39 33 hvcurveto
          21 25 18 42 15 60 17 63 16 43 15 21 26 35 42 17 57 1 rrcurveto
          endchar
        </CharString>
        <CharString name="bracketleft">
          259 -17 26 678 31 hstem
          48 39 vstem
          573 697 rmoveto
          14 -34 7 -67 -27 -48 -6 -11 -17 vhcurveto
          -65 -45 -76 -105 -87 -165 rrcurveto
          -86 -165 -43 -123 -79 vvcurveto
          -24 61 -12 72 75 37 5 9 8 -10 4 -19 vhcurveto
          -16 -42 -5 -17 hhcurveto
          -51 -26 19 37 60 36 97 73 134 hvcurveto
          63 117 58 89 53 63 26 31 20 20 15 9 rrcurveto
          5 8 18 2 29 16 40 -4 16 hhcurveto
          5 5 0 1 4 hvcurveto
          1 9 0 4 0 vvcurveto
          endchar
        </CharString>
        <CharString name="bracketright">
          230 -17 25 679 29 hstem
          499 39 vstem
          23 4 rmoveto
          -14 34 -7 67 27 48 6 11 17 vhcurveto
          65 45 76 105 87 165 rrcurveto
          86 165 43 123 79 vvcurveto
          24 -61 12 -72 -75 -37 -5 -9 -8 10 -4 19 vhcurveto
          16 42 5 17 hhcurveto
          51 26 -19 -37 -60 -36 -97 -73 -134 hvcurveto
          -63 -117 -58 -89 -53 -63 -26 -31 -20 -20 -15 -9 rrcurveto
          -5 -8 -18 -2 -29 -16 -40 4 -16 hhcurveto
          -5 -5 0 -1 -4 hvcurveto
          -1 -9 0 -4 0 vvcurveto
          endchar
        </CharString>
        <CharString name="breve">
          -142 366 22 73 -20 hstem
          123 366 rmoveto
          44 36 28 57 27 hvcurveto
          1 3 1 2 1 98 callgsubr
          -2 -4 -4 -3 -6 -3 vhcurveto
          -43 -25 -29 -21 -33 hhcurveto
          -18 -15 5 10 -12 hvcurveto
          -7 6 -8 9 -7 12 rrcurveto
          10 -5 -4 5 -3 hhcurveto
          -4 -2 -3 -7 -5 1 -5 3 -7 hvcurveto
          -35 11 25 -17 37 hhcurveto
          endchar
        </CharString>
        <CharString name="brokenbar">
          -107 118 40 vstem
          153 322 rmoveto
          4 97 1 86 35 vvcurveto
          27 -1 59 -39 -7 -10 -1 -9 vhcurveto
          -19 8 -27 -126 vvcurveto
          -120 vlineto
          -47 vmoveto
          -99 1 -68 -48 -81 -10 -27 -30 vvcurveto
          -9 4 -6 5 26 8 173 196 8 vhcurveto
          endchar
        </CharString>
        <CharString name="bullet">
          211 41 -21 433 -20 hstem
          487 237 rmoveto
          59 -21 51 -43 42 vhcurveto
          43 -42 -51 21 -59 hhcurveto
          -60 -51 -21 -43 -43 hvcurveto
          -42 -42 -21 -51 -59 vvcurveto
          -60 21 -51 42 -43 vhcurveto
          -42 43 51 -21 60 hhcurveto
          59 51 21 42 42 hvcurveto
          43 43 21 51 60 vvcurveto
          endchar
        </CharString>
        <CharString name="c">
          -43 -13 20 194 115 hstem
          335 169 rmoveto
          9 7 0 5 -9 70 callgsubr
          -2 -4 -3 hvcurveto
          -26 -35 -35 -35 -45 -35 rrcurveto
          -43 -54 -44 -22 -34 hhcurveto
          -31 -21 24 31 5 hvcurveto
          5 25 6 19 7 11 39 57 rcurveline
          13 18 22 20 30 23 33 25 26 14 19 2 rrcurveto
          96 callgsubr
          -1 -5 -8 -9 -15 hvcurveto
          -9 -15 -4 -11 -7 vvcurveto
          -11 9 -5 17 17 14 9 17 9 vhcurveto
          8 14 4 15 17 vvcurveto
          24 -20 19 -32 -51 callsubr
          43 19 37 52 52 callgsubr
          endchar
        </CharString>
        <CharString name="caron">
          44 371 78 callsubr
          hstem
          64 477 -75 callgsubr
        </CharString>
        <CharString name="ccedilla">
          -43 -259 -21 267 20 194 115 hstem
          -8 29 17 42 vstem
          80 -181 rmoveto
          19 -10 21 -20 25 vhcurveto
          -19 24 -10 16 8 vvcurveto
          26 12 23 20 10 vhcurveto
          1 1 -1 1 hhcurveto
          -1 callsubr
          43 19 37 52 52 callgsubr
          9 7 0 5 -9 70 callgsubr
          -2 -4 -3 hvcurveto
          -26 -35 -35 -35 -45 -35 rrcurveto
          -43 -54 -44 -22 -34 hhcurveto
          -31 -21 24 31 5 hvcurveto
          5 25 6 19 7 11 39 57 rcurveline
          13 18 22 20 30 23 33 25 26 14 19 2 rrcurveto
          96 callgsubr
          -1 -5 -8 -9 -15 hvcurveto
          -9 -15 -4 -11 -7 vvcurveto
          -11 9 -5 17 17 14 9 17 9 vhcurveto
          8 14 4 15 17 vvcurveto
          24 -20 19 -32 -27 callsubr
          -29 14 -21 27 -13 vhcurveto
          -30 -12 -17 -35 -37 vvcurveto
          -13 9 -19 17 -24 vhcurveto
          -10 callsubr
        </CharString>
        <CharString name="cedilla">
          -102 -259 -21 282 -20 hstem
          79 36 16 42 vstem
          173 -181 90 callgsubr
          24 -10 16 8 vvcurveto
          31 17 27 29 5 vhcurveto
          5 -1 -4 2 -7 hhcurveto
          -43 -27 -42 -45 -13 9 -19 17 -24 hvcurveto
          -10 callsubr
        </CharString>
        <CharString name="cent">
          -31 -21 -21 171 21 0 158 176 -20 hstemhm
          60 31 hintmask 11011000
          213 327 rmoveto
          40 66 31 49 22 31 rrcurveto
          1 1 0 2 1 vvcurveto
          5 -4 2 -7 -4 -4 -2 -3 -4 vhcurveto
          -4 -3 -15 -22 -25 -43 -22 -37 -15 -26 -7 -14 -27 3 -30 -16 -32 -34 rrcurveto
          -31 -33 -16 -31 -28 vvcurveto
          -25 8 -19 16 -11 vhcurveto
          -23 -31 -18 -48 -13 -67 rrcurveto
          -3 -15 -2 -10 -4 vvcurveto
          -5 3 -2 7 1 48 callsubr
          vhcurveto
          23 85 23 57 22 29 rrcurveto
          -1 5 6 -1 5 hhcurveto
          22 21 7 13 20 hvcurveto
          12 8 16 13 21 19 rrcurveto
          25 23 12 15 8 95 callgsubr
          103 callsubr
          -7 -5 vhcurveto
          -52 -42 -39 -26 -37 hhcurveto
          -30 -15 17 34 21 8 23 15 25 hvcurveto
          hintmask 10111000
          25 15 18 13 20 hhcurveto
          15 7 -6 -11 hvcurveto
          -5 -6 -13 -5 vvcurveto
          -3 59 callsubr
          5 7 7 13 8 vhcurveto
          8 14 4 10 6 vvcurveto
          5 -2 5 -3 3 vhcurveto
          endchar
        </CharString>
        <CharString name="circumflex">
          44 345 69 callgsubr
          46 -20 hstem
          102 365 -71 callgsubr
        </CharString>
        <CharString name="colon">
          -100 -1 64 130 64 hstemhm
          88 80 -40 80 hintmask 11010000
          208 223 -18 callgsubr
          hintmask 11100000
          -40 -194 -2 callsubr
        </CharString>
        <CharString name="comma">
          -132 63 -20 hstem
          97 71 vstem
          168 29 -79 callsubr
        </CharString>
        <CharString name="copyright">
          312 29 21 -21 98 314 81 -20 20 hstemhm
          41 36 54 34 378 38 hintmask 10011110
          -25 callsubr
          -71 -34 -68 -69 -67 vhcurveto
          -67 -69 -69 -33 -71 58 callsubr
          75 35 71 70 69 vhcurveto
          69 71 72 34 75 hhcurveto
          85 58 -61 -85 hvcurveto
          -72 54 rmoveto
          27 -16 13 -33 -63 -63 -29 -59 -65 vhcurveto
          -67 -61 -33 -61 -61 vvcurveto
          -21 9 -17 18 -11 vhcurveto
          -10 15 19 -5 23 hhcurveto
          28 39 10 19 49 hvcurveto
          57 22 28 22 23 95 callgsubr
          vhcurveto
          4 -1 -25 -15 -51 -28 rrcurveto
          hintmask 01101110
          -29 -53 -43 -14 -33 hhcurveto
          -31 -16 16 32 53 29 57 58 62 hvcurveto
          63 58 55 31 52 hhcurveto
          23 12 -12 -22 1 hvcurveto
          30 callgsubr
          -8 -2 -18 5 -4 rcurveline
          12 1 6 10 21 vvcurveto
          endchar
        </CharString>
        <CharString name="currency">
          192 234 107 -87 -21 79 29 162 25 65 -20 hstemhm
          116 39 190 38 hintmask 01111110
          414 591 rmoveto
          -7 -8 -28 -31 -37 -36 rrcurveto
          8 -17 -20 4 -23 hhcurveto
          -30 -29 -6 -11 -25 hvcurveto
          -21 39 -16 35 -2 8 -29 -9 rcurveline
          53 -81 rlineto
          -40 -24 -27 -38 -47 vvcurveto
          -29 13 -22 22 -14 vhcurveto
          -102 -96 rlineto
          32 hlineto
          82 90 rlineto
          -8 17 19 -3 22 hhcurveto
          22 22 3 7 20 hvcurveto
          hintmask 10011110
          25 -43 20 -36 3 -9 rrcurveto
          33 hlineto
          -5 6 -29 43 -29 47 rrcurveto
          47 22 33 42 53 vvcurveto
          27 -11 21 -18 13 vhcurveto
          38 36 35 29 10 9 rrcurveto
          -92 -144 rmoveto
          -51 -43 -46 -69 -52 -26 31 37 54 48 40 70 51 21 -29 -36 vhcurveto
          endchar
        </CharString>
        <CharString name="d">
          141 -5 25 284 37 hstem
          511 454 rmoveto
          3 5 2 4 4 vvcurveto
          13 -28 8 -12 -4 vhcurveto
          -29 -9 -50 -60 -69 -112 -4 13 -3 7 -2 3 rrcurveto
          10 -7 -13 5 -19 hhcurveto
          -56 -64 -35 -71 -25 callgsubr
          -32 4 31 -25 40 hhcurveto
          21 30 17 34 37 hvcurveto
          81 81 rlineto
          -50 -21 5 -80 67 hhcurveto
          5 94 callsubr
          23 4 35 14 46 35 43 33 34 39 25 30 rrcurveto
          4 5 2 3 3 vvcurveto
          3 -3 2 -6 -1 vhcurveto
          -5 -1 -5 -5 -5 -5 rrcurveto
          -98 -85 -64 -39 -44 hhcurveto
          -51 13 72 29 12 hvcurveto
          17 42 39 61 66 83 39 49 40 49 40 49 rrcurveto
          -190 -162 rmoveto
          -74 -99 -39 -50 -7 -8 rrcurveto
          -79 -67 -47 -39 -29 -49 callsubr
          56 33 41 hhcurveto
          11 8 -4 -8 5 hvcurveto
          endchar
        </CharString>
        <CharString name="dagger">
          61 32 -21 388 29 201 -20 hstem
          189 34 vstem
          380 413 rmoveto
          64 callsubr
          -3 1 vhcurveto
          -34 7 -54 4 -74 1 rrcurveto
          7 83 3 60 38 vvcurveto
          19 vlineto
          -2 1 rlineto
          -8 -1 -24 -13 -7 vvcurveto
          -68 -1 -60 -3 -52 vhcurveto
          -69 -1 -52 -2 -33 -4 rrcurveto
          -1 13 callgsubr
          hvcurveto
          -8 3 21 -15 9 hhcurveto
          -1 14 1 2 30 hvcurveto
          80 4 -4 -61 -7 -86 -9 -109 rlinecurve
          -7 -92 rlineto
          -2 -24 -1 -13 -1 vvcurveto
          -4 1 -2 3 57 callgsubr
          1 vhcurveto
          9 37 5 30 2 21 12 85 11 100 10 117 rrcurveto
          3 61 53 1 44 hhcurveto
          7 4 2 3 hvcurveto
          endchar
        </CharString>
        <CharString name="daggerdbl">
          120 564 -20 hstem
          2 27 vstem
          414 558 rmoveto
          4 -5 2 -10 -17 -15 -6 -13 -13 vhcurveto
          -25 -25 -26 -34 -28 -44 -12 -17 -23 -37 -33 -57 -76 -12 rcurveline
          -40 -9 -20 -8 -9 55 callgsubr
          5 16 4 7 26 vhcurveto
          29 9 17 5 6 1 -40 -71 rcurveline
          -22 -4 -22 -4 -22 -3 rrcurveto
          -35 -7 -18 -8 -9 55 callgsubr
          9 14 3 7 18 vhcurveto
          22 7 14 5 7 1 rrcurveto
          -90 -175 -45 -135 -96 vvcurveto
          -43 11 -22 21 1 vhcurveto
          1 1 rlineto
          13 -6 36 13 vvcurveto
          109 47 138 95 166 vhcurveto
          81 14 41 8 24 8 6 8 rlinecurve
          4 -2 -6 2 -10 hhcurveto
          -22 -39 -5 -10 -57 hvcurveto
          14 24 15 24 16 24 81 15 43 11 6 8 rrcurveto
          4 -2 -6 2 -10 hhcurveto
          -18 -31 -4 -7 -44 hvcurveto
          37 55 35 50 35 45 23 29 18 21 12 15 rrcurveto
          2 2 77 callsubr
          endchar
        </CharString>
        <CharString name="degree">
          -43 320 22 128 22 hstem
          65 22 128 22 vstem
          237 406 rmoveto
          48 -38 38 -48 -48 -38 -38 -48 -48 38 -38 48 47 39 38 48 vhcurveto
          -22 hmoveto
          -35 -29 -29 -35 -35 -29 29 35 35 29 29 35 35 29 -29 -35 vhcurveto
          endchar
        </CharString>
        <CharString name="dieresis">
          -65 364 -21 86 -20 hstem
          228 429 -87 callsubr
          4 15 callsubr
          120 1 rmoveto
          67 callgsubr
        </CharString>
        <CharString name="divide">
          80 105 64 45 46 45 64 hstemhm
          142 80 -34 80 cntrmask 11100000
          hintmask 11110000
          396 262 -20 callsubr
          -174 -127 36 callsubr
          hintmask 11101000
          46 200 36 callsubr
          endchar
        </CharString>
        <CharString name="dollar">
          211 24 -21 731 -20 hstem
          184 39 281 27 vstem
          288 408 rmoveto
          44 -8 30 -8 16 -7 rrcurveto
          21 -9 11 -12 -15 vvcurveto
          -9 -4 -11 -7 -12 vhcurveto
          -19 -32 -31 -25 -42 -17 rrcurveto
          -15 -38 -41 -8 -44 hhcurveto
          -11 -10 0 1 -10 hvcurveto
          37 54 45 62 53 71 rrcurveto
          -13 41 rmoveto
          -35 11 -17 15 19 vvcurveto
          15 10 16 20 19 vhcurveto
          31 28 44 16 57 5 -35 -45 -37 -48 -38 -51 rrcurveto
          -211 -378 rmoveto
          11 28 26 46 42 63 rrcurveto
          -1 13 14 -1 15 hhcurveto
          62 56 11 23 50 hvcurveto
          24 11 22 17 21 23 rrcurveto
          23 25 11 24 22 vvcurveto
          25 -16 19 -32 13 vhcurveto
          -41 11 -31 7 -21 3 40 52 40 51 40 49 rrcurveto
          47 -6 24 -19 -31 vvcurveto
          -15 -8 -12 -15 -7 vhcurveto
          -3 -11 -10 -1 -7 hhcurveto
          -10 -1 -5 -2 -3 vvcurveto
          -1 0 -2 101 callgsubr
          10 -7 18 2 25 10 rrcurveto
          26 10 13 17 25 vvcurveto
          35 -28 22 -55 8 vhcurveto
          28 35 25 30 22 25 9 11 2 9 -7 7 rrcurveto
          5 -5 -6 2 -6 hhcurveto
          -8 -36 -40 -81 -65 hvcurveto
          -69 -3 -58 -20 -45 -35 rrcurveto
          -30 -24 -15 -24 -24 vvcurveto
          -33 22 -22 45 -12 vhcurveto
          -54 -73 -44 -63 -35 -53 -24 7 -20 13 -17 18 rrcurveto
          -19 20 -9 22 24 vvcurveto
          14 4 10 7 7 vhcurveto
          17 12 rlineto
          8 5 4 4 2 vvcurveto
          64 callsubr
          -4 -19 -15 -10 -21 -12 vhcurveto
          -11 -20 -2 -21 9 -23 7 -21 12 -17 19 -15 14 -11 19 -9 25 -6 -29 -46 -19 -33 -7 -19 rrcurveto
          -13 -36 -6 -29 -22 vvcurveto
          -17 5 -8 10 7 6 3 6 5 vhcurveto
          86 callsubr
          3 -3 2 rrcurveto
          -7 3 -4 8 11 vvcurveto
          9 2 9 4 11 vhcurveto
          endchar
        </CharString>
        <CharString name="dotaccent">
          -153 506 -21 86 -20 hstem
          131 571 rmoveto
          -11 -15 -7 -14 -20 hvcurveto
          -20 -14 -10 -12 -10 vvcurveto
          -11 12 -18 9 11 9 9 18 7 vhcurveto
          17 40 rlineto
          11 8 5 7 1 hhcurveto
          11 callsubr
          4 -2 rmoveto
          -1 0 1 0 hvcurveto
          1 0 -1 0 hvcurveto
          endchar
        </CharString>
        <CharString name="dotlessi">
          -100 -12 22 291 -96 callsubr
          endchar
        </CharString>
        <CharString name="e">
          16 callsubr
          98 callsubr
          310 168 -43 callsubr
          -34 -88 callsubr
          41 37 49 rrcurveto
          -72 98 -15 callsubr
        </CharString>
        <CharString name="eacute">
          16 callsubr
          154 -20 98 callsubr
          227 368 -17 callsubr
          83 -199 -98 callgsubr
          endchar
        </CharString>
        <CharString name="ecircumflex">
          16 callsubr
          106 -20 98 callsubr
          -89 callgsubr
          88 88 rmoveto
          -3 5 -33 25 -23 20 -15 16 rlinecurve
          -4 2 -4 callgsubr
          53 callsubr
          5 22 16 31 95 callsubr
          -10 20 -13 21 -13 14 -6 7 -1 rrcurveto
          endchar
        </CharString>
        <CharString name="edieresis">
          16 callsubr
          0 27 71 -20 hstemhm
          -33 47 hintmask 11101100
          -89 callgsubr
          113 146 rmoveto
          -1 1 rlineto
          -1 callgsubr
          -12 53 callgsubr
          -8 vvcurveto
          hintmask 11011100
          -8 9 -16 91 callgsubr
          33 rlineto
          -87 14 -16 callsubr
          8 7 79 callgsubr
          vhcurveto
          5 11 4 11 4 11 26 callsubr
          rrcurveto
          endchar
        </CharString>
        <CharString name="egrave">
          16 callsubr
          128 -20 98 callsubr
          -89 callgsubr
          26 98 rmoveto
          59 callsubr
          -2 2 vhcurveto
          -38 31 -29 23 -21 14 rrcurveto
          5 -6 -5 2 39 callsubr
          -3 -7 -7 2 -6 5 -4 hvcurveto
          52 -32 rlineto
          -17 30 66 callsubr
        </CharString>
        <CharString name="eight">
          282 3 -21 618 30 hstem
          718 533 rmoveto
          1 11 -6 7 -11 -3 -84 -27 rcurveline
          12 17 6 15 15 vvcurveto
          17 -9 14 -18 11 vhcurveto
          13 -23 -29 7 -37 hhcurveto
          -51 -49 -12 -24 -47 hvcurveto
          -51 -26 -34 -33 -15 -41 rrcurveto
          -3 -7 -1 -6 -7 vvcurveto
          -23 21 -25 41 -25 vhcurveto
          -103 -53 -90 -68 -76 -83 rrcurveto
          -41 -44 -20 -42 -39 vvcurveto
          -22 7 -19 14 -16 vhcurveto
          -22 19 35 -11 50 hhcurveto
          63 65 14 27 67 hvcurveto
          75 31 61 35 49 41 rrcurveto
          55 47 27 44 43 vvcurveto
          39 -24 36 -49 31 vhcurveto
          -22 14 -31 15 -39 16 97 45 88 32 81 18 17 4 10 8 2 11 rrcurveto
          -385 -44 rmoveto
          -4 29 16 26 36 22 rrcurveto
          23 37 42 11 47 hhcurveto
          29 26 -5 -9 25 hvcurveto
          16 -6 6 -11 -5 -17 -8 -19 -6 -14 -5 -9 -87 -35 -64 -28 -40 -19 -37 17 -21 20 -3 24 rrcurveto
          26 -103 rmoveto
          86 -44 rlineto
          57 -29 29 -35 -40 vvcurveto
          -69 -80 -66 -159 -65 vhcurveto
          -25 -61 -52 -12 -42 hhcurveto
          -49 -26 18 36 -5 hvcurveto
          -7 51 40 65 87 80 63 57 61 45 58 33 rrcurveto
          endchar
        </CharString>
        <CharString name="ellipsis">
          230 -1 64 hstem
          114 80 85 80 81 80 vstem
          520 29 rmoveto
          6 callsubr
          -161 hmoveto
          6 callsubr
          -165 hmoveto
          6 callsubr
          endchar
        </CharString>
        <CharString name="emdash">
          279 206 54 2 -20 hstemhm
          hintmask 01000000
          608 262 rmoveto
          hintmask 10000000
          -45 -4 -93 -1 -140 3 -23 1 -35 0 -49 -1 rrcurveto
          -118 hlineto
          -1 -43 -20 0 2 hhcurveto
          -7 -18 -22 -16 -10 38 -5 77 85 52 2 5 18 hvcurveto
          59 6 59 6 59 5 rrcurveto
          hintmask 01000000
          100 11 47 10 -5 11 rrcurveto
          endchar
        </CharString>
        <CharString name="endash">
          -35 callsubr
        </CharString>
        <CharString name="equal">
          80 214 46 74 46 1 -20 21 -20 hstemhm
          hintmask 10010000
          429 382 rmoveto
          hintmask 11000000
          -31 -2 -49 -1 -68 1 rrcurveto
          hintmask 10100000
          1 -23 -29 0 -34 hhcurveto
          hintmask 11000000
          -23 -26 0 -1 -29 hvcurveto
          74 callsubr
          -10 29 -7 59 -4 hvcurveto
          53 -3 34 -1 13 3 111 18 rcurveline
          hintmask 10010000
          57 10 26 10 -5 11 rrcurveto
          -33 -120 -20 callsubr
          endchar
        </CharString>
        <CharString name="eth">
          53 170 585 rmoveto
          -11 -3 -8 -6 -7 vvcurveto
          -2 -6 4 -6 7 -3 20 -7 58 11 35 6 27 -72 20 -76 -5 -30 13 callsubr
          rrcurveto
          73 callsubr
          16 99 -9 109 -29 92 64 11 52 14 2 10 rrcurveto
          1 -1 1 -3 1 vhcurveto
          -6 1 -55 -2 -62 -5 -17 46 -33 85 -29 9 90 callsubr
          41 -53 24 -58 -39 -3 -33 -4 -20 -6 rrcurveto
          136 -320 -14 callgsubr
        </CharString>
        <CharString name="exclam">
          -67 2 64 382 -20 hstem
          77 80 vstem
          375 424 rmoveto
          3 3 99 callsubr
          vvcurveto
          5 -6 5 -11 3 vhcurveto
          3 -9 -8 1 -7 hhcurveto
          -19 -37 -41 -81 -54 hvcurveto
          -54 -81 -31 -64 -8 -45 rrcurveto
          -13 -2 1 -6 5 hhcurveto
          7 7 8 15 7 hvcurveto
          8 19 31 44 53 71 54 71 41 50 28 29 rrcurveto
          -218 -391 rmoveto
          19 -22 14 -19 -26 7 callsubr
          endchar
        </CharString>
        <CharString name="exclamdown">
          -31 -194 -21 381 64 hstem
          172 80 vstem
          252 195 rmoveto
          19 -19 16 -23 -15 -23 -14 -16 -19 23 -15 19 25 13 10 19 vhcurveto
          -58 -99 rmoveto
          13 2 -1 6 -5 hhcurveto
          -7 -7 -7 -15 -7 hvcurveto
          -8 -19 -31 -45 -54 -70 -53 -71 -41 -50 -28 -29 rrcurveto
          -3 -3 -1 -2 -2 vvcurveto
          -5 6 -5 11 -3 vhcurveto
          -3 9 8 -1 7 hhcurveto
          19 37 41 81 54 hvcurveto
          54 81 31 63 8 45 rrcurveto
          endchar
        </CharString>
        <CharString name="f">
          -84 -205 30 451 46 218 -20 hstem
          -66 callgsubr
          endchar
        </CharString>
        <CharString name="fi">
          142 -205 30 163 22 266 46 22 64 132 -20 hstemhm
          227 38 156 80 hintmask 10101000
          -66 callgsubr
          hintmask 01010110
          101 -135 -47 callsubr
        </CharString>
        <CharString name="five">
          336 -8 30 396 27 -27 112 24 25 1 51 16 -20 hstemhm
          -33 45 547 74 hintmask 11010111
          685 554 rmoveto
          21 21 4 9 21 hvcurveto
          30 13 15 18 23 vvcurveto
          17 -4 9 -8 -8 -4 -5 -10 -17 -11 -13 -22 -11 vhcurveto
          -8 -17 -15 -4 -13 hhcurveto
          -32 -46 9 17 -61 hvcurveto
          hintmask 11011011
          17 -61 -46 9 -32 hhcurveto
          -29 -18 -1 -1 -8 hvcurveto
          -19 -2 -17 -7 -15 -11 -5 -3 -3 -8 -1 -13 -3 -24 4 -16 9 7 rrcurveto
          19 25 34 9 43 hhcurveto
          34 46 -4 -9 58 hvcurveto
          -9 58 46 -4 33 hhcurveto
          -531 -562 rmoveto
          101 4 96 30 91 57 97 61 61 73 27 86 rrcurveto
          4 13 2 12 11 vvcurveto
          71 -71 35 -143 -37 -61 -17 -34 -85 vhcurveto
          116 126 rlineto
          1 1 77 callsubr
          hintmask 10111011
          4 -7 2 -13 -24 -15 104 callgsubr
          vhcurveto
          -118 -149 rlineto
          -9 -4 -4 -7 -10 vvcurveto
          -8 3 -4 6 2 2 0 1 2 vhcurveto
          105 51 35 17 40 10 45 2 rlinecurve
          35 1 33 -5 31 -11 rrcurveto
          41 -17 21 -25 -34 vvcurveto
          -7 -1 -6 -1 -7 vhcurveto
          -15 -74 -50 -67 -85 -59 rrcurveto
          -57 -82 -80 -28 -79 hhcurveto
          -41 -36 9 19 -31 hvcurveto
          -31 19 -15 24 27 vvcurveto
          23 12 24 24 23 vhcurveto
          7 7 3 85 callsubr
          5 -2 2 -5 -5 -7 -3 -7 -7 vhcurveto
          -43 -41 -22 -37 -35 vvcurveto
          -65 78 -39 109 4 vhcurveto
          endchar
        </CharString>
        <CharString name="fl">
          175 -205 30 173 22 256 46 176 -20 62 -20 hstem
          547 474 rmoveto
          12 -1 -18 12 -13 hhcurveto
          -32 -52 -58 -116 -72 hvcurveto
          -2 -27 -44 0 -62 -41 callsubr
          -75 callsubr
          19 3 15 4 11 3 rrcurveto
          -1 vlineto
          -46 -74 -30 -57 -17 -40 -42 callsubr
          51 41 54 24 39 hvcurveto
          32 49 44 62 55 74 rrcurveto
          47 63 23 31 0 vvcurveto
          endchar
        </CharString>
        <CharString name="florin">
          14 -290 25 hstem
          -134 41 291 41 vstem
          334 420 rmoveto
          7 5 3 6 8 vvcurveto
          16 -13 13 -17 -4 vhcurveto
          -33 -7 -54 -46 -74 -87 -73 -84 -64 -89 -56 -94 rrcurveto
          -63 -105 -31 -77 -51 vvcurveto
          -76 35 -38 71 55 60 45 90 63 vhcurveto
          59 85 30 70 55 vvcurveto
          39 -10 32 -20 25 vhcurveto
          29 -23 -33 14 -44 hhcurveto
          22 35 32 40 41 44 49 53 44 35 37 19 rrcurveto
          -136 -381 rmoveto
          -47 -26 -61 -53 -76 vhcurveto
          -80 -56 -50 -40 -43 hhcurveto
          -42 -21 23 46 34 24 66 47 98 hvcurveto
          105 51 40 53 31 hhcurveto
          36 26 -14 -28 17 hvcurveto
          13 -21 6 -27 -31 vvcurveto
          endchar
        </CharString>
        <CharString name="four">
          242 55 -21 202 25 25 39 311 -20 hstem
          630 38 vstem
          506 363 rmoveto
          176 253 rlineto
          1 1 77 callsubr
          13 -11 6 -23 -9 -5 -3 -4 -3 vhcurveto
          -9 -14 -2 -3 -25 -36 -76 -57 -125 -79 rlinecurve
          -92 -59 -119 -97 -94 -51 -25 -5 -18 -4 -13 -5 rrcurveto
          -15 -5 -7 -11 -17 vvcurveto
          -19 12 -17 16 5 vhcurveto
          33 80 62 17 45 hhcurveto
          35 42 -8 -14 49 hvcurveto
          -31 -78 -35 -107 35 -76 rrcurveto
          -4 3 8 -2 5 hhcurveto
          11 5 6 12 2 -1 4 -1 3 hvcurveto
          -30 64 38 110 29 56 rrcurveto
          -16 52 43 -8 35 hhcurveto
          81 41 23 45 17 103 callgsubr
          23 hvcurveto
          6 -3 -5 4 -6 hhcurveto
          -7 -3 -5 -10 2 hvcurveto
          2 -7 1 -7 -7 vvcurveto
          -24 -10 -18 -19 -16 vhcurveto
          -11 -15 -17 -6 -19 hhcurveto
          -32 -39 8 16 -47 hvcurveto
          15 26 50 81 35 52 rrcurveto
          -344 -117 rmoveto
          163 115 150 112 81 49 -23 -34 rcurveline
          -69 -99 -72 -118 -24 -52 rrcurveto
          21 -55 -46 11 -36 hhcurveto
          -13 -23 -1 -4 -33 hvcurveto
          endchar
        </CharString>
        <CharString name="fraction">
          -125 -177 27 vstem
          391 472 rmoveto
          2 -4 -7 1 -3 hhcurveto
          -15 -368 -288 -78 -9 6 -6 11 3 13 3 4 hvcurveto
          2 -9 3 8 vvcurveto
          40 249 213 121 91 vhcurveto
          4 3 2 3 2 70 callsubr
          59 callsubr
          vhcurveto
          endchar
        </CharString>
        <CharString name="g">
          44 -205 30 175 23 287 36 hstem
          375 281 rmoveto
          12 4 -14 15 -17 -11 callsubr
          8 -9 hvcurveto
          7 -8 -12 4 -16 hhcurveto
          -56 -64 -35 -70 -25 callgsubr
          -31 4 39 -27 32 hhcurveto
          19 33 23 46 48 hvcurveto
          75 76 -50 -99 -33 -61 -31 -49 -31 -36 rlinecurve
          -50 -43 -41 -25 -38 hhcurveto
          -9 -32 callsubr
          56 58 41 81 61 hvcurveto
          30 39 41 69 53 99 13 24 19 34 26 45 18 29 10 18 1 7 rrcurveto
          -51 15 rmoveto
          -106 -146 rlineto
          -85 -67 -53 -42 -38 -23 callgsubr
          42 32 55 72 68 rrcurveto
          65 69 56 33 41 hhcurveto
          13 8 -5 -9 4 hvcurveto
          endchar
        </CharString>
        <CharString name="germandbls">
          255 -147 -21 121 23 303 26 293 38 hstem
          480 35 16 22 vstem
          204 3 rmoveto
          -15 5 -12 7 -9 9 rrcurveto
          -18 18 -9 22 25 vvcurveto
          25 12 6 6 5 0 -9 -17 3 vhcurveto
          5 -28 12 -43 20 -20 rrcurveto
          340 538 rmoveto
          105 -57 18 -78 72 callgsubr
          -101 -398 34 callsubr
          4 14 20 25 rrcurveto
          0 0 1 -1 -4 -6 -2 -4 -2 vhcurveto
          -15 -14 -13 -22 -5 -19 -2 -17 rlinecurve
          -58 -7 52 -33 68 376 175 961 192 hhcurveto
          50 33 -35 -68 -46 -43 -51 -57 -18 hvcurveto
          -62 -20 -61 -40 -64 vvcurveto
          -35 29 -30 43 -12 vhcurveto
          108 -27 rlineto
          35 -9 16 -20 -21 vvcurveto
          -61 -92 -52 -46 -18 vhcurveto
          -14 -32 -34 -7 -36 hhcurveto
          -16 -15 2 3 -13 hvcurveto
          -12 11 -5 16 -5 16 -1 6 -7 20 -5 36 rrcurveto
          19 -2 -7 10 -11 hhcurveto
          -27 -17 -27 -24 -13 4 -13 7 -14 hvcurveto
          7 -13 8 -9 9 -7 12 -11 21 -8 28 -4 rrcurveto
          -16 20 57 -25 13 hhcurveto
          7 3 44 callsubr
          0 1 -2 hvcurveto
          -18 5 -54 22 -9 6 rrcurveto
          -2 12 22 -5 13 hhcurveto
          96 175 64 112 7 hvcurveto
          1 23 -10 23 -27 20 -16 11 -20 9 -102 21 rrcurveto
          -46 13 -24 19 27 vvcurveto
          51 55 19 39 14 vhcurveto
          81 27 52 33 75 vvcurveto
          endchar
        </CharString>
        <CharString name="grave">
          -105 321 -21 102 -20 hstem
          173 305 -57 callgsubr
        </CharString>
        <CharString name="greater">
          -8 150 -21 306 -20 hstem
          229 315 rmoveto
          47 callsubr
          1 vhcurveto
          -58 42 -40 37 -23 31 -8 4 rcurveline
          -7 -4 -4 -9 -7 33 -44 65 -83 hvcurveto
          3 callgsubr
          8 6 4 7 5 vhcurveto
          23 30 22 30 22 30 rrcurveto
          35 48 17 28 9 vvcurveto
          endchar
        </CharString>
        <CharString name="greaterequal">
          -8 61 32 hstem
          229 -50 callsubr
          20 -237 -56 callgsubr
        </CharString>
        <CharString name="guillemotleft">
          94 442 -20 hstem
          369 436 rmoveto
          21 callgsubr
          -4 54 callgsubr
          -14 -16 -22 -30 -30 -43 rrcurveto
          -35 -50 -18 82 callsubr
          65 -51 23 -19 18 46 callgsubr
          4 5 9 vvcurveto
          7 -33 38 callgsubr
          -140 hmoveto
          -26 callsubr
          endchar
        </CharString>
        <CharString name="guillemotright">
          94 150 -21 hstem
          385 -50 callsubr
          -156 hmoveto
          -65 callgsubr
          endchar
        </CharString>
        <CharString name="guilsinglleft">
          14 99 callgsubr
          85 250 rmoveto
          38 callsubr
          43 -33 49 -37 29 -40 8 -4 rcurveline
          7 -1 4 5 9 vvcurveto
          7 -33 44 -65 83 62 callsubr
          4 -2 2 -4 54 callgsubr
          -14 -16 -22 -30 -30 -43 rrcurveto
          -35 -50 -18 -29 -7 vvcurveto
          endchar
        </CharString>
        <CharString name="guilsinglright">
          -26 150 -21 hstem
          229 -50 callsubr
          endchar
        </CharString>
        <CharString name="h">
          92 callgsubr
          412 149 rmoveto
          -34 callsubr
          67 87 35 50 2 15 -4 17 -7 6 -11 -3 -33 -11 -56 -69 -79 -127 -37 -59 -49 -85 -61 -109 rrcurveto
          -21 callsubr
          endchar
        </CharString>
        <CharString name="hbar">
          92 callgsubr
          293 371 rmoveto
          1 18 callsubr
          -11 5 -20 4 -30 2 41 54 21 33 2 12 -4 17 -7 6 -11 -3 -24 -8 -37 -40 -49 -70 -38 -1 -25 -2 -11 -4 -2 -1 rcurveline
          -8 1 13 -16 7 hhcurveto
          9 11 0 1 14 hvcurveto
          -37 -58 -37 -59 -49 -85 -61 -109 rlinecurve
          -21 callsubr
          -34 callsubr
          22 29 rcurveline
          3 33 25 2 18 -3 callsubr
        </CharString>
        <CharString name="hungarumlaut">
          116 282 -21 103 -20 hstem
          150 472 rmoveto
          9 callgsubr
          -26 -81 -1 -2 0 71 callgsubr
          rlinecurve
          -4 2 2 -2 3 hhcurveto
          114 hmoveto
          9 callgsubr
          -27 -81 rlineto
          -2 0 71 callgsubr
          vhcurveto
          -4 2 2 -2 3 hhcurveto
          endchar
        </CharString>
        <CharString name="hyphen">
          -30 callgsubr
        </CharString>
        <CharString name="i">
          -100 -12 22 334 64 hstem
          -15 38 156 80 vstem
          259 375 -47 callsubr
        </CharString>
        <CharString name="iacute">
          -100 -12 22 426 -96 callsubr
          121 345 73 callgsubr
          13 8 -46 callsubr
          -7 -4 -5 23 callgsubr
          -106 -83 rlineto
          78 callgsubr
          -2 vvcurveto
          -3 2 -2 4 vhcurveto
          endchar
        </CharString>
        <CharString name="icircumflex">
          -100 -12 22 406 -96 callsubr
          217 360 rmoveto
          -3 5 -32 25 -24 20 -15 17 rlinecurve
          -3 61 callsubr
          53 callsubr
          5 21 16 32 39 vhcurveto
          7 -7 13 -11 20 -13 rrcurveto
          -13 21 14 -6 8 hhcurveto
          endchar
        </CharString>
        <CharString name="idieresis">
          -100 -12 22 291 56 71 -96 callsubr
          225 438 -16 callsubr
          9 80 callgsubr
          6 vhcurveto
          14 33 rlineto
          -87 14 -16 callsubr
          8 7 79 callgsubr
          vhcurveto
          4 11 4 11 5 11 26 callsubr
          rrcurveto
          endchar
        </CharString>
        <CharString name="igrave">
          -100 -12 22 431 -96 callsubr
          168 373 rmoveto
          2 -1 2 -2 1 vhcurveto
          -7 7 -17 14 -27 20 83 callgsubr
          -3 -7 -7 3 -5 5 -5 hvcurveto
          6 -5 17 -11 28 -17 rrcurveto
          -17 29 16 -8 3 -3 callsubr
        </CharString>
        <CharString name="ij">
          101 -205 27 166 22 334 64 -62 64 hstemhm
          -15 38 156 80 133 80 hintmask 11011110
          411 272 31 callgsubr
          -54 -38 -126 -131 -64 -78 callsubr
          71 140 143 55 49 vhcurveto
          -31 callgsubr
          61 104 -18 callgsubr
          -213 -1 rmoveto
          hintmask 11101110
          7 callgsubr
          endchar
        </CharString>
        <CharString name="infinity">
          402 172 32 -29 -21 297 31 hstemhm
          21 21 331 39 264 28 hintmask 01111100
          704 389 rmoveto
          23 -7 21 -13 18 vhcurveto
          21 -15 -18 10 -23 hhcurveto
          -51 -72 -46 -93 -93 hvcurveto
          -1 52 -16 35 -29 19 rrcurveto
          14 -23 -26 7 -30 hhcurveto
          -59 -59 -23 -47 -57 hvcurveto
          -61 -49 -30 -54 -57 vvcurveto
          -57 37 -29 73 37 37 10 20 37 vhcurveto
          12 6 33 21 53 35 11 7 11 9 11 9 rrcurveto
          hintmask 10111100
          -66 29 -33 59 49 53 23 47 55 vhcurveto
          57 49 29 49 49 vvcurveto
          -28 -16 rmoveto
          -25 -5 -21 -9 -15 vhcurveto
          -15 -27 -25 -24 -34 -22 rrcurveto
          -23 -36 -33 -12 -29 hhcurveto
          -51 -26 34 67 -1 hvcurveto
          90 87 rlineto
          39 45 33 20 23 hhcurveto
          49 24 -26 -52 hvcurveto
          -302 -68 rmoveto
          -36 -35 -40 -30 -44 -25 rrcurveto
          -29 -53 -48 -15 -41 hhcurveto
          -47 -23 19 38 25 12 32 24 39 hvcurveto
          20 32 28 27 35 23 rrcurveto
          24 38 37 12 35 hhcurveto
          25 23 -6 -12 20 hvcurveto
          24 -16 12 -29 -42 vvcurveto
          -8 0 -11 -1 -13 vhcurveto
          endchar
        </CharString>
        <CharString name="integral">
          -50 -180 18 794 18 hstem
          471 602 rmoveto
          50 -28 12 -34 72 callgsubr
          -161 -497 34 callsubr
          13 19 17 8 rrcurveto
          6 13 -19 7 -1 hhcurveto
          -4 -8 0 -20 -15 hvcurveto
          -15 -20 -5 -21 -17 vvcurveto
          -75 39 -22 68 vhcurveto
          376 241 1066 192 hhcurveto
          22 18 -6 -34 -21 -15 -15 -4 -12 hvcurveto
          -6 -2 3 -3 4 hhcurveto
          21 9 37 21 hvcurveto
          endchar
        </CharString>
        <CharString name="j">
          -125 -205 27 524 64 hstem
          166 80 vstem
          246 376 -18 callgsubr
          -61 -104 31 callgsubr
          -17 -24 -15 -18 -13 -11 rrcurveto
          -9 -8 104 callgsubr
          vvcurveto
          -2 59 callsubr
          7 14 10 20 22 vhcurveto
          17 16 13 13 8 9 -31 callgsubr
          endchar
        </CharString>
        <CharString name="k">
          68 -12 65 callsubr
          hintmask 11100000
          -42 callgsubr
          hintmask 11010000
          -45 callgsubr
          endchar
        </CharString>
        <CharString name="kcommaaccent">
          68 -108 -20 116 65 callsubr
          56 71 hintmask 11110100
          -42 callgsubr
          hintmask 11101100
          -45 callgsubr
          -222 -436 -79 callsubr
        </CharString>
        <CharString name="l">
          -83 -2 22 478 -20 hstem
          305 474 rmoveto
          58 callgsubr
          -46 -74 -30 -57 -17 -40 -42 callsubr
          51 41 54 24 39 hvcurveto
          32 49 44 62 55 74 rrcurveto
          47 63 23 31 0 vvcurveto
          endchar
        </CharString>
        <CharString name="less">
          -8 157 -21 306 -20 hstem
          85 256 rmoveto
          38 callsubr
          57 -41 41 -37 23 -32 8 -4 rcurveline
          7 3 4 9 7 -32 44 -65 83 hvcurveto
          66 92 33 51 10 5 callsubr
          -5 -8 -6 -4 -7 -5 vhcurveto
          -66 -90 rlineto
          -35 -48 -17 -28 -9 vvcurveto
          endchar
        </CharString>
        <CharString name="lessequal">
          -8 61 32 349 -20 hstem
          229 436 rmoveto
          -26 callsubr
          37 -358 -56 callgsubr
        </CharString>
        <CharString name="logicalnot">
          -67 -11 -21 604 -20 hstem
          3 35 vstem
          390 548 rmoveto
          3 3 99 callsubr
          vvcurveto
          11 -14 6 -27 -21 -63 -74 -149 -105 vhcurveto
          -107 -152 -54 -97 -41 vvcurveto
          -19 3 -17 5 -16 vhcurveto
          -26 9 15 -13 21 hhcurveto
          15 7 2 5 1 -1 0 -2 1 hvcurveto
          -25 5 -12 15 25 vvcurveto
          42 44 84 88 125 vhcurveto
          75 106 74 92 71 77 rrcurveto
          endchar
        </CharString>
        <CharString name="lozenge">
          72 554 -20 hstem
          344 286 rmoveto
          82 -19 -48 186 84 callsubr
          -58 -96 -21 -14 hvcurveto
          -56 -86 -31 -48 -1 -21 rrcurveto
          -2 1 -3 2 -3 vhcurveto
          25 -99 13 -50 7 -31 6 -19 rlinecurve
          13 -45 rlineto
          -16 3 -1 -8 10 hhcurveto
          16 30 58 2 2 hvcurveto
          42 65 33 47 19 36 21 39 rcurveline
          5 9 3 7 1 5 rrcurveto
          -34 -16 rmoveto
          -58 -91 -42 -71 -30 -44 -10 57 -9 48 -9 41 -22 102 rcurveline
          27 46 27 39 21 35 53 86 rcurveline
          29 -145 8 -41 8 -35 7 -27 rlinecurve
          endchar
        </CharString>
        <CharString name="lslash">
          -67 -2 22 154 33 -13 14 290 -20 hstemhm
          hintmask 10110000
          237 208 rmoveto
          hintmask 11010000
          -22 -2 -35 0 -48 1 rrcurveto
          hintmask 10110000
          -6 -7 1 -7 hhcurveto
          31 47 41 57 51 68 rrcurveto
          47 63 23 31 0 vvcurveto
          58 callgsubr
          hintmask 11010000
          -24 -39 -20 -33 -15 -29 rrcurveto
          -34 hlineto
          -19 -1 -9 0 0 vvcurveto
          -6 -11 -6 -11 -7 20 -5 42 -3 hvcurveto
          -7 -14 -6 -12 -4 -11 -42 callsubr
          41 27 44 23 36 hvcurveto
          5 5 1 1 3 hvcurveto
          80 12 rlineto
          hintmask 10110000
          41 7 18 8 -4 7 rrcurveto
          endchar
        </CharString>
        <CharString name="m">
          305 12 23 -16 -21 22 -21 330 -20 hstemhm
          hintmask 10010000
          672 154 rmoveto
          5 5 4 7 4 70 callsubr
          2 -4 -7 -10 -11 -9 -8 vhcurveto
          -75 -65 -66 -45 -33 hhcurveto
          -28 -12 12 24 3 hvcurveto
          5 35 24 45 45 56 rrcurveto
          43 55 21 28 1 vvcurveto
          13 -17 12 -16 -27 -45 -24 -49 -63 vhcurveto
          -1 -37 -31 -74 -62 vhcurveto
          2 7 14 28 26 47 rrcurveto
          26 45 13 25 3 vvcurveto
          15 -17 10 -15 -26 -54 -38 -76 -82 vhcurveto
          -53 -49 -41 -40 -29 -32 5 18 21 39 35 61 rrcurveto
          34 57 17 31 5 vvcurveto
          13 -7 6 -13 -13 -11 -5 -10 -7 vhcurveto
          -48 -68 -33 -45 1 callgsubr
          -15 -35 -8 -22 -10 vvcurveto
          hintmask 00110000
          -12 13 -23 19 4 15 16 33 26 vhcurveto
          36 46 32 38 27 29 47 50 49 41 50 33 -22 -45 -22 -44 -21 -45 -23 -47 -15 -42 -7 -37 rrcurveto
          hintmask 01010000
          -18 8 -9 16 8 6 3 5 3 vhcurveto
          21 56 39 57 58 57 49 47 46 35 43 21 -23 -29 -21 -33 -19 -37 -19 -37 -11 -29 -4 -21 rrcurveto
          -1 -6 -1 -6 -6 vvcurveto
          hintmask 10010000
          -42 23 -21 45 22 31 15 29 40 vhcurveto
          38 29 31 31 32 38 rrcurveto
          endchar
        </CharString>
        <CharString name="macron">
          174 592 32 hstem
          428 609 -56 callgsubr
        </CharString>
        <CharString name="minus">
          -35 callsubr
        </CharString>
        <CharString name="mu">
          99 -11 31 -20 28 246 28 14 -20 hstemhm
          -100 38 388 51 hintmask 01101100
          464 150 rmoveto
          4 5 2 -36 callsubr
          -46 -48 -21 rrcurveto
          hintmask 10101100
          -60 callsubr
          hintmask 01011100
          -28 callsubr
          -34 -40 -9 -7 -54 -45 rcurveline
          -25 -32 -23 -13 -28 callgsubr
          2 4 rcurveline
          15 20 17 21 14 20 17 20 16 17 13 12 -59 callgsubr
          45 41 -13 -20 rlineto
          6 callgsubr
          5 10 6 13 8 14 rrcurveto
          hintmask 10101100
          -15 7 13 -7 18 -68 callgsubr
          endchar
        </CharString>
        <CharString name="multiply">
          -42 -88 -21 396 -20 hstem
          291 287 rmoveto
          8 -4 4 -9 -3 -94 -76 -16 -16 vhcurveto
          112 -16 2 -20 -26 hhcurveto
          -25 -14 -2 -4 -7 21 10 14 -53 hvcurveto
          10 -56 -13 -9 -89 -82 -8 -15 rlinecurve
          -3 3 -2 3 19 86 89 4 3 vhcurveto
          -66 15 13 -25 32 hhcurveto
          15 48 15 10 1 30 callgsubr
          hvcurveto
          -2 -17 -7 -9 hhcurveto
          -30 -19 30 61 -10 hvcurveto
          119 91 rlineto
          2 2 2 80 callsubr
          endchar
        </CharString>
        <CharString name="n">
          77 19 -21 22 -21 hstemhm
          206 44 hintmask 01100000
          142 304 rmoveto
          -37 -44 -53 -64 1 callgsubr
          -9 -21 -8 -35 -11 -5 callgsubr
          -40 vvcurveto
          hintmask 10100000
          -31 13 -23 36 50 96 107 34 30 vhcurveto
          6 7 8 16 5 vvcurveto
          5 -1 3 -3 -3 -16 -22 -5 -5 vhcurveto
          -24 -27 -26 -28 -31 -26 rrcurveto
          -27 -33 -24 -13 -15 hhcurveto
          -14 0 18 9 22 12 34 24 38 hvcurveto
          -19 callgsubr
          -3 -9 -3 -9 -7 vhcurveto
          endchar
        </CharString>
        <CharString name="nbspace">
          -128 endchar
        </CharString>
        <CharString name="nine">
          114 583 43 hstemhm
          75 46 -1 42 hintmask 11000000
          502 444 rmoveto
          52 47 37 32 21 18 rrcurveto
          6 5 3 5 5 vvcurveto
          14 -14 7 -28 -9 -6 -1 -3 -3 vhcurveto
          -57 -46 -62 -45 -69 -44 -93 -59 -69 -33 -45 -5 -31 -4 -15 9 1 27 3 56 53 51 105 46 101 45 98 19 95 -7 11 -1 15 23 79 callsubr
          6 1 -2 89 callsubr
          -54 2 -66 -8 -77 -19 -89 -22 -72 -29 -57 -36 -69 -44 -36 -50 -2 -56 rrcurveto
          -34 -1 19 -17 41 hhcurveto
          73 107 48 97 140 hvcurveto
          -87 -85 -75 -92 -63 -97 rrcurveto
          hintmask 10100000
          -75 -116 -37 -94 3 -72 1 -33 14 -18 26 -3 10 -1 7 100 callsubr
          7 5 -2 4 -10 4 -9 3 -5 11 -1 19 -6 149 113 182 233 215 rrcurveto
          endchar
        </CharString>
        <CharString name="notequal">
          22 25 -21 72 20 82 21 63 -20 hstem
          302 79 rmoveto
          3 18 callsubr
          -17 9 -45 4 -71 -1 rrcurveto
          -19 hlineto
          64 81 rlineto
          1 22 28 0 35 hhcurveto
          4 2 1 3 4 -11 3 -23 3 hvcurveto
          -43 3 rlineto
          30 39 15 21 3 70 callsubr
          1 -3 -9 -12 -9 -17 -14 vhcurveto
          -10 -13 -10 -13 -9 -13 rrcurveto
          1 -13 -17 1 -20 hhcurveto
          -47 -31 -2 -5 -17 hvcurveto
          -1 -1 rlineto
          -8 13 -16 7 14 18 1 2 23 vhcurveto
          3 28 18 2 8 hhcurveto
          -64 -81 -39 -2 -21 -2 -4 -1 rlinecurve
          -1 -1 rlineto
          -7 13 -17 7 1 8 0 1 13 vhcurveto
          -25 -33 -14 -18 -2 -5 rrcurveto
          -3 2 -2 5 9 11 9 17 15 vhcurveto
          28 38 rlineto
          5 53 57 3 60 hhcurveto
          4 2 1 2 hvcurveto
          endchar
        </CharString>
        <CharString name="ntilde">
          77 19 -21 22 -21 438 -20 hstemhm
          206 44 hintmask 01110000
          425 134 47 callgsubr
          91 callsubr
          -4 -3 -5 -5 vhcurveto
          -23 -28 -27 -27 -31 -26 rrcurveto
          -27 -33 -24 -13 -15 hhcurveto
          -5 -3 2 3 -2 hvcurveto
          -3 7 -1 7 8 vvcurveto
          25 12 31 24 38 vhcurveto
          -19 callgsubr
          -7 -22 -24 -47 -38 vhcurveto
          -51 -65 -40 -48 -29 -29 rrcurveto
          -6 -6 -3 -5 -3 vvcurveto
          -2 1 -1 3 6 7 4 8 8 vhcurveto
          45 43 27 27 9 14 rrcurveto
          -41 -80 -20 -50 -18 -5 callgsubr
          -26 vvcurveto
          hintmask 10110000
          -45 20 -23 40 18 26 15 30 33 vhcurveto
          29 26 27 30 26 35 rrcurveto
          -6 303 -69 callsubr
          11 55 callsubr
          17 -5 -9 21 hvcurveto
          56 callsubr
          12 hhcurveto
          10 9 3 5 8 hvcurveto
          26 18 13 14 10 vvcurveto
          3 71 callgsubr
          -1 vhcurveto
          endchar
        </CharString>
        <CharString name="numbersign">
          465 212 45 174 47 hstem
          778 470 rmoveto
          7 -17 2 -34 -1 vhcurveto
          -47 -2 -50 -1 -53 -1 19 50 rcurveline
          11 29 6 32 2 36 rrcurveto
          16 -5 11 -5 -1 vhcurveto
          -6 -1 -9 -14 -12 -27 -19 -41 -18 -44 -18 -47 rrcurveto
          -49 -64 1 1 -78 hvcurveto
          18 49 10 27 5 32 1 39 rlinecurve
          7 0 6 -1 3 vhcurveto
          -1 8 -3 4 -5 -1 -6 -2 -8 -15 -10 -27 -46 -130 rcurveline
          1 -68 -53 1 -37 hhcurveto
          -37 -3 -17 -8 5 -13 4 -15 31 -8 58 1 98 1 rcurveline
          -25 -71 -21 -58 -17 -45 -166 -1 rcurveline
          -37 -2 -17 -8 4 -14 rrcurveto
          -15 5 31 -7 57 hhcurveto
          105 1 -16 -41 -16 -40 -17 -39 rlinecurve
          -4 92 callsubr
          8 -1 vhcurveto
          15 -1 18 26 19 54 35 95 rcurveline
          197 1 -16 -45 -15 -41 -14 -35 rlinecurve
          -3 92 callsubr
          7 -1 vhcurveto
          16 -1 18 26 19 54 35 96 rcurveline
          90 1 rlineto
          29 33 6 13 37 hvcurveto
          15 5 7 5 5 vvcurveto
          7 -17 4 -33 vhcurveto
          -144 -1 66 175 rlineto
          94 hlineto
          28 33 7 15 38 hvcurveto
          15 5 8 5 5 vvcurveto
          -462 -38 rmoveto
          192 1 -28 -78 -21 -58 -13 -39 rlinecurve
          -196 hlineto
          endchar
        </CharString>
        <CharString name="o">
          -45 -2 30 316 -102 callgsubr
          endchar
        </CharString>
        <CharString name="oacute">
          -45 -2 30 462 -102 callgsubr
          25 170 -17 callsubr
          endchar
        </CharString>
        <CharString name="ocircumflex">
          -45 -2 30 421 -102 callgsubr
          108 163 rmoveto
          -3 5 -33 25 2 callgsubr
          53 callsubr
          5 22 16 32 95 callsubr
          -11 20 41 callgsubr
        </CharString>
        <CharString name="odieresis">
          -45 -2 30 316 51 70 -102 callgsubr
          138 245 rmoveto
          1 0 0 -1 1 vhcurveto
          -1 vlineto
          1 -1 0 0 -1 hhcurveto
          -9 -12 -6 -11 -17 hvcurveto
          -16 -11 -8 -10 -9 vvcurveto
          -24 callsubr
        </CharString>
        <CharString name="oe">
          138 -13 21 -10 30 87 22 150 29 28 -20 hstemhm
          -10 47 211 47 hintmask 10111110
          517 169 -43 callsubr
          -35 -73 callgsubr
          -44 -50 -28 -53 -54 vhcurveto
          3 100 callsubr
          vvcurveto
          3 25 -6 8 -83 callgsubr
          hintmask 01111110
          -18 10 14 -9 17 hhcurveto
          16 hlineto
          32 39 24 50 44 hvcurveto
          -10 vlineto
          -36 21 -24 43 -12 vhcurveto
          hintmask 10111110
          -1 callsubr
          44 19 37 51 52 callgsubr
          -281 49 rmoveto
          -10 -4 -12 -8 -14 vhcurveto
          -11 -16 -10 -14 -8 -15 -24 -30 rcurveline
          hintmask 01111110
          -86 callsubr
          34 8 9 -22 -3 -32 rrcurveto
          209 48 -15 callsubr
        </CharString>
        <CharString name="ogonek">
          -92 -152 28 132 -20 hstem
          38 32 vstem
          201 -110 rmoveto
          6 -4 3 -7 -1 -10 -4 -7 -19 vhcurveto
          -8 -19 -15 -4 -11 hhcurveto
          -30 -15 14 27 27 11 29 23 32 hvcurveto
          -3 3 -15 -1 -14 -16 -15 -32 rlinecurve
          -13 -29 -6 -23 -17 vvcurveto
          -28 18 -14 37 13 20 4 9 27 vhcurveto
          32 11 16 9 9 vvcurveto
          endchar
        </CharString>
        <CharString name="ograve">
          -45 -2 30 446 -102 callgsubr
          46 176 rmoveto
          59 callsubr
          -2 2 vhcurveto
          -7 7 -17 13 -27 21 83 callgsubr
          104 callgsubr
          3 -5 5 -5 hvcurveto
          5 -4 17 -11 29 -17 rrcurveto
          -17 29 16 -9 3 -3 callsubr
        </CharString>
        <CharString name="one">
          23 54 25 543 -20 hstem
          158 67 rmoveto
          322 532 rlineto
          2 68 callgsubr
          10 -10 5 -19 -23 -15 -6 -13 -7 vhcurveto
          -6 -10 -81 -63 -63 -40 -45 -17 rlinecurve
          -6 -3 -3 -4 -6 vvcurveto
          -11 5 -3 10 4 vhcurveto
          56 21 47 22 37 23 -113 -204 -83 -152 -55 -101 -44 -15 -34 -12 -23 -10 rrcurveto
          -6 -2 -3 -6 -10 vvcurveto
          -15 8 -15 11 4 vhcurveto
          71 28 45 17 20 7 rrcurveto
          16 51 48 8 44 hhcurveto
          10 5 5 9 7 -4 4 -7 -50 -48 -4 -8 -45 hvcurveto
          endchar
        </CharString>
        <CharString name="onehalf">
          477 -29 22 100 12 233 28 37 15 156 12 146 12 hstemhm
          683 23 -23 49 hintmask 11111101
          676 220 -58 callsubr
          hintmask 11111110
          -32 callgsubr
          -581 191 -70 callsubr
          endchar
        </CharString>
        <CharString name="onequarter">
          471 66 callgsubr
          41 15 156 12 146 12 hstem
          687 23 vstem
          613 198 -62 callsubr
          -518 213 -70 callsubr
          -116 -453 9 callsubr
        </CharString>
        <CharString name="onesuperior">
          23 403 15 314 12 hstem
          95 411 -74 callsubr
          endchar
        </CharString>
        <CharString name="ordfeminine">
          -86 235 31 278 37 hstem
          468 415 -82 callgsubr
          -14 16 -16 -78 callgsubr
          40 hvcurveto
          62 -70 callgsubr
          -106 -146 rlineto
          -85 -67 -53 -72 callsubr
          endchar
        </CharString>
        <CharString name="ordmasculine">
          -135 232 30 316 -20 hstem
          -10 47 vstem
          339 504 -104 callsubr
          endchar
        </CharString>
        <CharString name="oslash">
          -45 -162 16 144 30 316 -20 129 15 hstem
          -10 47 vstem
          384 462 rmoveto
          4 -4 -6 2 -5 hhcurveto
          -9 -40 -44 -89 -69 hvcurveto
          6 -8 -11 3 -13 hhcurveto
          -36 -47 -36 -73 -59 hvcurveto
          -54 callgsubr
          4 -7 5 -6 5 -5 -20 -31 -13 -25 -6 -16 rrcurveto
          -12 -32 -5 -24 -19 vvcurveto
          -14 4 -8 9 7 5 2 6 4 vhcurveto
          2 3 0 3 -2 1 rrcurveto
          -6 3 -3 6 10 vvcurveto
          7 2 8 3 9 vhcurveto
          9 23 18 34 30 45 rrcurveto
          17 -56 callsubr
          51 21 27 16 79 callsubr
          -13 -25 -22 -6 -17 70 callgsubr
          1 2 -1 hvcurveto
          3 13 2 12 11 5 -1 4 5 vvcurveto
          38 48 37 45 36 42 9 10 1 7 -6 6 rrcurveto
          -148 -244 rmoveto
          -23 -22 -37 -43 -51 vhcurveto
          -45 -52 -36 -26 -28 -1 25 36 31 42 36 48 62 82 rcurveline
          7 -9 7 -6 6 -3 rrcurveto
          -199 -159 rmoveto
          -58 callgsubr
          -1 vlineto
          -19 -26 -59 -79 -46 -64 -33 -50 rlinecurve
          -1 4 -1 5 6 vvcurveto
          endchar
        </CharString>
        <CharString name="otilde">
          -45 -2 30 429 -102 callgsubr
          146 239 rmoveto
          -14 -11 -14 -7 -17 -46 callgsubr
          -14 -10 vvcurveto
          88 callsubr
          101 callgsubr
          3 -1 7 4 11 9 rrcurveto
          9 11 12 55 callsubr
          17 -4 -9 21 hvcurveto
          56 callsubr
          11 -34 callgsubr
        </CharString>
        <CharString name="p">
          51 0 28 246 28 8 -20 hstemhm
          -100 38 388 51 hintmask 11011000
          377 226 rmoveto
          25 callgsubr
          -22 -6 -14 -6 -7 -7 rrcurveto
          hintmask 10111000
          25 -6 12 -11 -4 -4 -1 -1 -5 vhcurveto
          -28 -9 -50 -58 -72 -107 rrcurveto
          6 callgsubr
          18 36 15 23 11 9 17 -20 16 -12 16 -5 -7 callsubr
          -22 7 -11 9 13 vvcurveto
          15 26 35 53 55 vhcurveto
          49 51 30 29 13 6 rrcurveto
          hintmask 11011000
          23 callsubr
        </CharString>
        <CharString name="paragraph">
          222 -156 -21 825 -20 hstem
          625 635 rmoveto
          9 -4 -11 4 -17 hhcurveto
          -29 -29 -14 -28 -27 hvcurveto
          3 -10 -13 1 -16 hhcurveto
          -12 -18 -1 -1 -24 hvcurveto
          -1 -24 -18 -1 -12 hhcurveto
          -60 -59 -19 -39 -59 hvcurveto
          -65 -43 -32 -50 -57 vvcurveto
          -66 51 -38 103 -9 vhcurveto
          -50 -137 -35 -88 -19 -39 rrcurveto
          -122 -60 -59 -61 -59 hhcurveto
          -5 -3 -2 -4 -2 hvcurveto
          -6 1 5 -3 10 hhcurveto
          49 54 43 87 59 hvcurveto
          44 64 34 66 25 69 41 115 33 84 27 55 rrcurveto
          124 59 53 62 46 hhcurveto
          10 hlineto
          -36 -43 -33 -62 -30 -79 -23 -67 -22 -66 -22 -67 -44 -131 -40 -82 -36 -34 -8 -7 -5 -6 -1 -3 rrcurveto
          -3 2 -1 4 5 4 1 2 3 vhcurveto
          31 18 38 63 46 107 122 294 rcurveline
          49 109 42 65 36 21 15 9 26 100 callsubr
          rrcurveto
          endchar
        </CharString>
        <CharString name="parenleft">
          49 760 -20 hstem
          -5 57 vstem
          615 760 rmoveto
          -123 -10 -121 -47 -118 -85 -106 -76 -72 -81 -39 -85 rrcurveto
          -27 -59 -14 -57 -54 vvcurveto
          -68 20 -57 41 -45 vhcurveto
          37 -42 45 -23 53 -5 rrcurveto
          22 -2 11 5 11 vvcurveto
          6 -8 4 -15 1 vhcurveto
          -97 8 -52 65 99 vvcurveto
          64 20 70 40 76 vhcurveto
          43 81 58 73 73 64 100 87 108 48 116 11 rrcurveto
          17 1 8 4 6 vvcurveto
          6 -7 4 -13 2 vhcurveto
          endchar
        </CharString>
        <CharString name="parenright">
          325 -14 -21 hstem
          593 56 vstem
          608 349 rmoveto
          27 60 14 57 54 vvcurveto
          67 -20 57 -41 45 vhcurveto
          -37 42 -45 23 -53 5 rrcurveto
          -21 2 -11 -5 -11 vvcurveto
          -6 7 -4 15 -1 vhcurveto
          99 -8 51 -66 -99 vvcurveto
          -64 -20 -70 -40 -76 vhcurveto
          -43 -81 -58 -72 -74 -64 -100 -87 -108 -48 -116 -11 rrcurveto
          -17 -1 -8 -4 -6 vvcurveto
          -6 7 -4 14 -2 vhcurveto
          123 10 120 47 118 85 106 76 72 81 39 85 rrcurveto
          endchar
        </CharString>
        <CharString name="partialdiff">
          85 262 598 rmoveto
          20 -43 41 -109 -8 -60 13 callsubr
          73 callsubr
          22 138 -16 93 -59 156 rrcurveto
          -15 40 -23 39 -19 6 90 callsubr
          38 -54 27 -57 rrcurveto
          44 -333 -14 callgsubr
        </CharString>
        <CharString name="percent">
          375 -94 -21 33 30 426 61 callgsubr
          hintmask 11111010
          -45 callsubr
          -151 -118 -162 -68 -105 -17 -47 rrcurveto
          hintmask 11110110
          -77 callsubr
          endchar
        </CharString>
        <CharString name="period">
          -100 -1 64 hstem
          88 80 vstem
          168 29 -2 callsubr
        </CharString>
        <CharString name="periodcentered">
          -100 283 64 hstem
          88 80 vstem
          168 313 -2 callsubr
        </CharString>
        <CharString name="perthousand">
          539 -94 -21 33 30 236 80 110 61 callgsubr
          206 47 hintmask 1111110110000000
          -45 callsubr
          -150 -118 -163 -68 -105 -17 -47 rrcurveto
          hintmask 1111101110000000
          -77 callsubr
          300 25 -52 callsubr
          -47 -25 -98 callsubr
          endchar
        </CharString>
        <CharString name="pi">
          12 -10 20 226 26 hstem
          332 290 rmoveto
          3 -1 101 callgsubr
          -19 -26 -25 -13 -17 -34 -76 24 -28 hhcurveto
          -35 -35 -20 -32 -34 hvcurveto
          -7 -5 -1 -6 -2 -5 rrcurveto
          -3 1 -1 1 vhcurveto
          4 hlineto
          25 25 33 15 34 hhcurveto
          2 hlineto
          -14 -79 -11 -64 -14 -41 -37 -78 rlinecurve
          -1 2 -1 4 30 44 167 25 7 vhcurveto
          7 25 5 24 3 23 68 -14 rcurveline
          -22 -50 -28 -77 -68 vvcurveto
          -23 9 -12 17 vhcurveto
          5 5 87 callsubr
          0 -1 1 hhcurveto
          10 4 11 -1 1 -3 3 -5 -3 -2 0 -1 -3 hvcurveto
          -12 -5 9 18 hvcurveto
          -1 29 11 35 15 39 32 82 rcurveline
          28 70 25 29 hvcurveto
          endchar
        </CharString>
        <CharString name="plus">
          80 212 48 hstem
          234 437 rmoveto
          -6 -30 -13 -48 -20 -65 -3 -10 -4 -11 -3 -13 rrcurveto
          -93 hlineto
          -32 -1 -16 0 0 vvcurveto
          -9 -16 -9 -15 -15 51 -8 101 hvcurveto
          -31 -114 -4 -12 8 -16 12 -3 rlinecurve
          8 -3 12 18 15 39 12 29 11 32 9 34 37 6 37 6 37 5 46 9 21 10 -5 10 -28 -2 -49 -1 -71 1 rrcurveto
          -17 hlineto
          10 81 5 48 13 vvcurveto
          25 -4 11 -8 -1 vhcurveto
          endchar
        </CharString>
        <CharString name="plusminus">
          112 65 32 190 21 163 -20 hstem
          216 28 vstem
          404 302 rmoveto
          2 -2 2 -4 2 vhcurveto
          -56 4 -51 2 -47 1 1 74 -2 50 -3 27 -5 5 rcurveline
          -9 -13 -10 -8 -17 1 -23 2 -29 hvcurveto
          3 -69 -75 1 -51 -2 -27 -3 rlinecurve
          -5 -5 rlineto
          -9 1 10 -12 8 hhcurveto
          17 24 1 1 29 hvcurveto
          2 33 23 1 13 hhcurveto
          -52 vlineto
          -47 2 -31 4 -14 vhcurveto
          -5 1 2 -3 1 hhcurveto
          3 3 2 4 2 hvcurveto
          3 7 3 49 1 91 rrcurveto
          1 73 50 0 28 hhcurveto
          9 6 rlineto
          -84 -216 -56 callgsubr
        </CharString>
        <CharString name="product">
          142 -26 20 6 20 306 42 hstem
          210 30 vstem
          452 374 rmoveto
          1 1 0 1 1 95 callgsubr
          vhcurveto
          -32 -47 -32 -11 -27 -40 -93 31 -37 hhcurveto
          -48 -48 -20 -50 -52 hvcurveto
          -9 -4 -5 -7 -2 -9 rrcurveto
          -4 1 -2 3 6 40 31 9 21 vhcurveto
          8 20 21 6 22 hhcurveto
          4 hlineto
          -27 -161 -9 -49 -68 -140 8 -2 rcurveline
          2 2 0 1 1 hvcurveto
          5 3 43 75 58 145 21 128 rlinecurve
          54 -11 16 -3 13 -3 9 -3 rlinecurve
          -31 -65 -19 -77 -14 -90 rrcurveto
          -1 -9 -1 -8 -8 vvcurveto
          -32 13 -17 27 vhcurveto
          8 4 28 2 10 vvcurveto
          3 -5 2 -6 -4 -4 0 -1 -3 vhcurveto
          -16 -8 12 24 hvcurveto
          -1 32 13 49 22 55 44 112 rcurveline
          43 91 30 40 hvcurveto
          endchar
        </CharString>
        <CharString name="q">
          6 -242 20 473 50 hstem
          81 31 -31 194 vstem
          338 228 rmoveto
          2 3 1 3 2 vvcurveto
          2 71 callgsubr
          3 vhcurveto
          -12 9 rlineto
          32 vlineto
          11 -3 -9 6 -15 hhcurveto
          -45 -60 -20 -41 -74 hvcurveto
          -31 -17 -31 -26 -31 -35 rrcurveto
          -35 -41 -18 -34 -29 vvcurveto
          -39 19 -18 38 3 vhcurveto
          23 2 32 15 39 27 -46 -107 rcurveline
          -17 -40 -8 -35 -31 vvcurveto
          -51 17 -26 35 35 34 24 49 31 vhcurveto
          28 43 14 38 32 vvcurveto
          15 -4 14 -9 14 vhcurveto
          18 -11 -15 9 -19 hhcurveto
          -18 -11 -1 -1 -3 hvcurveto
          19 44 35 47 49 50 rrcurveto
          27 92 rmoveto
          -126 -134 rlineto
          -58 -56 -45 -29 -33 hhcurveto
          -19 -7 8 17 3 hvcurveto
          9 45 40 47 73 47 rrcurveto
          42 65 50 21 33 hhcurveto
          8 4 -2 -4 1 hvcurveto
          -80 -306 rmoveto
          1 -22 -9 -31 -17 -39 rrcurveto
          -46 -21 -23 -23 -24 hhcurveto
          -9 -8 6 12 -6 hvcurveto
          -5 9 -2 9 7 vvcurveto
          19 8 30 15 39 vhcurveto
          14 34 13 27 13 21 22 -1 15 -4 7 -5 10 -7 5 -14 1 -21 rrcurveto
          endchar
        </CharString>
        <CharString name="question">
          75 -5 63 232 198 -41 41 hstemhm
          87 80 220 49 hintmask 11011000
          382 290 rmoveto
          36 28 18 34 41 vvcurveto
          63 -55 32 -111 -42 -39 -11 -22 -36 vhcurveto
          -43 -27 -24 -36 -4 -45 rrcurveto
          -33 -3 26 -24 33 hhcurveto
          26 24 11 23 21 hvcurveto
          3 3 2 4 5 24 callgsubr
          -1 36 callgsubr
          -2 vhcurveto
          -20 -19 -19 -10 -20 hhcurveto
          -24 -20 19 17 3 hvcurveto
          4 33 18 26 33 19 rrcurveto
          hintmask 10111000
          16 28 34 8 39 hhcurveto
          68 57 -28 -43 -22 -14 -24 -29 -26 hvcurveto
          -11 -9 -36 -25 -63 -41 -42 -27 -29 -31 -17 -35 rrcurveto
          -1 102 callgsubr
          -4 vvcurveto
          -9 2 -4 5 4 5 5 11 6 vhcurveto
          17 32 32 30 47 27 rrcurveto
          hintmask 11011000
          72 42 40 24 8 6 rrcurveto
          -215 -265 rmoveto
          19 -23 14 88 callgsubr
          -9 15 callgsubr
          endchar
        </CharString>
        <CharString name="questiondown">
          75 -206 41 -41 198 232 64 hstemhm
          -8 49 hintmask 01110000
          341 253 rmoveto
          19 -19 16 -23 -16 -22 -15 -16 25 callsubr
          26 13 10 19 hvcurveto
          4 -318 rmoveto
          33 3 -26 24 -33 hhcurveto
          -25 -24 -11 -23 -22 hvcurveto
          -5 -5 -1 -5 2 -5 1 -5 3 0 5 5 rrcurveto
          20 19 19 10 19 hhcurveto
          24 20 -19 -17 -3 hvcurveto
          -5 -33 -18 -26 -32 -19 rrcurveto
          hintmask 10110000
          -16 -28 -34 -8 -39 hhcurveto
          -34 -29 6 13 -23 hvcurveto
          -25 13 -13 18 21 vvcurveto
          23 14 24 29 26 vhcurveto
          11 10 36 25 62 39 41 27 30 31 17 35 rrcurveto
          44 callsubr
          3 5 vvcurveto
          9 -2 4 -5 -4 -5 -6 -11 -6 vhcurveto
          -17 -32 -32 -30 -47 -27 rrcurveto
          hintmask 01110000
          -71 -41 -40 -24 -9 -7 rrcurveto
          -35 -28 -18 -34 -41 vvcurveto
          -63 55 -32 110 42 39 11 22 36 vhcurveto
          43 27 24 36 4 45 rrcurveto
          endchar
        </CharString>
        <CharString name="quotedbl">
          -120 472 -20 hstem
          34 71 30 71 vstem
          206 438 rmoveto
          20 -22 14 -19 -20 -38 callsubr
          1 -14 -7 -15 24 callsubr
          -7 -51 callgsubr
          -101 hmoveto
          20 -9 callgsubr
          26 29 vvcurveto
          endchar
        </CharString>
        <CharString name="quotedblbase">
          -170 -25 -21 120 -20 hstem
          156 73 -39 callgsubr
          -69 2 -39 callgsubr
          endchar
        </CharString>
        <CharString name="quotedblleft">
          -120 327 -21 hstem
          14 71 30 71 vstem
          199 449 rmoveto
          -11 3 -16 37 callgsubr
          -19 23 -14 19 19 51 callgsubr
          vhcurveto
          -2 14 7 16 15 17 rrcurveto
          16 17 8 9 1 44 callgsubr
          1 vhcurveto
          -102 hmoveto
          -24 callgsubr
        </CharString>
        <CharString name="quotedblright">
          -120 99 callgsubr
          12 71 30 71 vstem
          184 403 rmoveto
          19 -22 14 -19 -20 -38 callsubr
          1 -13 -7 -16 24 callsubr
          -7 -9 -55 callsubr
          23 25 12 27 29 vvcurveto
          -101 hmoveto
          -16 callgsubr
        </CharString>
        <CharString name="quoteleft">
          -200 327 -21 hstem
          14 71 vstem
          97 449 rmoveto
          -24 callgsubr
        </CharString>
        <CharString name="quoteright">
          -187 99 callgsubr
          70 71 vstem
          141 403 rmoveto
          -16 callgsubr
        </CharString>
        <CharString name="quotesinglbase">
          -240 -25 -21 120 -20 hstem
          87 73 -39 callgsubr
          endchar
        </CharString>
        <CharString name="quotesingle">
          -196 99 callgsubr
          100 71 vstem
          171 403 rmoveto
          19 -23 14 -19 -19 -38 callsubr
          2 -14 -9 -19 -19 -24 rrcurveto
          -19 -24 -9 -13 -2 vvcurveto
          -2 59 callsubr
          -1 vhcurveto
          11 -3 18 14 25 30 rrcurveto
          27 33 14 31 29 vvcurveto
          endchar
        </CharString>
        <CharString name="r">
          68 -5 24 386 -20 hstem
          129 -68 callsubr
          endchar
        </CharString>
        <CharString name="racute">
          68 -5 24 386 -20 38 97 callsubr
          129 35 hintmask 10111000
          -67 callsubr
          hintmask 11011000
          -66 callsubr
          -130 292 -96 callgsubr
        </CharString>
        <CharString name="radical">
          135 14 -21 264 41 386 -20 hstem
          464 659 rmoveto
          1 77 callsubr
          10 -12 11 -12 -5 -4 -1 -4 -4 vhcurveto
          -106 -103 -100 -404 -11 -110 rrcurveto
          101 -18 -45 135 -47 hhcurveto
          -3 -4 -1 -1 -3 hvcurveto
          -9 -4 -36 -33 -30 -95 rrcurveto
          -1 -1 0 -2 -1 vvcurveto
          -8 4 -12 3 1 1 44 callsubr
          vhcurveto
          80 20 34 33 5 hhcurveto
          25 26 -70 -26 10 hvcurveto
          19 -50 9 -36 8 -54 rrcurveto
          -9 1 22 -19 12 hhcurveto
          4 3 3 5 1 hvcurveto
          28 337 158 244 54 77 rrcurveto
          endchar
        </CharString>
        <CharString name="rcommaaccent">
          68 -108 -20 123 24 386 -20 hstem
          -11 71 69 -68 callsubr
          -334 -250 -79 callsubr
        </CharString>
        <CharString name="registered">
          312 29 21 211 178 -12 95 -20 20 hstemhm
          41 36 387 25 54 38 hintmask 11011110
          -25 callsubr
          -83 -45 -78 -90 -72 vhcurveto
          -24 1 -23 17 -21 35 -15 25 -12 28 -9 32 40 1 38 7 36 15 rrcurveto
          47 19 24 27 33 vvcurveto
          27 -17 21 -33 13 vhcurveto
          10 -24 -28 5 -32 hhcurveto
          -54 -56 -12 -23 -59 hvcurveto
          65 69 72 33 73 hhcurveto
          85 58 -61 -85 hvcurveto
          -79 14 rmoveto
          -49 -58 -32 -117 -16 vhcurveto
          -9 3 -7 -5 -11 -4 rlineto
          -2 2 4 -1 6 hhcurveto
          9 -31 14 -31 19 -29 24 -37 24 -22 25 -6 rrcurveto
          -39 -54 -53 -19 -51 58 callsubr
          63 26 62 53 63 vhcurveto
          25 13 32 12 39 11 rrcurveto
          hintmask 10101110
          13 42 33 6 24 hhcurveto
          75 38 -19 -38 hvcurveto
          -106 40 rmoveto
          -22 11 -33 -33 -39 -49 -45 -67 rlinecurve
          -53 -77 -27 -54 -29 vvcurveto
          -24 4 -12 7 2 1 4 7 1 vhcurveto
          5 34 23 49 43 63 22 33 34 44 45 57 21 27 10 14 1 2 rrcurveto
          endchar
        </CharString>
        <CharString name="ring">
          -97 433 146 hstem
          43 37 72 24 vstem
          176 527 -13 callsubr
          -25 14 -13 27 24 21 10 19 19 vhcurveto
          19 20 9 22 23 vvcurveto
          -24 -2 -2 callgsubr
        </CharString>
        <CharString name="s">
          33 -2 64 341 -20 hstem
          -67 callgsubr
          endchar
        </CharString>
        <CharString name="scaron">
          33 -2 64 341 -20 95 94 callgsubr
          hintmask 11000000
          -67 callgsubr
          hintmask 00110000
          -21 255 -75 callgsubr
        </CharString>
        <CharString name="section">
          244 -42 25 512 22 hstem
          52 29 120 24 -6 28 228 74 -23 23 -4 28 vstem
          160 321 56 callgsubr
          4 vvcurveto
          60 64 47 64 24 vhcurveto
          80 -102 204 9 -106 vvcurveto
          -61 -64 -54 -67 -23 vhcurveto
          -24 17 -31 15 -33 13 -78 31 -102 26 -12 95 rrcurveto
          159 -395 rmoveto
          -60 -27 -59 -14 -58 -3 -80 -5 -45 18 -10 40 -7 29 11 31 27 26 22 25 28 17 30 15 rrcurveto
          13 6 6 5 3 70 callsubr
          -2 1 -6 hhcurveto
          -3 -6 -2 -3 -5 hvcurveto
          -40 -16 -32 -21 -25 -24 -36 -32 -13 -34 7 -33 14 -59 52 -26 91 5 64 4 64 17 67 32 63 29 110 73 -22 72 -3 7 -3 9 -12 12 rrcurveto
          92 38 72 78 71 vvcurveto
          128 -298 -35 -21 166 vhcurveto
          4 -1 2 4 vvcurveto
          96 181 59 72 4 vhcurveto
          52 2 40 -14 -11 -59 -3 -20 rcurveline
          -9 -3 0 -4 6 hhcurveto
          18 2 16 37 2 10 8 45 -4 52 -84 -5 rrcurveto
          -151 -7 -180 -106 -111 vvcurveto
          -17 4 -16 7 -15 vhcurveto
          -90 -37 -65 -71 -76 vvcurveto
          -132 177 -16 86 -55 vhcurveto
          100 -65 -88 -78 -74 -30 rrcurveto
          endchar
        </CharString>
        <CharString name="semicolon">
          -100 63 130 0 64 hstemhm
          97 71 -40 80 hintmask 01010000
          208 223 -18 callgsubr
          hintmask 10100000
          -40 -194 -79 callsubr
        </CharString>
        <CharString name="seven">
          168 6 -21 615 44 hstem
          121 28 vstem
          288 259 rmoveto
          111 110 135 112 159 115 7 5 -2 10 -13 13 -12 14 -10 4 -7 -5 -51 -38 rcurveline
          -22 3 -43 8 -64 15 rrcurveto
          13 -54 -43 6 -33 hhcurveto
          -79 -62 -21 -42 -47 hvcurveto
          17 -4 11 -4 3 vhcurveto
          -3 1 -2 -2 -2 -5 -3 -9 -1 -7 1 -7 1 -7 -3 -12 -8 -17 -18 -36 rcurveline
          -1 -1 -2 -1 -3 vhcurveto
          -1 -6 rlineto
          -16 -5 12 -12 15 hhcurveto
          13 9 7 13 5 hvcurveto
          15 44 26 30 38 17 rrcurveto
          12 29 44 6 57 hhcurveto
          32 70 -7 -15 109 hvcurveto
          -125 -99 -108 -101 -91 -103 rrcurveto
          -89 -100 -44 -85 -70 vvcurveto
          -16 -1 -19 19 9 4 4 8 -1 vhcurveto
          -1 5 -1 6 6 vvcurveto
          34 17 44 33 53 vhcurveto
          27 44 30 38 32 32 rrcurveto
          endchar
        </CharString>
        <CharString name="six">
          286 -19 26 205 35 hstem
          50 35 450 59 vstem
          371 427 rmoveto
          139 68 121 44 103 20 rrcurveto
          7 100 callsubr
          7 vvcurveto
          19 -25 19 -37 -3 vhcurveto
          -3 -52 -28 -2 -4 hhcurveto
          -8 1 -16 -6 -3 -5 -1 -3 1 -2 4 -2 rrcurveto
          4 10 -3 -1 4 hvcurveto
          -66 -22 -84 -39 -103 -56 -83 -45 -70 -57 -55 -69 -53 -66 -27 -61 -3 -56 -2 -39 12 -31 26 -22 rrcurveto
          -24 28 42 -12 57 hhcurveto
          57 69 13 25 82 hvcurveto
          41 13 37 19 33 25 rrcurveto
          41 33 21 34 36 vvcurveto
          46 -33 23 -67 -1 vhcurveto
          -58 -1 -55 -17 -53 -33 -61 -39 -36 -50 -11 -61 rrcurveto
          -11 -2 3 -6 8 hhcurveto
          9 6 6 13 2 hvcurveto
          9 49 32 40 57 33 rrcurveto
          28 49 49 14 47 hhcurveto
          31 15 -12 -23 -29 -18 -29 -37 -29 hvcurveto
          -30 -24 -31 -17 -33 -10 rrcurveto
          -21 -70 -59 -11 -47 hhcurveto
          -83 -42 30 61 59 35 65 69 70 hvcurveto
          57 59 60 45 65 31 rrcurveto
          endchar
        </CharString>
        <CharString name="slash">
          278 -103 -21 822 -20 hstem
          580 690 42 callgsubr
          -16 -84 -101 -201 -151 hvcurveto
          83 callsubr
          rrcurveto
          -50 callgsubr
          endchar
        </CharString>
        <CharString name="space">
          -128 endchar
        </CharString>
        <CharString name="sterling">
          555 -58 24 7 138 123 23 291 -20 hstem
          34 32 vstem
          875 39 rmoveto
          26 -27 31 -30 22 vhcurveto
          3 -3 -2 1 -3 hhcurveto
          -4 -1 -2 -4 -3 6 -8 12 -12 hvcurveto
          12 -12 7 -13 -14 vvcurveto
          -33 -23 -26 -46 -15 vhcurveto
          -12 -33 -37 -6 -43 hhcurveto
          -41 -48 7 15 -55 hvcurveto
          -60 14 -45 19 -31 19 26 24 29 44 31 64 14 28 21 49 29 71 rrcurveto
          163 hlineto
          19 10 8 16 4 -3 3 -5 hvcurveto
          -172 hlineto
          41 99 30 67 20 34 rrcurveto
          56 31 54 97 66 hhcurveto
          23 24 -14 -33 -44 -17 -38 -36 -33 hvcurveto
          -12 -9 -7 -8 -7 -4 rrcurveto
          -12 -9 -5 -8 -7 vvcurveto
          -4 1 -1 4 4 4 1 3 5 vhcurveto
          73 35 36 51 64 vvcurveto
          53 -35 36 -51 -39 -40 -12 -54 -48 vhcurveto
          -50 -58 -52 -117 -48 -143 rrcurveto
          -160 hlineto
          -16 -8 -8 -15 -5 4 -3 8 hvcurveto
          161 hlineto
          -42 -123 -44 -91 -46 -56 rrcurveto
          72 -143 -91 36 -41 hhcurveto
          -29 -14 -12 -25 -41 20 -34 38 -29 hvcurveto
          -28 36 38 -13 41 hhcurveto
          45 48 16 33 52 hvcurveto
          -60 115 127 -37 88 hhcurveto
          84 105 20 95 hvcurveto
          -551 -11 rmoveto
          -21 -30 -36 -10 -39 hhcurveto
          -28 -26 9 21 -26 hvcurveto
          -23 21 -13 24 29 vvcurveto
          5 5 3 8 21 35 -11 -19 49 vhcurveto
          50 -20 35 -17 18 -14 rrcurveto
          endchar
        </CharString>
        <CharString name="summation">
          70 0 30 372 30 hstem
          370 hmoveto
          -26 30 rlineto
          -266 hlineto
          202 196 -150 184 rlineto
          222 hlineto
          18 22 rlineto
          -318 hlineto
          180 -218 -212 -214 rlineto
          endchar
        </CharString>
        <CharString name="t">
          -29 -7 35 vstem
          405 324 rmoveto
          -10 -1 -32 0 -55 -1 -60 -1 -38 1 -17 1 rrcurveto
          32 36 16 22 9 vvcurveto
          6 -5 6 -11 6 vhcurveto
          -11 6 -7 2 -5 -1 -11 -4 -14 -13 -18 -23 -12 -17 -12 -16 -13 -16 rrcurveto
          -58 hlineto
          -6 -1 -3 0 0 vvcurveto
          -4 -1 -5 -2 -4 -3 rrcurveto
          -7 -5 -4 -6 -7 vvcurveto
          -20 18 -7 35 7 vhcurveto
          -19 -35 -18 -36 -18 -36 rrcurveto
          -24 -47 -12 -37 -25 vvcurveto
          -61 33 -14 55 5 vhcurveto
          38 4 44 13 47 29 48 29 39 36 32 39 rrcurveto
          10 12 5 9 67 callsubr
          -2 -4 -6 -5 -9 -9 vhcurveto
          -42 -45 -44 -37 -34 -21 rrcurveto
          -13 -21 -66 -30 -36 hhcurveto
          -36 -15 15 22 36 29 52 26 44 hvcurveto
          31 51 22 31 13 11 4 1 47 7 90 12 rrcurveto
          79 10 39 8 6 vvcurveto
          1 18 callsubr
          endchar
        </CharString>
        <CharString name="thorn">
          -55 93 callgsubr
          30 28 246 28 -21 -20 49 -20 155 -20 48 21 hstemhm
          -100 38 41 65 callgsubr
          -15 51 hintmask 111101111111111100000000
          461 226 rmoveto
          hintmask 111110011111111100000000
          31 callsubr
          19 28 82 callgsubr
          hintmask 111101111111111010000000
          1 callsubr
          -297 -441 rcurveline
          -41 -66 -14 -35 -11 -42 rrcurveto
          -25 -7 15 -30 25 20 callsubr
          65 101 73 107 13 -13 13 -8 13 -4 -7 callsubr
          -12 3 -8 4 -6 5 59 callgsubr
          hintmask 111110011111111100000000
          23 callsubr
        </CharString>
        <CharString name="three">
          392 11 -21 362 28 192 40 hstemhm
          32 72 556 58 -35 63 hintmask 11110100
          567 380 rmoveto
          117 36 59 47 3 58 rrcurveto
          61 3 -32 30 -65 hhcurveto
          -47 -60 -15 -31 -72 hvcurveto
          3 4 3 3 2 1 rrcurveto
          20 callgsubr
          76 callsubr
          1 vhcurveto
          -3 1 -4 -1 -4 -4 -33 -31 -24 -18 -16 -5 rrcurveto
          -13 -3 -6 -12 -19 vvcurveto
          -9 2 -4 5 2 2 1 2 3 vhcurveto
          31 20 37 18 43 16 rrcurveto
          18 48 41 9 33 hhcurveto
          38 19 -14 -29 -4 0 -4 -1 -5 hvcurveto
          -8 -47 -36 -35 -64 -25 rrcurveto
          -19 -49 -54 -10 -58 hhcurveto
          -17 -12 -15 -15 -11 6 -6 12 5 7 1 3 7 hvcurveto
          10 26 33 5 39 hhcurveto
          39 32 -6 -11 25 hvcurveto
          hintmask 11111000
          30 -13 15 -20 -26 vvcurveto
          -11 -2 -11 -5 -12 vhcurveto
          -33 -82 -63 -62 -93 -43 -83 -38 -81 -12 -77 14 rrcurveto
          -79 14 -40 36 58 vvcurveto
          11 2 11 3 12 vhcurveto
          7 24 22 23 37 23 rrcurveto
          20 33 28 10 21 hhcurveto
          9 5 86 callgsubr
          -4 3 -8 -31 -37 -9 -17 -41 hvcurveto
          -49 -21 -33 -25 -17 -31 rrcurveto
          -13 -24 -6 -22 -20 vvcurveto
          -39 22 -30 43 -21 vhcurveto
          -20 40 53 -10 65 hhcurveto
          101 94 21 43 87 hvcurveto
          98 49 59 64 20 79 rrcurveto
          3 10 1 9 9 vvcurveto
          60 -50 35 -101 11 vhcurveto
          endchar
        </CharString>
        <CharString name="threequarters">
          588 66 callgsubr
          8 13 191 12 1 62 callgsubr
          364 23 hintmask 0000010111010000
          340 604 -53 callgsubr
          hintmask 0000010111100000
          -49 callgsubr
          hintmask 0100001000000000
          307 -23 -61 callsubr
          hintmask 1011100000001000
          91 -383 -62 callsubr
          -207 -70 9 callsubr
        </CharString>
        <CharString name="threesuperior">
          150 372 13 204 62 callgsubr
          hintmask 11110100
          340 606 -53 callgsubr
          hintmask 11111000
          -49 callgsubr
          endchar
        </CharString>
        <CharString name="tilde">
          -54 458 69 callsubr
          hstemhm
          hintmask 01100000
          245 491 -62 callgsubr
          hintmask 10100000
          -33 callgsubr
        </CharString>
        <CharString name="trademark">
          330 343 -21 65 21 192 35 8 -20 hstemhm
          hintmask 11100000
          634 597 rmoveto
          18 -4 9 -8 -1 -24 -36 -72 -47 vhcurveto
          -72 -46 -33 -36 -20 hhcurveto
          -23 -17 29 57 -13 hvcurveto
          -6 39 -6 39 -7 39 rrcurveto
          15 -4 -4 7 -5 hhcurveto
          -13 -8 -12 -23 -3 hvcurveto
          -2 -16 -2 -16 -1 -17 -3 -9 -15 -39 -27 -67 rrcurveto
          -25 -63 -13 -33 -3 vvcurveto
          -5 4 -2 7 11 9 5 11 7 vhcurveto
          10 16 10 29 11 41 12 46 10 31 7 15 rrcurveto
          -90 25 29 -45 35 hhcurveto
          32 51 45 90 70 hvcurveto
          -15 -73 -10 -55 -7 -37 rrcurveto
          -1 -4 0 -3 -1 vvcurveto
          -6 4 -3 7 17 11 6 11 7 vhcurveto
          7 60 5 56 2 53 1 6 2 12 5 19 rrcurveto
          3 16 2 11 7 vvcurveto
          -297 38 rmoveto
          hintmask 11010000
          5 -7 3 -15 vhcurveto
          hintmask 11100000
          -37 -51 -3 -5 -65 hvcurveto
          -85 -6 -45 -7 -5 -9 rrcurveto
          -9 3 8 -4 14 16 40 5 16 hhcurveto
          19 9 -3 -6 -5 -4 -14 -8 -23 hvcurveto
          -17 -38 -16 -38 -16 -38 rrcurveto
          -25 -61 -13 -35 -9 vvcurveto
          -9 6 -4 12 10 57 callsubr
          4 vhcurveto
          12 27 9 23 5 17 11 33 10 34 10 33 14 43 13 32 11 21 5 9 27 7 49 5 rrcurveto
          46 5 23 7 8 vvcurveto
          endchar
        </CharString>
        <CharString name="two">
          322 -49 38 574 47 hstemhm
          638 38 -38 82 hintmask 11010000
          627 367 rmoveto
          53 54 30 50 8 46 rrcurveto
          1 8 1 7 7 vvcurveto
          47 -31 24 -61 -55 -68 -18 -35 -79 vhcurveto
          -71 -32 -60 -36 -47 -40 rrcurveto
          -4 -3 -2 -4 -5 vvcurveto
          -8 3 -4 7 86 callsubr
          3 3 vhcurveto
          35 31 48 30 61 28 rrcurveto
          30 66 55 15 44 hhcurveto
          45 23 -18 -36 -5 -1 -6 -1 -6 hvcurveto
          -7 -43 -19 -40 -31 -37 -22 -27 -34 -32 -46 -36 -48 -38 -102 -66 -156 -94 -37 3 -33 -2 -27 -5 -17 -3 -16 -7 -15 -10 rrcurveto
          -17 -13 -9 -14 -15 vvcurveto
          -12 8 -6 16 6 7 1 2 8 vhcurveto
          53 19 39 15 26 12 rrcurveto
          20 25 -5 -9 30 hvcurveto
          139 -50 rlineto
          -19 55 49 -10 41 hhcurveto
          35 32 8 17 31 hvcurveto
          hintmask 11100000
          37 21 19 26 32 vvcurveto
          37 -28 27 -55 16 vhcurveto
          -11 3 -6 -2 -9 vvcurveto
          -3 3 -3 5 -2 vhcurveto
          41 -15 20 -21 -26 vvcurveto
          -23 -15 -18 -29 -12 vhcurveto
          -10 -23 -24 -5 -26 hhcurveto
          -46 -58 12 24 -71 hvcurveto
          -75 25 -52 14 -29 3 124 65 97 60 70 55 63 50 47 40 29 30 rrcurveto
          endchar
        </CharString>
        <CharString name="twosuperior">
          129 350 22 345 28 hstemhm
          383 23 -23 49 hintmask 11010000
          376 599 -58 callsubr
          hintmask 11100000
          -32 callgsubr
          endchar
        </CharString>
        <CharString name="u">
          99 -11 31 296 -20 hstem
          463 150 rmoveto
          6 7 1 -36 callsubr
          -48 -72 callgsubr
          -35 -39 -8 -8 rrcurveto
          -74 -71 -38 -9 -28 callgsubr
          37 53 32 38 25 23 -20 callgsubr
          -20 -10 -20 -17 vhcurveto
          -138 -162 rlineto
          -6 -8 -3 -5 53 callsubr
          4 4 2 2 2 vhcurveto
          30 34 29 26 0 vvcurveto
          -35 -49 -20 -45 3 -29 rrcurveto
          -34 3 15 -17 27 hhcurveto
          27 59 24 110 94 hvcurveto
          -3 -13 -4 -13 -4 -13 rrcurveto
          -48 callgsubr
          22 23 30 35 rrcurveto
          endchar
        </CharString>
        <CharString name="uacute">
          99 -11 31 448 -103 callsubr
          -193 215 -74 callgsubr
          -5 -5 23 callgsubr
          -46 -36 -35 -27 -25 -18 rrcurveto
          -2 -40 callgsubr
        </CharString>
        <CharString name="ucircumflex">
          99 -11 31 430 -103 callsubr
          -60 232 10 callgsubr
          21 16 32 39 vhcurveto
          7 -7 13 -11 21 41 callgsubr
        </CharString>
        <CharString name="udieresis">
          99 -11 31 296 59 70 -103 callsubr
          -146 293 rmoveto
          1 0 0 -1 1 vhcurveto
          -1 14 callsubr
          -12 53 callgsubr
          -8 vvcurveto
          35 callgsubr
          98 hmoveto
          -29 callgsubr
          -15 8 8 7 79 callgsubr
          vhcurveto
          13 32 26 callsubr
          rlinecurve
          endchar
        </CharString>
        <CharString name="ugrave">
          99 -11 31 435 -103 callsubr
          -139 224 rmoveto
          2 -1 2 -2 2 vhcurveto
          -37 31 -30 23 -21 15 rrcurveto
          4 -5 -5 2 39 callsubr
          -4 -7 -7 2 -5 4 -3 hvcurveto
          7 -5 17 -11 29 -18 rrcurveto
          -17 29 66 callsubr
        </CharString>
        <CharString name="underscore">
          480 -70 45 -27 -21 hstemhm
          hintmask 10000000
          793 -53 rmoveto
          19 -2 -9 9 -17 hhcurveto
          -740 hlineto
          -11 -6 -6 -13 hvcurveto
          hintmask 01000000
          -19 6 -10 11 vhcurveto
          hintmask 10000000
          25 32 1 2 40 hvcurveto
          2 49 33 1 15 hhcurveto
          5 191 189 2 187 hhcurveto
          endchar
        </CharString>
        <CharString name="uni00AD">
          -30 callgsubr
        </CharString>
        <CharString name="v">
          -25 18 -21 hstem
          317 21 vstem
          271 393 rmoveto
          -8 -3 -1 -8 -4 2 -3 5 -2 hvcurveto
          33 -15 11 -22 -27 vvcurveto
          -45 -35 -57 -82 -69 vhcurveto
          -69 -57 -49 -33 -29 -9 -2 14 15 45 33 76 rrcurveto
          33 77 17 39 2 vvcurveto
          17 -1 -16 15 -15 hhcurveto
          -4 -4 -1 -3 -3 hvcurveto
          -11 -9 -23 -48 -33 -88 -33 -87 -15 -50 1 -11 rrcurveto
          -13 1 33 -19 13 hhcurveto
          47 15 59 41 73 66 rrcurveto
          84 76 47 69 53 vvcurveto
          50 -34 26 -38 vhcurveto
          endchar
        </CharString>
        <CharString name="w">
          123 9 23 -13 -21 325 -20 hstemhm
          171 48 196 33 hintmask 10111000
          448 232 rmoveto
          18 -5 37 -7 11 vhcurveto
          20 -9 -11 2 -8 hhcurveto
          -6 -1 -7 -4 3 hvcurveto
          7 -12 5 -18 1 -25 2 -36 -15 -46 -28 -52 rrcurveto
          -59 -32 -34 -29 -36 hhcurveto
          -13 hlineto
          -28 -14 21 42 24 8 27 17 31 hvcurveto
          10 18 15 22 20 27 rrcurveto
          17 22 8 13 3 vvcurveto
          12 -17 16 -15 -20 -42 -37 -75 -65 vhcurveto
          -33 -41 -34 -40 -34 -41 -1 14 18 39 36 65 rrcurveto
          37 65 18 33 2 vvcurveto
          9 -13 20 -16 -20 -31 -46 -93 -42 vhcurveto
          -39 -86 -20 -51 -17 vvcurveto
          -7 6 -7 12 -7 vhcurveto
          hintmask 01111000
          -7 11 9 -4 7 hhcurveto
          15 25 27 36 39 49 35 44 27 31 18 18 rrcurveto
          -11 -36 -5 -29 -21 vvcurveto
          -26 7 -23 13 -21 vhcurveto
          hintmask 10111000
          -24 15 19 -12 24 hhcurveto
          49 46 26 52 43 hvcurveto
          41 49 20 49 47 vvcurveto
          endchar
        </CharString>
        <CharString name="x">
          101 -81 -21 86 43 389 -20 hstem
          178 47 vstem
          461 148 rmoveto
          7 8 1 5 3 68 callsubr
          -5 -4 -4 -6 -6 vhcurveto
          -77 -67 -68 -60 -41 hhcurveto
          -43 -14 53 109 5 hvcurveto
          27 25 43 36 53 38 59 43 40 30 21 17 rrcurveto
          5 5 3 5 6 vvcurveto
          12 -14 14 -9 -2 -2 -1 -1 -1 vhcurveto
          -119 -101 -77 -68 -25 -24 rrcurveto
          5 79 8 40 2 vvcurveto
          23 4 -18 4 -16 hhcurveto
          -14 -16 -5 -12 -13 hvcurveto
          -26 -23 -45 -67 -21 -32 -34 -52 -16 -21 -36 -40 rrcurveto
          -17 -19 -3 -3 -5 vvcurveto
          -5 2 0 3 20 callgsubr
          5 vhcurveto
          5 4 47 48 45 67 46 68 37 45 15 3 -3 -71 -1 -51 -1 -32 -72 -74 -67 -86 -62 -98 rrcurveto
          -1 -1 -1 -2 -2 vvcurveto
          -7 4 -4 8 86 callsubr
          3 2 vhcurveto
          41 71 61 78 81 86 1 -35 2 -28 4 -21 rrcurveto
          -46 10 21 -23 32 hhcurveto
          31 40 20 40 48 hvcurveto
          39 33 25 30 35 41 rrcurveto
          endchar
        </CharString>
        <CharString name="y">
          75 callgsubr
          hstem
          -22 39 vstem
          -91 callgsubr
          endchar
        </CharString>
        <CharString name="yacute">
          75 callgsubr
          81 97 callsubr
          -22 39 hintmask 11100100
          -91 callgsubr
          hintmask 00011000
          -122 67 -96 callgsubr
        </CharString>
        <CharString name="ydieresis">
          75 callgsubr
          87 -21 86 -20 hstem
          -22 39 vstem
          -91 callgsubr
          -121 161 rmoveto
          -99 callsubr
          121 hmoveto
          -99 callsubr
          -117 15 callsubr
          120 1 rmoveto
          67 callgsubr
        </CharString>
        <CharString name="yen">
          223 -48 -21 40 -21 182 36 55 36 2 -20 24 54 96 -20 65 23 hstem
          15 44 246 37 vstem
          483 188 rmoveto
          99 callsubr
          -1 2 vhcurveto
          -172 -5 10 17 21 28 10 15 rlinecurve
          27 29 110 15 51 1 4 15 rlinecurve
          1 2 -138 -1 rlineto
          133 128 296 222 84 hhcurveto
          15 10 -5 -11 6 hvcurveto
          7 -17 rlineto
          2 1 4 2 1 hvcurveto
          24 6 -22 18 -41 hhcurveto
          -70 -105 -53 -101 -124 hvcurveto
          -66 -52 -75 -57 -102 -108 rrcurveto
          -6 hlineto
          28 48 53 87 29 61 13 50 rlinecurve
          89 23 -30 28 -71 hhcurveto
          -94 -116 -73 -72 -57 hvcurveto
          -23 -29 9 -36 14 19 rrcurveto
          54 39 142 115 81 hhcurveto
          37 21 -23 -57 -14 hvcurveto
          -16 -62 -34 -66 -74 -133 rrcurveto
          -115 hlineto
          -18 -8 -9 -15 -4 hvcurveto
          -4 -15 49 6 82 -1 -55 -86 rcurveline
          -106 hlineto
          -17 -9 -6 -18 -5 hvcurveto
          -2 -11 46 4 77 -2 -28 -52 -27 -57 -10 -37 rrcurveto
          -47 -12 10 -24 33 hhcurveto
          19 82 37 21 6 hvcurveto
          4 1 -3 2 -2 1 -58 -40 -16 hhcurveto
          -10 -3 11 21 5 hvcurveto
          10 34 34 64 38 65 97 4 90 19 2 8 rrcurveto
          endchar
        </CharString>
        <CharString name="z">
          93 callsubr
          hstem
          66 26 vstem
          -80 callgsubr
          endchar
        </CharString>
        <CharString name="zcaron">
          93 callsubr
          67 94 callgsubr
          66 26 hintmask 11100100
          -80 callgsubr
          hintmask 00011000
          -234 206 -75 callgsubr
        </CharString>
        <CharString name="zero">
          250 12 -21 652 -20 hstem
          33 46 528 53 vstem
          608 609 rmoveto
          12 -5 7 2 1 9 rrcurveto
          19 -25 9 -50 -31 -26 -3 -7 -20 vhcurveto
          -33 3 -24 -5 -9 45 callgsubr
          -2 3 -3 vhcurveto
          -59 -27 -58 -38 -57 -49 -60 -51 -46 -52 -32 -53 rrcurveto
          -52 -85 -26 -78 -69 vvcurveto
          -71 28 -40 55 -7 vhcurveto
          -2 12 13 -1 13 hhcurveto
          113 115 51 103 116 hvcurveto
          49 43 39 49 29 55 rrcurveto
          30 55 15 53 50 vvcurveto
          55 -19 45 -37 35 vhcurveto
          -17 16 -19 12 -21 7 20 1 20 -4 21 -8 rrcurveto
          -125 hmoveto
          28 -5 31 -15 33 -26 rrcurveto
          21 -17 11 -34 -51 vvcurveto
          -107 -52 -100 -104 -91 vhcurveto
          -121 -106 -107 -49 -95 8 rrcurveto
          -33 3 -16 26 51 vvcurveto
          72 27 78 55 85 vhcurveto
          34 52 42 50 50 49 69 66 65 42 62 19 rrcurveto
          endchar
        </CharString>
      <CharString index="0">
        -105 callgsubr
        -51 -103 -26 -86 -68 vvcurveto
        -33 8 -19 16 -6 vhcurveto
        -1 5 6 -1 6 hhcurveto
        36 41 18 24 7 hvcurveto
        47 callsubr
        -2 -7 -4 -9 -11 vhcurveto
        -9 -11 -9 -5 -8 hhcurveto
        -19 -10 15 31 44 31 83 62 121 hvcurveto
        85 6 48 7 11 7 rrcurveto
        1 48 callsubr
        vvcurveto
        3 -12 2 -24 vhcurveto
        -1 -60 -32 -1 -5 hhcurveto
        19 34 23 45 28 57 20 41 15 28 9 13 17 23 16 17 16 11 7 5 79 callgsubr
        26 rrcurveto
        return
      </CharString>
      <CharString index="1">
        1130 601 rmoveto
        5 21 3 16 11 87 callgsubr
        7 -7 -16 -47 -40 -81 -77 vhcurveto
        -107 callgsubr
        -104 -71 -48 callsubr
        return
      </CharString>
      <CharString index="2">
        -119 -125 -86 -86 -52 -48 rrcurveto
        -33 -37 3 5 -41 hvcurveto
        -22 -13 -12 -25 -3 hvcurveto
        -2 -6 6 -3 13 -1 rrcurveto
        10 12 2 3 14 hvcurveto
        32 5 24 2 16 1 -116 -107 -86 -75 -55 -41 rrcurveto
        -89 -118 -94 -45 -70 hhcurveto
        -73 -36 36 71 47 17 62 34 77 hvcurveto
        41 92 58 77 76 61 rrcurveto
        55 69 60 28 53 hhcurveto
        55 18 -44 -40 -29 -11 -33 -23 -36 hvcurveto
        -33 -54 rlineto
        -1 59 callsubr
        2 2 0 1 3 vhcurveto
        21 11 20 25 20 40 rrcurveto
        20 40 10 36 33 vvcurveto
        49 -33 24 -66 -67 -74 -30 -59 -82 vhcurveto
        -84 -61 -66 -73 -48 -86 rrcurveto
        -36 -64 -18 -61 -57 vvcurveto
        -97 51 -52 103 -9 vhcurveto
        77 -7 110 49 143 104 90 66 90 77 89 87 rrcurveto
        5 18 0 1 31 hvcurveto
        1 31 22 1 13 hhcurveto
        return
      </CharString>
      <CharString index="3">
        -97 callgsubr
        47 93 102 81 125 36 -99 callgsubr
        -222 -215 -65 callsubr
        return
      </CharString>
      <CharString index="4">
        948 540 rmoveto
        1 68 callgsubr
        7 -5 3 -11 -31 -29 -20 -39 -27 vhcurveto
        -37 -55 -57 -67 -77 -78 -87 -89 -84 -73 -80 -57 rrcurveto
        -21 -29 -21 -10 -15 hhcurveto
        -14 -7 9 18 19 7 24 14 31 hvcurveto
        14 31 15 25 17 20 82 99 58 76 34 52 rrcurveto
        39 60 20 46 31 vvcurveto
        24 -11 18 -21 13 vhcurveto
        11 -19 -25 6 -32 hhcurveto
        -48 -56 -12 -23 -65 hvcurveto
        -60 -22 -50 -25 -39 -28 rrcurveto
        -133 -95 -66 -93 -90 vvcurveto
        -31 9 -28 17 -23 vhcurveto
        15 -21 18 -12 20 -3 rrcurveto
        -1 9 9 -1 9 hhcurveto
        45 47 16 31 50 hvcurveto
        45 29 27 27 7 25 -6 -2 -27 -17 -49 -33 rrcurveto
        -29 -41 -38 -15 -34 hhcurveto
        -12 -12 2 3 -11 hvcurveto
        -38 10 -19 26 42 vvcurveto
        37 15 41 30 45 vhcurveto
        31 48 42 42 52 35 rrcurveto
        85 124 98 43 71 hhcurveto
        25 22 -5 -10 19 hvcurveto
        23 -12 -5 -35 -33 -59 -25 -43 -39 -55 -55 -69 -33 -41 -34 -40 -33 -40 rrcurveto
        -45 -56 -23 -55 -54 vvcurveto
        -45 19 -22 38 26 33 12 24 40 vhcurveto
        20 12 37 33 55 55 26 26 56 58 86 90 104 111 rcurveline
        -180 -321 -123 -232 -104 -112 -83 8 rlinecurve
        -23 2 -17 9 -10 16 -5 9 -7 19 -8 29 rrcurveto
        1 -5 -5 1 -5 hhcurveto
        -14 -7 -7 -14 -23 13 -20 26 -19 hvcurveto
        -17 23 24 -8 25 hhcurveto
        39 43 16 33 45 hvcurveto
        51 37 48 54 43 70 158 265 114 195 71 124 rrcurveto
        return
      </CharString>
      <CharString index="5">
        -20 hstem
        -10 47 vstem
        339 270 -104 callsubr
        return
      </CharString>
      <CharString index="6">
        -17 callgsubr
        9 -38 -32 4 -26 hhcurveto
        -54 callsubr
        42 -1 31 -3 19 -5 37 -11 32 -17 27 -24 -85 callsubr
        return
      </CharString>
      <CharString index="7">
        -12 callsubr
        -20 -45 -24 -39 -28 -105 callsubr
        return
      </CharString>
      <CharString index="8">
        -86 callgsubr
        -64 callgsubr
        -9 -4 -3 -6 -11 callgsubr
        hvcurveto
        19 17 9 20 1 23 rrcurveto
        return
      </CharString>
      <CharString index="9">
        -43 callsubr
        -35 -88 callsubr
        42 37 49 rrcurveto
        -72 97 -77 callgsubr
        return
      </CharString>
      <CharString index="10">
        -90 callsubr
        -63 -57 -85 -34 -105 -11 rrcurveto
        -2 -18 -17 -1 -17 hhcurveto
        -60 -46 12 25 -33 hvcurveto
        -29 22 -15 30 37 vvcurveto
        23 6 25 13 26 vhcurveto
        return
      </CharString>
      <CharString index="11">
        -74 callgsubr
        -4 -6 23 callgsubr
        -105 -81 rlineto
        -3 -40 callgsubr
      </CharString>
      <CharString index="12">
        -44 callgsubr
        -21 -45 -24 -39 -27 -105 callsubr
        return
      </CharString>
      <CharString index="13">
        -20 hstemhm
        4 callgsubr
        hintmask 1111001111000000
        -107 callsubr
        hintmask 0000110000000000
        return
      </CharString>
      <CharString index="14">
        1101 532 rmoveto
        29 -7 -16 14 -25 hhcurveto
        -6 -7 -1 -3 -7 hvcurveto
        -117 -43 -143 -91 -168 -141 -46 -39 -34 -33 -21 -27 36 55 27 45 17 35 rrcurveto
        39 79 19 62 47 vvcurveto
        31 -9 24 -17 16 vhcurveto
        19 -21 -34 10 -47 hhcurveto
        -48 -53 -10 -19 -57 hvcurveto
        -57 -19 -47 -24 -36 -29 rrcurveto
        -143 -115 -71 -109 -104 vvcurveto
        -88 56 -56 87 22 callgsubr
        11 -6 callgsubr
        4 45 callsubr
        -42 -57 -62 -28 -83 2 rrcurveto
        -59 1 -30 33 64 vvcurveto
        45 17 51 33 56 vhcurveto
        37 61 53 58 67 55 rrcurveto
        73 90 84 36 79 hhcurveto
        43 28 -12 -24 11 hvcurveto
        7 -15 4 -17 -20 vvcurveto
        -48 -23 21 callsubr
        -54 -9 -29 rrcurveto
        -13 -4 12 -6 28 hhcurveto
        14 12 3 5 9 hvcurveto
        13 9 6 5 1 0 -9 2 9 vvcurveto
        10 8 18 16 25 vhcurveto
        48 77 80 91 111 105 141 132 115 70 88 8 -6 callsubr
        5 8 -3 11 -30 callsubr
        -17 -3 -8 9 21 vvcurveto
        44 28 71 10 callsubr
        return
      </CharString>
</ttFont>
